<svg xmlns="http://www.w3.org/2000/svg" width="2348" height="2040" fill="none" viewBox="0 0 2348 2040"><path fill="#282220" d="M703.92 24.942A881.2 881.2 0 0 1 916.29.328c20.73.145 41.42 2.371 62.1 3.602 19.06 1.134 38.27 1.273 57.22 3.72 24.61 3.178 48.71 9.277 73.11 13.653 30.16 5.408 58.66 8.574 88.11 18.245 28.29 8.588 54.78 17.213 81.73 29.562 14.84 5.167 28.75 15.226 42.2 23.368 77.3 46.815 137.06 101.573 190.95 174.093 10.79 12.404 45.4 65.885 50.34 79.389 26.12 2.795 53.84.768 80.14.611 10.11-.06 21.1-.74 31.08.772 28.69-1.372 61.94 5.399 89.52 13.457 28.6 7.019 58.12 12.165 85.53 23.158 9.79 3.152 19.75 6.063 29.24 10.016 12.21 4.757 24.99 10.999 36.27 17.672 39.2 11.751 103.19 62.093 135.59 88.625 8.23 6.745 19.49 14.369 26.02 22.608 6.11 5.565 12.39 11.032 18.2 16.918 17.96 14.002 34.1 30.916 49.66 47.481 69.88 74.37 126.51 158.872 164.75 253.582 6.13 15.18 13.22 30.63 17.73 46.36 4.88 17.03 6.98 35.14 9.66 52.64 8.02 52.28 13.02 103.02 11.35 155.97-2.3 72.47-18.13 151.45-36.65 221.65-3.88 14.73-6.95 30.27-12.21 44.56-10.79 29.27-24.58 56.88-38.85 84.56-47.02 91.16-104.42 176.77-176.42 250.29-20.04 20.46-42.32 39.89-65.01 57.36-12.92 9.96-27.71 18.45-39.5 29.73-.39.37-.77.75-1.15 1.13 17.79 15.4 39.29 26.56 59.23 38.97 15.5 9.65 30.66 20.81 44.78 32.4 18.81 15.43 32.98 36.96 34.95 61.7 1.7 21.2-7.78 48.47-21.67 64.5-19.3 22.28-63.89 42.8-92.45 49.47-18.97 4.42-40.82 6.17-60.31 7.18-51.37 2.68-106.72-9.15-153.08-31.08-6.91-3.28-12.67-8.47-19.55-11.81-23.55-11.39-48.19-20.82-71.86-31.84-13.9-6.48-24.53-17.39-40.55-18.98-20.35-2.02-42.76 2.07-63.38 2.13-21.91.07-43.85-1.03-65.77-1.25-39.04-.39-78.44-.24-117.35-3.77-30.04-2.73-59.3-10.11-89.1-14.44-21.71-3.15-43.28-5.5-64.84-9.73-22.08-4.33-43.72-10.46-65.71-15.12-15.99-3.39-32.35-4.91-48.18-9.12-13.19-3.51-26.11-8.36-39.11-12.53-13.18-4.22-26.64-7.57-39.76-11.98-8.85-2.98-17.26-6.99-25.97-10.29-8.04-3.03-16.56-4.77-24.52-7.94-12.84-5.12-25.33-12.41-37.99-18.14a1457 1457 0 0 1-227.001-129.88c-37.236-26.41-72.381-55.88-107.717-84.71-43.994-35.89-87.351-72.41-128.303-111.77a1106 1106 0 0 1-122.722-140.21c-21.455-28.65-44.24-80.54-71.377-101.59-9.505-7.38-26.849-6.12-38.332-10.39-11.809-4.39-23.13-10.04-34.892-14.55-10.336-3.97-21.187-6.49-31.523-10.43-26.566-10.14-51.21-21.62-76.777-33.87-36.084-17.29-70.61-32.35-100.763-59.55-19.888-17.94-33.973-48.18-35.047-75.1-2.496-62.58 10.497-83.1 52.276-128.19 44.528-48.05 98.092-39.19 157.23-41.4-.315-17.54-3.526-35.48-4.714-53.06-1.825-27.03-1.565-54.35-1.172-81.42.592-40.791 6.871-78.238 14.787-118.11 3.709-18.682 5.184-37.924 10.052-56.328 3.658-13.829 9.312-27.073 14.123-40.522 4.009-11.208 6.966-22.863 11.415-33.9 16.633-41.255 38.473-79.515 59.61-118.544 9.132-16.861 17.309-34.229 26.344-51.143 48.647-91.067 86.546-138.712 168.832-201.859 16.259-12.478 31.429-25.391 48.453-36.988 15.197-10.354 32.611-26.603 50.049-31.876 10.055-5.37 18.998-11.938 29.52-16.62.164-.077.324-.164.493-.23 22.36-8.842 42.276-21.969 66.266-26.258"/><path fill="#1d191b" d="M703.92 24.942A881.2 881.2 0 0 1 916.29.328c20.73.145 41.42 2.371 62.1 3.602 19.06 1.134 38.27 1.273 57.22 3.72 24.61 3.178 48.71 9.277 73.11 13.653 30.16 5.408 58.66 8.574 88.11 18.245 28.29 8.588 54.78 17.213 81.73 29.562-.93.686-.71.596-2.23 1.123-10.1 3.483-22.2-4.177-31.34-8.215l-.44-1.504 2.78-2.557c-4.97-1.542-12.53-4.96-17.56-3.27 3.95 1.801 7.95 3.273 12.04 4.727l.45 2.07-1.89.713c-.33-.202-.66-.41-1-.606-.53-.307-1.07-.594-1.6-.904-5.98-3.518-12.34-3.568-18.86-5.418-6.95-1.97-13.78-6.38-19.6-10.538l2.25.327c-1.81-2.72-2.45-2.365-5.41-3.386-1.83-.19-4.22.298-5.92-.21-5.37-1.603-10.75-4.21-16.14-5.994-2.47-.818-5.31-2.493-7.66-1.316 4.84 4.036 10.37 4.6 16.37 5.835 2.31.477 2.17 1.155 3.49 3.006l-.48 1.78c-9.24-.686-16.94-7.26-26.11-7.943-17.99-1.339-35.88-5.725-53.61-8.86-14.31-2.53-28.75-4.283-43.03-7.058-10.23-1.989-19.88-4.52-30.31-5.784-17.83-2.157-62.56-1.219-75.93-6.466C936.15.556 892.779.786 871.669 6.518l.176.747c7.077-.125 14.001-.229 21.053.505-29.906 5.278-63.271 3.705-93.812 6.644-12.045 1.16-36.197 8.036-45.777 7.325-.814-.06-1.582-.403-2.373-.604l.27.685c1.954-2.24 1.41-2.128 1.297-4.904l-.132 3.47 1.407-3.24 1.531 1.038c-.795-.276-1.557-.674-2.384-.83-5.176-.975-20.596 2.765-24.385 6.241 3.308-.743 6.538-1.759 9.71-.219l-.523 2.262.985-.608c-1.821.781-.996.61-2.959.732-10.838.671-17.926 4.174-28.006 7.291-1.615.5-.901.49-2.514-.353 3.14-1.147 5.665-1.883 8.296-4.025-2.556-1.607-6.021-1.684-8.989-2.156zM1673.27 347.343c28.69-1.372 61.94 5.399 89.52 13.457 28.6 7.019 58.12 12.165 85.53 23.158l-3.48 3.201c-4.41-.75-10.11-.955-12.93-4.64l2.2-1.145c-3.18-.389-5.09 2.015-9.41 1.182-10.07-1.944-20.29-6.748-30.52-7.476-.79-.056-1.57-.081-2.36-.122l.78-1.015 7.07-.902c-.26-.104-.52-.186-.76-.312-5.26-2.744-13.53-3.253-19.42-4.033l3.59 3.631-.48.435c-16.44-1.842-32.91-8.094-49.19-11.376-15.58-3.142-31.57-3.479-47.24-6.274-8.73-3.777-42.78.335-53.9.427-14.49.119-29.34.178-43.74-1.523l-.66-1.6c3.73-2.598 16.27-1.209 21.14-1.189v-.82c-14.07-.302-28.3.591-42.27-.993 34.76-3.065 70.45 1.546 105.16-1.921zM1511.71 266.571c10.79 12.404 45.4 65.885 50.34 79.389l-.51.723c-6.47-3.88-7.91-15.195-14.64-17.691l-2.14 1.94c-8.6-5.167-22.19-45.423-29.09-54.327-1.83-2.371-3.33-4.76-4.87-7.32zM1877.56 393.974c12.21 4.757 24.99 10.999 36.27 17.672-2.35 1.489-5.1 2.082-7.8 1.486-9.2-2.026-25.88-9.316-30.97-17.55zM607.641 68.05c10.055-5.371 18.998-11.938 29.52-16.621l3.899 4.362c-3.397 1-9.769 1.969-12.588 3.78-6.107 3.922-10.6 17.708-20.296 13.171-.21-1.567-.443-3.114-.535-4.692"/><path fill="#f1af4e" d="m614.188 102.205-2.573-2.623c10.488-9.957 81.927-44.094 98.407-46.819 9.939-1.643 15.933-9.729 25.528-10.997 12.507-1.653 14.77 5.684 30.18-.051-.572-.567-1.038-1.267-1.717-1.701-.663-.426-1.478-.547-2.217-.82 94.248-21.843 182.024-20.322 277.104-4.377 8.46 1.419 16.66 3.856 25.07 5.406 15.79 2.909 35.85 1.572 50.41 8.712l-1.13 1.877 1.91.981c2.16-.512 5.27-1.627 7.49-1.174 10.44 2.125 18.58 7.844 29.94 9.16 1.84.213 3.02.416 4.86.971 10.18 3.075 22 3.54 31.67 7.802 1.77.783 3.2 1.339 5.14 1.637.63.097 1.27.173 1.9.26l-3.29 2.946c97.19 33.446 196.6 96.591 263.15 175.602 10.81 12.838 22.2 25.371 32.16 38.887 7.02 9.534 23.13 35.95 29.93 42.295l.64-3.377 1.57-.199c.24.584.44 1.19.73 1.752 4.1 7.979 9.73 16.105 14.67 23.654l.98-.97-1.26-4.348 1.04-.508c8.41 7.812 5.49 21.186 12.28 28.329l.87-3.405c2.08 1.827 1.96 1.276 2.65 4.241 2.97 12.811 18.05 27.8 14.51 40.847 2.27 1.371 4.26-.856 4.67 1.643.5 3.094-.57 6.169-1.33 9.149 1.61 3.552 3.94 3.791 7.47 5.323-.09 5.544-1.02 12.358 1.37 17.443 1.73-.624.96-.065 2.07-1.952 4.23 4.316 7.03 16.365 9.32 22.221 4.59 11.788 10.76 23.241 14.73 35.225 9.13 27.589 22.64 100.566 22.25 129.477a83 83 0 0 1-.41 7.208l-1.33-2.672-1.15 1.07c-.12 4.547-1.41 11.146 1 14.936l2.78-5.976c.33 2.323.03 3.891-.27 6.216-1.09 8.484-.09 17.391-.12 25.976-.04 12.632-1.25 25.352-1.07 37.916.23 15.929 2.65 31.802 1.47 47.742-.6 8.12-7.42 30.55-5.28 35.6-.01-.35-.03-.7-.03-1.05 0-.43.04-.85.03-1.27-.09-7.66-.99-15.52-1.55-23.18-1.68 14.33-1.98 28.77-3.49 43.11a319.4 319.4 0 0 1-17.41 73.56c-4.66 12.43-26.78 54.7-37.31 60.29l-.05-1.05.82.22.67-.85-.72-1.56c6.6-16.17 11.68-34.26 20.68-49.23 1.04-2.82 2.54-4.76 1.41-7.64-9.02 4.38-26.27 41.87-38.64 51.74-1.95-3.53-.53-7.94.49-11.59 4.58-16.42 36.66-78.43 31.8-89.72-4.8 3.66-7.92 16.3-11.84 22.22-16.41 24.84-82.98 116.31-104.38 127.76l-2.26-.56c-.74-12.66 6.98-27.39 8.18-40.64-6.82 12.47-14.05 23.39-22.62 34.71-8.79 11.63-82.3 99.24-87.59 101.18-.33.12-.68.15-1.02.23-2.08-1.97-1.88-2.66-2.02-5.43-.48-10.06 2.54-20.62 3.19-30.7-11.25 14.09-19.29 30.49-30.71 44.31.02-6.71-.23-13.52.43-20.2l-2.92 1.66c-1.78-2.04-2.5-3.43-3.06-6.02-.93-4.23-2.2-8.28-3.49-12.4l-2.42-1.11c-4.65-11.26-5.87-24.25-9-36.08-2.82-10.65-6.71-21.46-8.47-32.33-4.42-27.26 6.96-53.49 15.98-78.59 3.83-10.68 8.1-22.44 8.22-33.91l-1.05-.21c-3.72-4.56 2.35-15.03 1.53-20.96-.06-.49-.21-.95-.32-1.43.51-.59 1.13-1.11 1.53-1.78 1.55-2.57 1.65-3.96 3.97-6.37l.78-.8-.64-2.64-3.14.52c-.34-1.23.29-2.39.62-3.61 4-3.2 6.82-5.6 8.12-10.82-1.97 1.83-2.5 2.54-5.19 3.15l-.43-1.17c1.11-3.76 1.96-9.63 4.73-12.4l1.89 1.66 1.09-.13c2.27-11.86 2.97-29.86.96-41.72-2.41-.63-1.14-.22-3.79-1.3-1.52-10.6-13.22-70.292-11.58-75.404.15-.461.42-.873.63-1.31-8.78-21.799-4.08-57.559-9.47-80.65-3.2-13.706-7.28-27.227-10.44-40.872-.76-3.285-.45-4.303 1.2-7.2l-.87-2.424-3.58-1.564c-1.74-4.892-6.06-13.221-5.35-18.191l1.69 1.749.8-1.368-.5-1.815-2.61.19.57-.628-1.57.516c-.93-4.134-.14-4.734 1.6-8.459-.88-2.518-1.31-3.613-3.42-5.374-.63-.526-1.31-.993-1.94-1.521-6.89-5.787-21.43-40.909-22.48-50.84-.05-.479-.09-.96-.13-1.441-.85 1.562-.78 2.097-2.44 2.889-1.9-1.77-2.83-2.597-3.56-5.152-4.49-15.697-25.88-35.888-28.28-49.25-.56-3.134-2.14-3.723-4.55-5.57-5.96-4.572-13.79-14.667-17.19-21.409-1.9-3.778-1.61-8.621-3.89-12.188-2.02-3.171-4.48-4.689-8.05-5.296-2.69-.459-4.62-.726-6.81-2.616-3.69-3.174-6.88-7.581-10.31-11.087a414 414 0 0 0-26.74-25.072c.86-1.077 1.57-2.214 2.32-3.368-5.92-7.278-17.2-8.709-22.96-15.165-.34-.378-.59-.827-.89-1.234-.38-.504-.77-.994-1.15-1.497-.29-.39-.57-.786-.86-1.18-3.04 1.539-3.33 2.055-6.66.999-1.41-.451-2.77-1.108-4.13-1.701l-1.69-.726c-10.31-4.529-20.6-10.269-30.3-15.994-3.93-2.323-8.61-6.287-12.9-7.71-4.23-1.406-11.72 2.155-18.01 1.043-12.54-2.218-24.07-7.013-36.95-8.261-10.97-1.063-22.53-.165-33.54.229-49.56 1.771-100.241 7.905-146.884 25.465-2.245.845-3.182 4.14-4.779 4.721-9.106 3.312-21.955 1.065-31.901 7.438-6.202 3.974-9.822 11.674-16.122 14.959.383-2.169.795-4.258 1.323-6.4l-.827-.685.608 1.902-2.191-.725c-3.729 3.885-6.037 7.781-8.501 12.549l-2.422-3.361-1.559-.071c-.178.817-.345 1.637-.533 2.451-.556 2.409-1.09 3.503-3.003 5.162l-2.341.17-.171-1.817 3.383-2.408c-5.295 1.917-11.119 3.686-15.453 7.407-4.518 3.878-6.945 14.183-11.98 15.99-3.972 1.426-6.313-2.012-9.969 1.715-.485 2.899-.04 4.599-2.525 6.394-.32-.286-.635-.579-.962-.859-1.458-1.251-.855-.807-2.678-1.709-12.05 4.997-23.532 21.208-29.63 32.41l-1.504-2.982c.547-.369 1.115-.709 1.64-1.108 2.206-1.672 2.901-3.009 4.102-5.416l-1.096-.702c-19.239 13.407-40.662 39.007-55.256 57.444-1.554 1.963-1.768 4.734-2.159 7.136l-1.049.872c-4.7 3.985-6.371 6.915-8.196 12.716-.456 1.446-1.003 2.429-1.931 3.62l-1.11-2.521c-3.018 2.903-4.929 5.091-6.677 8.916l.623.571 5.157-5.537c.508 2.644-2.617 6.074-4.14 8.299-1.674 2.445-2.476 4.411-5.474 5.185-2.315-1.89-2.282-2.516-3.139-5.432-27.926 40.651-48.253 83.826-67.202 129.222 2.319 1.872 3.972 3.23 5.581 5.791-1.369 3.599-3.462 5.951-5.932 8.811l.109 1.334 2.552 1.5c.083 5.631-3.516 12.753-5.407 18.096l-1.078-2.896-2.058 3.709-1.233-.307c-.561-3.806-.601-7.333-.497-11.174l-5.425 17.361 3.185.117 1.824 2.203c-.443 2.124-.713 2.779-1.641 4.602-6.948 13.638-1.585 18.215-4.367 29.676-1.68 6.92-6.094 13.609-8.408 20.488-.243.72-.512 1.431-.768 2.146-2.016-4.579-.172-11.335-.809-16.468-2.955 12.929-4.148 26.356-7.785 39.092l-.144 1.08c-2.319 16.53-7.006 32.73-9.542 49.26-6.748 44.01-8.269 92.47-3.438 136.78.966 8.86 8.421 45.88 4.772 50.94-2.913 1.3-4.503 1.27-7.652.92-1.539 2.87-1.049 3.49-4.312 4.51-3.347-1.79-5.788-2.98-9.663-2.99-2.332-.01-3.351.2-5.277-1.33l-.316-3.17c-2.44-.4-2.966-.43-5.284.39 1.318 2.27 1.09 1.07.801 3.55-12.961-1.24-23.798-9.64-35.471-14.7-6.462-2.8-13.546-4.32-20.149-6.94-24.617-9.76-54.228-22.92-73.987-41.09-20.666-18.99-14.998-66.51-16.586-92.26l-3.062-1.19 2.509-3.78 2.951 1.15a4361 4361 0 0 1-2.644-112.696c-.251-18.108 1.932-40.437-2.031-57.991-.153 4.593-.259 9.171-.742 13.744l-1.641 1.512c-2.797-1.696-3.198-2.93-4.825-5.825-.413-3.471.805-5.484 2.313-8.467l-.147-1.332c-.417-4.004-.446-7.503-.064-11.507-2.821 2.326-3.332 3.516-3.496 7.239-.065 1.472.067 2.945.084 4.418.053 4.775-.814 7.085-3.057 11.178-2.101 3.834-4.741 7.825-5.788 12.05 2.701 1.014 2.707.798 5.348.408-.11 2.964-1.552 4.441-3.081 6.911l-.715.211-1.043-1.866q.621 4.395 1.094 8.808c.895 8.227-3.488 18.018-4.843 26.244-1.464 8.884-.443 33.781-4.558 39.711-.816 1.17-1.52 1.56-2.598 2.33l-1.15-.87.316-3.04c.522-.35 1.052-.68 1.565-1.03 2.102-1.46 1.394-.75 2.627-2.81l-.974-3.13c-2.457.28-2.758.42-4.697 1.96.116.81.244 1.61.348 2.42 1.056 8.19.914 21.01-.203 29.06l-1.283.6c-1.871-14.47 1.697-29.38-.191-43.8-4.716 23.06-2.417 49.26-4.678 72.87-12.611-80.824-11.896-152.602.996-233.153 4.222-26.381 13.023-51.051 19.471-76.851 3.445-13.783 5.122-27.977 7.991-41.885 4.082-19.788 10.023-40.806 17.05-59.755 6.488-17.494 17.783-33.961 27.265-49.982 36.699-62.005 74.392-118.001 129.405-165.586 10.183-8.808 21.366-16.531 31.946-24.857 19.69-15.497 39.196-31.405 59.653-45.898 8.099-5.738 17.313-9.472 25.254-15.326.308-.227.611-.461.916-.692"/><path fill="#1d191b" d="M946.2 285.226c42.01-4.498 85.46-6.56 125.24 10.251 22.86 5.854 39.75 13.471 59.47 26.299l.8 3.033c-3.04 1.539-3.33 2.055-6.66.999-1.41-.451-2.77-1.108-4.13-1.701l-1.69-.726c-10.31-4.529-20.6-10.269-30.3-15.994-3.93-2.323-8.61-6.287-12.9-7.71-4.23-1.406-11.72 2.155-18.01 1.043-12.54-2.218-24.07-7.013-36.95-8.261-10.97-1.063-22.53-.165-33.54.229-49.56 1.771-100.241 7.905-146.884 25.465-2.245.845-3.182 4.14-4.779 4.721-9.106 3.312-21.955 1.065-31.901 7.438-6.202 3.974-9.822 11.674-16.122 14.959.383-2.169.795-4.258 1.323-6.4l-.827-.685.608 1.902-2.191-.725c-3.729 3.885-6.037 7.781-8.501 12.549l-2.422-3.361-1.559-.071c-.178.817-.345 1.637-.533 2.451-.556 2.409-1.09 3.503-3.003 5.162l-2.341.17-.171-1.817 3.383-2.408c-5.295 1.917-11.119 3.686-15.453 7.407-4.518 3.878-6.945 14.183-11.98 15.99-3.972 1.426-6.313-2.012-9.969 1.715-.485 2.899-.04 4.599-2.525 6.394-.32-.286-.635-.579-.962-.859-1.458-1.251-.855-.807-2.678-1.709-12.05 4.997-23.532 21.208-29.63 32.41l-1.504-2.982c.547-.369 1.115-.709 1.64-1.108 2.206-1.672 2.901-3.009 4.102-5.416l-1.096-.702c-19.239 13.407-40.662 39.007-55.256 57.444-1.554 1.963-1.768 4.734-2.159 7.136l-1.049.872c-4.7 3.985-6.371 6.915-8.196 12.716-.456 1.446-1.003 2.429-1.931 3.62l-1.11-2.521c-3.018 2.903-4.929 5.091-6.677 8.916l.623.571 5.157-5.537c.508 2.644-2.617 6.074-4.14 8.299-1.674 2.445-2.476 4.411-5.474 5.185-2.315-1.89-2.282-2.516-3.139-5.432 10.811-16.66 22.514-33.396 34.903-48.915 43.139-54.037 132.785-117.393 197.715-140.365 29.62-10.479 64.118-16.431 95.378-19.941"/><path fill="#1d191b" d="M1130.91 321.776c84.72 52.858 144.46 150.259 175.53 243.57 4.3 12.909 9.12 25.948 12.17 39.212 7.78 33.899 7.79 69.935 12.04 104.441 3.95 32.131 14.18 62.991 11.85 95.741-1.81 25.34-11.4 49.73-18.64 73.88l-1.05-.21c-3.72-4.56 2.35-15.03 1.53-20.96-.06-.49-.21-.95-.32-1.43.51-.59 1.13-1.11 1.53-1.78 1.55-2.57 1.65-3.96 3.97-6.37l.78-.8-.64-2.64-3.14.52c-.34-1.23.29-2.39.62-3.61 4-3.2 6.82-5.6 8.12-10.82-1.97 1.83-2.5 2.54-5.19 3.15l-.43-1.17c1.11-3.76 1.96-9.63 4.73-12.4l1.89 1.66 1.09-.13c2.27-11.86 2.97-29.86.96-41.72-2.41-.63-1.14-.22-3.79-1.3-1.52-10.6-13.22-70.292-11.58-75.404.15-.461.42-.873.63-1.31-8.78-21.799-4.08-57.559-9.47-80.65-3.2-13.706-7.28-27.227-10.44-40.872-.76-3.285-.45-4.303 1.2-7.2l-.87-2.424-3.58-1.564c-1.74-4.892-6.06-13.221-5.35-18.191l1.69 1.749.8-1.368-.5-1.815-2.61.19.57-.628-1.57.516c-.93-4.134-.14-4.734 1.6-8.459-.88-2.518-1.31-3.613-3.42-5.374-.63-.526-1.31-.993-1.94-1.521-6.89-5.787-21.43-40.909-22.48-50.84-.05-.479-.09-.96-.13-1.441-.85 1.562-.78 2.097-2.44 2.889-1.9-1.77-2.83-2.597-3.56-5.152-4.49-15.697-25.88-35.888-28.28-49.25-.56-3.134-2.14-3.723-4.55-5.57-5.96-4.572-13.79-14.667-17.19-21.409-1.9-3.778-1.61-8.621-3.89-12.188-2.02-3.171-4.48-4.689-8.05-5.296-2.69-.459-4.62-.726-6.81-2.616-3.69-3.174-6.88-7.581-10.31-11.087a414 414 0 0 0-26.74-25.072c.86-1.077 1.57-2.214 2.32-3.368-5.92-7.278-17.2-8.709-22.96-15.165-.34-.378-.59-.827-.89-1.234-.38-.504-.77-.994-1.15-1.497-.29-.39-.57-.786-.86-1.18zM614.188 102.205l-2.573-2.623c10.488-9.957 81.927-44.094 98.407-46.819 9.939-1.643 15.933-9.729 25.528-10.997 12.507-1.653 14.77 5.684 30.18-.051-.572-.567-1.038-1.267-1.717-1.701-.663-.426-1.478-.547-2.217-.82 94.248-21.843 182.024-20.322 277.104-4.377 8.46 1.419 16.66 3.856 25.07 5.406 15.79 2.909 35.85 1.572 50.41 8.712l-1.13 1.877 1.91.981c2.16-.512 5.27-1.627 7.49-1.174 10.44 2.125 18.58 7.844 29.94 9.16 1.84.213 3.02.416 4.86.971 10.18 3.075 22 3.54 31.67 7.802 1.77.783 3.2 1.339 5.14 1.637.63.097 1.27.173 1.9.26l-3.29 2.946c-11.87-3.131-24.18-5.975-36.31-7.873-39.22-11.398-77.63-16.379-117.8-22.729-32.52-5.14-67.7-12.136-100.69-11.672-53.385-6.32-118.725 5.033-171.665 14.021-17.68 3.002-36.12 5.312-53.181 10.934-16.704 5.504-34.812 11.847-50.645 19.514-16.472 7.978-32.252 17.924-48.391 26.615M1518.11 330.179l.64-3.377 1.57-.199c.24.584.44 1.19.73 1.752 4.1 7.979 9.73 16.105 14.67 23.654l.98-.97-1.26-4.348 1.04-.508c8.41 7.812 5.49 21.186 12.28 28.329l.87-3.405c2.08 1.827 1.96 1.276 2.65 4.241 2.97 12.811 18.05 27.8 14.51 40.847 2.27 1.371 4.26-.856 4.67 1.643.5 3.094-.57 6.169-1.33 9.149 1.61 3.552 3.94 3.791 7.47 5.323-.09 5.544-1.02 12.358 1.37 17.443 1.73-.624.96-.065 2.07-1.952 4.23 4.316 7.03 16.365 9.32 22.221 4.59 11.788 10.76 23.241 14.73 35.225 9.13 27.589 22.64 100.566 22.25 129.477a83 83 0 0 1-.41 7.208l-1.33-2.672-1.15 1.07c-.12 4.547-1.41 11.146 1 14.936l2.78-5.976c.33 2.323.03 3.891-.27 6.216-1.09 8.484-.09 17.391-.12 25.976-.04 12.632-1.25 25.352-1.07 37.916.23 15.929 2.65 31.802 1.47 47.742-.6 8.12-7.42 30.55-5.28 35.6-.01-.35-.03-.7-.03-1.05 0-.43.04-.85.03-1.27-.09-7.66-.99-15.52-1.55-23.18-.64-13.15.77-27.1 1.09-40.329.53-21.986.28-43.984-.76-65.951-2.06-44.06-7.99-85.831-17.3-128.908-2.71-12.539-4.95-25.484-8.91-37.689-4.51-13.911-11.62-26.935-16.54-40.717-3.73-10.468-6.56-21.257-10.51-31.653a628 628 0 0 0-50.37-101.814M502.841 986.73c-1.539 2.87-1.049 3.49-4.312 4.51-3.347-1.79-5.788-2.98-9.663-2.99-2.332-.01-3.351.2-5.277-1.33l-.316-3.17c-2.44-.4-2.966-.43-5.284.39 1.318 2.27 1.09 1.07.801 3.55-12.961-1.24-23.798-9.64-35.471-14.7-6.462-2.8-13.546-4.32-20.149-6.94-24.617-9.76-54.228-22.92-73.987-41.09-20.666-18.99-14.998-66.51-16.586-92.26l-3.062-1.19 2.509-3.78 2.951 1.15c.436 4.21.71 8.52 1.415 12.69 1.465 33.36-2.514 57.93 24.146 82.28 15.337 14.01 32.775 18.15 50.798 27.09 12.199 9.17 26.862 13.31 41.415 17.06 16.533 6.92 32.82 13.76 50.072 18.73"/><path fill="#fcb756" d="M938.07 31.121c32.99-.464 68.17 6.532 100.69 11.672 40.17 6.35 78.58 11.331 117.8 22.73-1.97 1.436-2.54 1.923-5.02 1.793-7.15-.376-15.18-2.748-22.3-3.993-19.45-3.396-39.07-7.327-58.72-9.247l-.83-1.132c3.35-.036 6.97.395 9.95-1.345-5.65-.859-12.94 1.947-18.18.647-5.32-1.318-5.35-5.265-11.87-4.106-13.59 2.416-61.3-8.238-78.18-10.449-16.47-2.158-33.39-1.714-49.95-3.56l2.9-1.731-3.62 1.072c4.41-2.593 12.29-2.005 17.33-2.35"/><path fill="#1d191b" d="M298.919 743.32c-1.877-28.917 17.361-90.871 28.371-119.748 1.508 11.441 2.094 23.116 3.03 34.621-.153 4.593-.259 9.171-.742 13.744l-1.641 1.512c-2.797-1.696-3.198-2.93-4.825-5.825-.413-3.471.805-5.484 2.313-8.467l-.147-1.332c-.417-4.004-.446-7.503-.064-11.507-2.821 2.326-3.332 3.516-3.496 7.239-.065 1.472.067 2.945.084 4.418.053 4.775-.814 7.085-3.057 11.178-2.101 3.834-4.741 7.825-5.788 12.05 2.701 1.014 2.707.798 5.348.408-.11 2.964-1.552 4.441-3.081 6.911l-.715.211-1.043-1.866q.621 4.395 1.094 8.808c.895 8.227-3.488 18.018-4.843 26.244-1.464 8.884-.443 33.781-4.558 39.711-.816 1.17-1.52 1.56-2.598 2.33l-1.15-.87.316-3.04c.522-.35 1.052-.68 1.565-1.03 2.102-1.46 1.394-.75 2.627-2.81l-.974-3.13c-2.457.28-2.758.42-4.697 1.96.116.81.244 1.61.348 2.42 1.056 8.19.914 21.01-.203 29.06l-1.283.6c-1.871-14.47 1.697-29.38-.191-43.8M537.614 665.894l3.185.117 1.824 2.203c-.443 2.124-.713 2.779-1.641 4.602-6.948 13.638-1.585 18.215-4.367 29.676-1.68 6.92-6.094 13.609-8.408 20.488-.243.72-.512 1.431-.768 2.146-2.016-4.579-.172-11.335-.809-16.468 1.776-14.412 6.86-28.871 10.984-42.764M1319.55 1060.64c4.5-9.38 8.99-18.61 14.87-27.23-1.66 14.68-3.46 29.35-5.4 43.99l-2.92 1.66c-1.78-2.04-2.5-3.43-3.06-6.02-.93-4.23-2.2-8.28-3.49-12.4M551.002 623.669c2.319 1.872 3.972 3.23 5.581 5.791-1.369 3.599-3.462 5.951-5.932 8.811l.109 1.334 2.552 1.5c.083 5.631-3.516 12.753-5.407 18.096l-1.078-2.896-2.058 3.709-1.233-.307c-.561-3.806-.601-7.333-.497-11.174 1.83-8.644 4.827-16.623 7.963-24.864M1374.11 654.794l7.4.291c8.72 5.807-1.21 18.035 6.04 23.744 7.51 5.915 19.24-1.057 27.03 7.793 1.27 5.335-.09 11.908-3.22 16.489-2.04 2.976-6.81 3.489-10.12 4.267-7.51.332-15.78.104-22.58-3.464-10.52-5.521-14.41-15.604-17.5-26.371 2.11-10.053 4.61-16.377 12.95-22.749"/><path fill="#282220" d="M1401.74 686.923c2.07-.083 3.95-.089 6.02.155 2.47.291 1.44-.156 3.17 2.061-.62 3.513-2.88 5.485-5.19 8.005-2.14.394-3.87.304-6.03.205-2.17-2.207-2.31-2.406-2.82-5.451 1.5-3.496 1.38-3.416 4.85-4.975"/><path fill="#1d191b" d="M432.934 711.733c2.302 1.086 3.687 1.86 5.452 3.761 5.033 5.421 7.158 13.84 6.067 21.037a32 32 0 0 1-13.513 21.519c-7.044 4.94-12.506 5.72-20.775 4.18-5.397-3.74-11.607-8.27-13.698-14.76 3.077-10.09 19.469-4.57 26.16-10.562 3.568-3.194 5.116-18.152 10.307-25.175M1315.21 315.437c5.81-.313 13.71 1.845 18.15 5.814 1.5 1.333 1.05 2.413 1.15 4.261-2.23 2.699-5.91 3.091-9.15 3.942-5.93 8.689-6.49 20.843-13.06 28.547-3.25 1.468-4.45 2.183-8.11 1.414-4.41-.927-8.44-5.559-10.21-9.471-2.3-5.098-2.3-10.948-.31-16.145 3.95-10.318 12.06-14.342 21.54-18.362"/><path fill="#282220" d="M1315.21 315.437c5.81-.313 13.71 1.845 18.15 5.814 1.5 1.333 1.05 2.413 1.15 4.261-2.23 2.699-5.91 3.091-9.15 3.942-4.17-.604-6.62-10.613-10.15-14.017"/><path fill="#1d191b" d="m1016.66 97.071 4.87.459c3.11 2.29 3.26 4.712 4.43 8.144 5.25 15.38 29.88.718 40.14 5.865l.54 2.711c-1.58 4.596-4.35 7.681-7.42 11.38-4.15 2.964-7.98 5.259-13.15 5.862-9.25 1.082-19.57-3.252-26.51-9.172-4.48-3.826-7.71-8.92-7.99-14.918-.23-4.917 1.92-7.045 5.09-10.331"/><path fill="#282220" d="M474.677 449.343c5.643 6.058 3.405 16.605 8.672 23.726 13.239 7.327 22.14-10.544 34.24-12.517 1.935-.315 2.286.468 3.745 1.499 1.945 5.136.587 10.335-.16 15.632-2.45 3.485-4.616 5.136-8.53 6.781-9.676 4.068-19.771 6.205-29.82 1.952-5.552-2.349-9.806-6.661-11.953-12.3-3.493-9.175-.086-16.533 3.806-24.773"/><path fill="#1d191b" d="M690.769 236.179c6.061-7.316 14.296-11.499 23.792-12.369 5.706-.523 13.335-.401 18.13 3.239 4.243 3.22 4.97 10.489 5.008 15.464.023 3.021-.225 5.21-1.861 7.83-1.89.576-1.785 1.018-3.311.158-6.679-3.763-8.147-15.835-18.484-15.259-5.045.282-9.53 6.286-12.049 10.071-1.489 2.239-2.317 4.847-3.22 7.354-.469 2.939-.58 2.602-2.428 4.609-1.776.069-2.744.432-4.341-.561-2.647-1.647-4.546-4.829-5.069-7.907-.811-4.765 1.392-8.758 3.833-12.629"/><path fill="#282220" d="M690.769 236.179c2.803-.809 5.558-1.704 8.466-2.043-.152.575-.312 1.147-.456 1.723-1.525 6.087-1.075 8.87-.18 14.801.101.664.116 1.338.175 2.007-.469 2.939-.58 2.602-2.428 4.609-1.776.069-2.744.432-4.341-.561-2.647-1.647-4.546-4.829-5.069-7.907-.811-4.765 1.392-8.758 3.833-12.629"/><path fill="#1d191b" d="M1453.97 475.032c4.46-.577 10.04-1.238 14.2.734 1.87.884 1.76 1.804 2.47 3.572-3.13 5.409-10.55 5.101-13.12 10.677.59 7.243 5.57 8.431 8.33 14.189 1.86 3.863.73 5.889-.3 9.69-2.7.455-4.95.677-7.67.241-5.69-.909-11.14-3.525-14.38-8.446-3.13-4.752-3.77-10.802-2.27-16.236 1.98-7.181 6.5-10.879 12.74-14.421"/><path fill="#282220" d="M883.871 146.725c4.632 2.081 7.093 4.292 9.246 8.974 2.793 6.081 2.783 12.679.265 18.844-2.299 5.633-5.329 7.592-10.745 10.015-4.881-.239-8.073-.228-11.506-4.011-.315-5.686 5.868-11.558 7.836-16.932 2.241-6.123.914-11.068 4.904-16.89"/><path fill="#1d191b" d="M480.644 252.144c4.415.141 8.892.261 12.236 3.599 1.942 1.939 2.728 4.549 2.67 7.246-.198 9.189-7.187 16.074-13.149 22.191-3.062 1.653-4.09 2.802-7.6 2.282-2.209-4.066-.665-10.131.358-14.413 1.697-7.104 1.948-14.413 5.485-20.905"/><path fill="#f1af4e" d="m1631.72 377.723-2.49-2.926.3-1.857c17.04-1.623 47.15-.301 63.88 3.305 7.68.809 15.27 1.929 22.89 3.15l2.3-2.689c3.42.084 6.48.385 9.85 1.01 7.64 1.412 73.57 13.361 73.81 13.32 1.94-.338 4.81-3.262 6.65-3.302 2.96-.063 26.84 10.747 31.2 12.586-3.86.924-6.82.522-10.67-.023 1.02 2.01 1.37 2.23 3.15 3.446l-.78.399-2.77-1.645-1.26 1.828-2.9-.548c28.21 10.407 56.91 20.471 83.68 34.322 33.32 17.245 73.6 43.699 103.45 66.947 51.8 40.327 121.32 107.42 161.37 158.969 23.65 30.432 42.75 63.406 64.69 94.905l9.25 17.44c12.77 29.43 29.08 56.23 39.12 86.95l.35-7.02 1.71-1.52c4.97 3.44 5.79 11.25 6.85 16.98 1.17 6.33 3.3 15 .54 20.64 7.49 30.84 10.44 62.49 14.24 93.95 7.63 63.13 13.16 142.49 1.46 205.17-5.62 30.11-15.14 58.49-23.15 87.91-3.12 11.44-5.17 23.2-8.67 34.53-4.16 13.5-9.76 26.69-14.7 39.92-9.46 25.31-18.76 50.08-30.75 74.38-11.63 23.55-26.18 46.38-39.85 68.81a611.8 611.8 0 0 1-113.21 138.09c-13.61 12.26-28.95 22.42-42.6 34.56-12.27 10.92-24.07 26.56-38.53 34.43l-1.3-2.47c-6.74-2.69-9.4-3.17-15.97-.61 10.16-14.1 36.7-34.39 41.33-49.83l-1.31-.84c-7.48 2.96-13.84 8.6-20.53 12.98-23.18 15.19-43.26 30.59-69.77 39.56 12.06-12.52 23.04-26.56 34.36-39.78-41.71 8.95-61.33 36.18-110.38 36.54-7.62.06-16.06-4.06-22.59-7.75-8.37-4.73-15.91-11.25-23.73-16.86a2366 2366 0 0 1-55.58-40.49c-25.79-19-53.37-35.79-76.89-57.7 20.42-9.44 42.19-16.05 62.77-25.24 72.5-32.37 95.33-69.12 142.93-128.06 20.17-24.98 43.44-48.48 58.34-77.2 7.32-12.31 14.83-24.27 21.01-37.22l6.4-19.11c-2.06-1.17-2.2-.95-3.38-3.19.04-5.84 4.74-11.85 7.74-16.76-2.7-13.29 3.17-26.12 5.91-39.21l2.22 2.07c2.14-18.19 5.09-36.28 8.86-54.2 1.36-6.28 3.71-12.32 4.97-18.58 1.05-5.19 4.5-26.37 3.39-30.66-1.09-4.24-4.12-7.31-4.44-11.98l2.63 2.15c.8-2.13 1.33-4.09 1.74-6.33-2.29-1.92-3.78-2.98-4.88-5.85l1.21-1.58c1.31 1.7 1.6 2.96 3.77 3.42 1.12-12.46-3.99-22.06-4.69-33.86l2.16.43 1.56-1.14c.58-12-4.49-20.42-5.65-31.25-.82-7.68.65-16.06.34-23.93l-3.53 11.09-1.33.51c.02-1.42 0-2.87.09-4.3.19-3.15.45-6.02.06-9.2-.96-7.62-3.33-14.85-4.69-22.38-1.53-8.45-1.43-17.53-1.95-26.11-.16-2.64-.28-4.96-1.16-7.5-2.95-8.54-9.24-31.21-7.66-39.57l3.2-2.16c-5.51-23.62-44.99-108.71-62.13-125.4l-1.19.61c-2.13-.32-5.11-.54-6.97-1.77-8.19-5.37-17.32-24.87-31.78-34.61-.47-.33-.98-.6-1.42-.97-.53-2.79-.58-1.66-.03-4.49.13-.67.29-1.34.44-2-8.44-5.65-22.03-14.981-28.24-22.919-2.39-3.047-1.84-4.81-1.18-8.403l-1.8-4.666 1.21-2.057c2.4-.422 4.23-.61 6.38-1.789-6.81-9.829-19.38-16.064-27.08-25.663l.5-1.227c25.38 9.811 47.38 25.51 72.52 36.061-26.07-17.685-46.16-42.286-71.7-60.173 15.43 1.522 30.63 3.72 45.93 6.22-9.97-10.138-27.85-20.882-34.26-33.195l1.26-1.153c8.23.868 17.4 6.261 25.44 8.812 24.12 7.65 48.44 13.231 72.41 21.831-9.75-9.868-21.93-15.324-33.52-22.54-20.84-12.965-41.15-26.653-61.8-39.874-16.34-10.462-38.39-20.372-51.45-34.85 9.09 3.417 18.37 8.022 27.93 9.776.27-.448.46-.968.83-1.343 6.16-6.252 22.83 10.722 29.72 10.114-15.57-13.322-29.55-28.22-44.74-41.98-8.38-7.589-17.83-13.855-26.2-21.389l3.42-.216.61-1.431c-8.91-8.979-17.03-20.092-26.38-28.287-11.79-10.33-24.7-17.078-35.84-28.718l-.36-2.378-1.01.015.26.911.5-.981c2.68 1.155 3.86 1.916 6.8 1.868-3.25-.928-4.3-2.74-6.58-5.12l-1.33 2.288c-3.32-.971-9.68-14.898-14.33-18.674 1.53 2.683 2.34 3.479 2.4 6.619-7.58-3.682-26.41-24.488-34.19-31.409l.95-3.471c-2.24-2.4-4.16-4.072-6.96-5.874l-.71 2.121c-2.86-.08-4.85-2.138-7.19-3.72l2.85-.67c-.48-3.049-3.08-4.899-5.14-7.148l-1.75.073c.79 1.98.6.854.22 3.419l-2.46-.013c-3.84-2.77-11.04-7.926-12.21-12.496l1.49-1.399-.46 1.127.95-.473c-2.24-1.944-3.97-3.429-6.79-4.453-.71-.257-1.43-.494-2.14-.741l-.62-2.055z"/><path fill="#1d191b" d="M1969.22 1290.06c-2.06-1.17-2.2-.95-3.38-3.19.04-5.84 4.74-11.85 7.74-16.76-2.7-13.29 3.17-26.12 5.91-39.21l2.22 2.07c2.14-18.19 5.09-36.28 8.86-54.2 1.36-6.28 3.71-12.32 4.97-18.58 1.05-5.19 4.5-26.37 3.39-30.66-1.09-4.24-4.12-7.31-4.44-11.98l2.63 2.15c.8-2.13 1.33-4.09 1.74-6.33-2.29-1.92-3.78-2.98-4.88-5.85l1.21-1.58c1.31 1.7 1.6 2.96 3.77 3.42 1.12-12.46-3.99-22.06-4.69-33.86l2.16.43 1.56-1.14c.58-12-4.49-20.42-5.65-31.25-.82-7.68.65-16.06.34-23.93l-3.53 11.09-1.33.51c.02-1.42 0-2.87.09-4.3.19-3.15.45-6.02.06-9.2-.96-7.62-3.33-14.85-4.69-22.38-1.53-8.45-1.43-17.53-1.95-26.11-.16-2.64-.28-4.96-1.16-7.5-2.95-8.54-9.24-31.21-7.66-39.57l3.2-2.16c7.17 19.63 9.67 41.82 13.29 62.36 16.16 91.66 19.96 153.62-1.08 245.09-4.82 20.94-8.93 41.87-18.13 61.45zM1631.72 377.723c34.77 22.816 65.3 53.761 94.7 82.964 45.17 44.864 90.66 93.983 137.18 136.927-16.52-6.49-32.42-14.419-48.42-22.063.27-.448.46-.968.83-1.343 6.16-6.252 22.83 10.722 29.72 10.114-15.57-13.322-29.55-28.22-44.74-41.98-8.38-7.589-17.83-13.855-26.2-21.389l3.42-.216.61-1.431c-8.91-8.979-17.03-20.092-26.38-28.287-11.79-10.33-24.7-17.078-35.84-28.718l-.36-2.378-1.01.015.26.911.5-.981c2.68 1.155 3.86 1.916 6.8 1.868-3.25-.928-4.3-2.74-6.58-5.12l-1.33 2.288c-3.32-.971-9.68-14.898-14.33-18.674 1.53 2.683 2.34 3.479 2.4 6.619-7.58-3.682-26.41-24.488-34.19-31.409l.95-3.471c-2.24-2.4-4.16-4.072-6.96-5.874l-.71 2.121c-2.86-.08-4.85-2.138-7.19-3.72l2.85-.67c-.48-3.049-3.08-4.899-5.14-7.148l-1.75.073c.79 1.98.6.854.22 3.419l-2.46-.013c-3.84-2.77-11.04-7.926-12.21-12.496l1.49-1.399-.46 1.127.95-.473c-2.24-1.944-3.97-3.429-6.79-4.453-.71-.257-1.43-.494-2.14-.741l-.62-2.055zM1716.3 379.395l2.3-2.689c3.42.084 6.48.385 9.85 1.01 7.64 1.412 73.57 13.361 73.81 13.32 1.94-.338 4.81-3.262 6.65-3.302 2.96-.063 26.84 10.747 31.2 12.586-3.86.924-6.82.522-10.67-.023 1.02 2.01 1.37 2.23 3.15 3.446l-.78.399-2.77-1.645-1.26 1.828-2.9-.548c-20.7-11.005-45.44-14.074-68.36-17.133a2593 2593 0 0 1-40.22-7.249M1843.21 720.038c23.76 24.352 52.35 45.002 70.37 74.552l-1.19.61c-2.13-.32-5.11-.54-6.97-1.77-8.19-5.37-17.32-24.87-31.78-34.61-.47-.33-.98-.6-1.42-.97-.53-2.79-.58-1.66-.03-4.49.13-.67.29-1.34.44-2-8.44-5.65-22.03-14.981-28.24-22.919-2.39-3.047-1.84-4.81-1.18-8.403"/><path fill="#fcb756" d="M1693.41 376.245c7.68.809 15.27 1.929 22.89 3.15 13.39 2.522 26.79 4.938 40.22 7.249a19.8 19.8 0 0 1-6.02 2.926c-11.43 3.323-13.81-3.435-23.31-4.934-17.27-2.723-39.2 1.362-55.32-6.944 5.72-2.141 15.28-1.126 21.54-1.447"/><path fill="#1d191b" d="m2286.44 863.31.35-7.02 1.71-1.52c4.97 3.44 5.79 11.25 6.85 16.98 1.17 6.33 3.3 15 .54 20.64-3.93-9.19-6.42-19.53-9.45-29.08M2262.13 1198.42c3.45 2.22 6.31 5.2 7.62 9.2 1.05 3.24.49 5.83-1 8.83-3.04 6.12-11.15 10.69-17.4 12.68-10.84 3.44-20.88 1.49-30.86-3.47-2.96-2.86-5.03-5.59-7.09-9.18-2.18-3.79-2.12-3.53-1.01-7.74 11.35-4.55 25.44 6.16 36.75 3.5 5.13-1.21 10.06-9.76 12.99-13.82M2081.52 1224.66c6.08-.33 10.61 1.01 15.97 3.93 7.89 4.3 12.83 11.19 15 19.89 3.21 12.9-1.34 23.82-7.68 34.75-2.06 1.84-1.45 1.95-4.49 1.93-6.95-7.33-.53-25.41-4.75-34.67-3.73-8.2-14.66-8.96-18.06-16.48.04-4.07 1.78-6.17 4.01-9.35M1811.52 1571.69c5.13 1.41 6.02 4.03 8.68 8.24 15.87 25.1 28 13.79 42.61 22.64-2.53 2.63-5.05 2.77-8.48 3.76-13.17 3.57-27.31 5.06-39.68-2.27-4.22-2.49-7.43-6.1-8.48-10.96-1.4-6.52 1.85-15.94 5.35-21.41M2158.97 749.6c2.67.35 4.77.52 7.05 2.13 3.99 2.8 6.44 7.4 7.3 12.12 1.21 6.63-1.19 14.43-5.32 19.66-4.13 5.24-8.81 6.29-15.15 7.22-4.85-.99-8.18-2.5-11.65-6.03-.87-2.81-1.25-3.89.24-6.72 1.9-3.61 7.65-5.05 11.23-6.39-.43-4.17-1.03-8.73-.4-12.89.66-4.33 3.46-6.51 6.7-9.1M2137.49 999.28c6.15 3.08 4.64 12.09 8.92 17.11 1.99 2.32 3.52 3.07 6.49 3.5 3.9.56 6.24-1.35 9.18-3.56 1.53-1.15 2.95-2.36 4.67-3.23 2.32-1.16 2.26-1.25 4.82-.34 2.11 5.47-.43 11.86-2.41 17.06-3.7 2.28-7.94 4.34-12.27 4.98-7.4 1.09-16.1-.6-22.02-5.35-3.92-3.14-6.29-7.57-6.6-12.61-.44-7.17 4.97-12.47 9.22-17.56M1977.29 1466.79l3.59.54c4.08 3.38 9.86 8.24 15.14 9.19 6.94 1.25 15.49-5.52 20.91-9.3l-4.91 14.74c-.87 2.26-1.6 5.66-3.48 7.24-3.01 2.53-6.76 2.77-10.54 2.57-5.23-.29-10.43-.22-15.67-.17-2.71-7.99-5.34-16.3-5.04-24.81M1938.77 529.366c-2.6-5.423-1.88-13.171-2.45-19.196-5.43-5.864-16.43 3.218-23.67.483.12-2.524.21-2.871 1.47-4.927 2.88-4.703 7.67-8.773 13.22-9.79 6.02-1.101 10.09 1.433 14.85 4.663 4.65 5.349 8.34 10.687 7.65 18.137-.3 3.335-1.95 6.614-4.67 8.629-1.8 1.333-4.23 1.721-6.4 2.001"/><path fill="#282220" d="M1942.19 500.599c4.65 5.349 8.34 10.687 7.65 18.137-.3 3.335-1.95 6.614-4.67 8.629-1.8 1.333-4.23 1.721-6.4 2.001 1.33-8.537-2.03-27.664-1.82-28.211z"/><path fill="#1d191b" d="M1965.49 755.81c6.59 2.84 8.49 12.39 11.04 18.61 5.56 3.13 15.12 4.23 19.22 8.43-.49 3.58-2.33 4.62-4.79 7.19-5.61 1.8-10.56 2.64-16.23.51-5.24-1.97-9.15-6-11.16-11.19-3.01-7.75-1.49-16.22 1.92-23.55M2145.01 1404.82c2.41 2.84-.62 35.85-1.09 41.96-3.38 1.62-6.92.17-10.39-.64-3.2-3.18-4.9-5.92-5.4-10.51-1.26-11.71 10.01-22.63 16.88-30.81"/><path fill="#f1af4e" d="M1170.5 465.904c4.16-3.923 8.46-7.191 13.15-10.444 7.29 8.356 13.47 16.476 17.59 26.889 9.81 17.753 6.98 42.003 1.58 60.789-12.31 42.729-41.19 75.877-63.97 112.907-14.5 23.576-31.11 56.579-40.45 82.638-4.79 13.387-7.86 27.487-12 41.097-5.52 18.13-11.57 36.25-13.76 55.16-2.84 24.63-1.36 51.4 5.19 75.32 7.06-24.92 11.03-50.82 19.19-75.42 4.84-14.6 12.97-27.95 18.39-42.34 2.43-6.48 5.43-21.38 10.23-25.93 2.49 2.1 2 2.93 2.28 6.12.06.68.07 1.37.11 2.06l2.5.44c1.83 8.01-2.89 15.31-.43 23.23 1.69 5.41 4.23 11.63 2.03 17.23l-1.95-.57-2.37-6.56c-.16 10.47 1.3 23.33-.08 33.47-.61 4.45-3.37 8.47-3.18 12.97 1.66-.74.66-.16 2.68-2.18 3.91 4.75 1.33 38.52.35 46.2-.2 1.53-.77 2.85-1.36 4.26l-1.59.8-1.97-1.61c.29 6.99 4.39 14.08 3.82 20.65l-2.55 1.39c-.34 8.14 1.32 30.12 4.17 37.36l1.82-2.74c-.3-.57-.66-1.11-.9-1.71-.8-2.07-.54-1.29.05-2.93 3.05-8.39 1.15-26.89 6.97-33.04.4 3.94.43 7.75.37 11.7 1.87-7.07 2.48-14.46 4.39-21.56 4.05-15 10.52-29.35 15.46-44.06 4.36-12.96 7.28-26.33 11.8-39.21 3.74-15.7 11.76-31.73 18.09-46.65-2.88 20.38-5.98 40.72-9.32 61.03-6.54 51.28-7.29 86.33 2.41 137.47 2.59 13.68 4.84 27.53 9.41 40.72 7.12 20.57 17.96 42.77 27.7 62.25-1.43-27.81-9.88-129.97-3.92-150.02 4.05 9.38 6.5 19 9 28.86.24-2.99-.23-7.02 1.76-9.27 2.97 2.87 6.72 5.89 6.48 10.41-.18 3.28-1.96 6.91-3.14 9.97l1.43 3.79.74.21c-.04-.45-.18-.91-.11-1.36.05-.4.84-2.24 1.02-2.66l1.61-.65c2.75 10.56 9.67 42.24 9.4 51.77-2.7-.44-1.34-.04-4.05-1.31 1.86 5.94 4.76 11.5 7.43 17.11l1.06-.15 1.62-4.67c4.05 2.28 9.75 20.37 11.63 25.11 10.36 26.02 22.05 51.29 32.78 77.12 2.93 7.05 7.24 13.86 9.39 21.16 1.6 5.46 2.53 11.47 5.13 16.56 8.84 17.34 32.05 44.03 34.38 62.73.29 2.29.7 5.02 1.24 7.25.98 3.98 4.95 5.23 5.27 9.79l-1.92 2.62c3.95 11.04 13.41 20.76 20.02 30.32 59.34 85.91 128.98 156.89 204.13 228.71 19.62 18.75 38.59 39.45 59.37 56.84 26.59 22.26 57.15 41.04 85.87 60.45l-.49-4.07c2.98-.38 4.39.12 6.77 2.07.5.41 1.83 1.84 2.25 2.25 10.72 10.67 27.28 19.1 39.9 27.65 14.65 9.92 28.18 20.71 43.6 29.47 3.73 2.12.47 3.87 4.11 5.12l1.16-3.09c2.64.43 2.19.54 3.78 2.43 1.05 5.9 6.1 8.03 10.81 11.32 5.56 3.87 11.23 8.16 17.15 11.45 5.6 3.12 10.83 3.71 15.74 8.22 2.37 2.18 11.38 8.98 11.56 11.7l-4.82-2.11-1.01.95c12.04 12 30.13 22.86 44.8 31.55l-.19 1.1-6.53.09c25.96 16.76 51.19 34.63 77.35 51.05 35.74 22.41 96.74 44.05 106.43 90.69 2.28 10.95-.2 20.16-3.15 30.59-15.13-2.14-28.54-7.63-43.2-11.48-14.57-3.83-29.6-5.81-44.14-9.77-17.28-4.71-33.93-11.52-51.17-16.34-19.83-5.53-40.35-8.51-60.27-13.8 26.79 30.13 63.33 46.3 100.49 59.6-37.85 1.41-72.65-9.17-108.11-20.67-9.76-3.16-19.74-5.68-29.26-9.53-11.42-4.62-22.25-10.66-33.56-15.55-9.4-4.06-19.17-7.3-28.56-11.38-20.28-8.81-30.09-17.5-53.12-22.77 22.52 13.62 38.8 35.94 60.78 50.39 11.47 7.54 24.43 15.23 36.84 21.13 5.23 2.49 15.6 4.59 19.15 8.56l-1.06 1.62c-23.83 4.61-113.34-37.74-135.8-52.04-.24-.16-.44-.39-.66-.58-13.88-6.9-26.42-16.39-39.67-24.42-13.32-8.07-27.14-15.34-40.4-23.5-16.84-10.38-33.27-21.57-50-32.15-9.96-2.21-29.48-17.14-38.6-22.98-39.9-25.58-78.73-51.86-117.64-78.92-26.51-18.45-53.08-36.33-78.68-56.1a713 713 0 0 1-54.45-47.28c-22.51-21.57-42.09-46.5-61.77-70.63-5.88-7.2-11.17-15.24-17.44-22.04l-1.68-1.79c-.97 1.97-.29 1.11-2.12 2.53-1.29-.72-2.49-1.39-3.57-2.42-7.85-7.47-31.87-32.91-31.96-42.62l3.22-2.19c-11.21-17.92-25.91-33.83-37.62-51.51-16.44-24.85-29.43-52.95-48.08-76.23l-1.12 2.31-3.08-1.1c-3.36-6.2-7.66-11.82-11.1-18.02-2.31-4.17-5.1-14.45-8.69-16.85-2.78-1.85-5.49-3.73-8.22-5.64l.03-1.51 3.15.59c-2.24-4.49-7.84-18.75-12.1-20.7 1.06 3.27 2.08 6.54 3.06 9.83-6.29-6.59-18.88-30.19-20.95-39.02 2.93.08 1.64.3 3.89-.36-6.05-8.67-31.57-51.55-30.8-59.88l3.45-2.21c-8.45-25.78-20.74-49.68-29.28-75.28l-1.05 5.46-1.43.04c-2.7-6.37-4.78-12.9-4.39-19.85l.15-2.52c-6.02-11.39-13.74-27.35-13.96-40.36-.14-8.83-4.78-13.53-6.17-21.61 1.53-.43.8-.31 2.64-.4.47-.02.94-.03 1.4-.05l-3.04-2.08c-.94-3.96.55-3.5 1.51-7.07.36-1.36-10.21-24.53-11.22-29.87-6.3-33.38-5.43-59.84-6.47-93-.29-9.06-1.95-17.65-1.11-26.77 2.51 8.01 1.01 16.52 3.53 24.62.11.34.23.66.34.99-.47-26.82 1.38-52.74 4.65-79.34 3.02-19.47 6.38-38.88 10.09-58.22 3.56-16.93 7.09-33.794 11.25-50.597 3.26-7.526 6.33-15.04 9.12-22.754 9.22-24.704 23.84-44.989 34.6-68.757 4.9-6.869 9.4-13.962 13.9-21.098 22.53-31.46 52.45-56.315 81.18-81.722z"/><path fill="#1d191b" d="M1221.43 961.94c.24-2.99-.23-7.02 1.76-9.27 2.97 2.87 6.72 5.89 6.48 10.41-.18 3.28-1.96 6.91-3.14 9.97l1.43 3.79.74.21c-.04-.45-.18-.91-.11-1.36.05-.4.84-2.24 1.02-2.66l1.61-.65c2.75 10.56 9.67 42.24 9.4 51.77-2.7-.44-1.34-.04-4.05-1.31 1.86 5.94 4.76 11.5 7.43 17.11l1.06-.15 1.62-4.67c4.05 2.28 9.75 20.37 11.63 25.11 10.36 26.02 22.05 51.29 32.78 77.12 2.93 7.05 7.24 13.86 9.39 21.16 1.6 5.46 2.53 11.47 5.13 16.56 8.84 17.34 32.05 44.03 34.38 62.73.29 2.29.7 5.02 1.24 7.25.98 3.98 4.95 5.23 5.27 9.79l-1.92 2.62c-7.44-10.23-13.28-22.89-19.63-33.94-6.96-12.12-14.72-23.96-21.2-36.33-10.4-19.87-18.66-40.83-27.43-61.44-9.06-21.33-18.33-42.09-26.87-63.66-6.14-15.46-13.72-30.67-18.4-46.66-4.97-16.98-6.12-36.02-9.62-53.5M979.32 1119.52l-1.05 5.46-1.43.04c-2.7-6.37-4.78-12.9-4.39-19.85l.15-2.52c-6.02-11.39-13.74-27.35-13.96-40.36-.14-8.83-4.78-13.53-6.17-21.61 1.53-.43.8-.31 2.64-.4.47-.02.94-.03 1.4-.05l-3.04-2.08c-.94-3.96.55-3.5 1.51-7.07.36-1.36-10.21-24.53-11.22-29.87-6.3-33.38-5.43-59.84-6.47-93-.29-9.06-1.95-17.65-1.11-26.77 2.51 8.01 1.01 16.52 3.53 24.62.11.34.23.66.34.99 1.76 37.64 8.34 73.55 15.39 110.45 2.58 13.51 4.43 27.26 7.54 40.65 4.81 20.74 13.57 40.07 16.34 61.37M1128.03 774.75l2.5.44c1.83 8.01-2.89 15.31-.43 23.23 1.69 5.41 4.23 11.63 2.03 17.23l-1.95-.57-2.37-6.56c-.16 10.47 1.3 23.33-.08 33.47-.61 4.45-3.37 8.47-3.18 12.97 1.66-.74.66-.16 2.68-2.18 3.91 4.75 1.33 38.52.35 46.2-.2 1.53-.77 2.85-1.36 4.26l-1.59.8-1.97-1.61c.29 6.99 4.39 14.08 3.82 20.65l-2.55 1.39c-.34 8.14 1.32 30.12 4.17 37.36l1.82-2.74c-.3-.57-.66-1.11-.9-1.71-.8-2.07-.54-1.29.05-2.93 3.05-8.39 1.15-26.89 6.97-33.04.4 3.94.43 7.75.37 11.7-2.56 17.46-3.47 35.11-4.55 52.71-4.76-10.87-7.84-21.45-9.54-33.18-5.74-39.46-2.35-81.89.36-121.45 1.29-18.77 2.01-37.92 5.35-56.44M1713.97 1633.79l-.49-4.07c2.98-.38 4.39.12 6.77 2.07.5.41 1.83 1.84 2.25 2.25 10.72 10.67 27.28 19.1 39.9 27.65 14.65 9.92 28.18 20.71 43.6 29.47 3.73 2.12.47 3.87 4.11 5.12l1.16-3.09c2.64.43 2.19.54 3.78 2.43 1.05 5.9 6.1 8.03 10.81 11.32 5.56 3.87 11.23 8.16 17.15 11.45 5.6 3.12 10.83 3.71 15.74 8.22 2.37 2.18 11.38 8.98 11.56 11.7l-4.82-2.11-1.01.95c12.04 12 30.13 22.86 44.8 31.55l-.19 1.1-6.53.09c-25.71-15.45-45.93-35.3-69.8-52.91-38.91-28.71-79.53-55.02-118.79-83.19M1091.08 1347.36l-1.12 2.31-3.08-1.1c-3.36-6.2-7.66-11.82-11.1-18.02-2.31-4.17-5.1-14.45-8.69-16.85-2.78-1.85-5.49-3.73-8.22-5.64l.03-1.51 3.15.59c-2.24-4.49-7.84-18.75-12.1-20.7 1.06 3.27 2.08 6.54 3.06 9.83-6.29-6.59-18.88-30.19-20.95-39.02 2.93.08 1.64.3 3.89-.36-6.05-8.67-31.57-51.55-30.8-59.88l3.45-2.21c15.8 30.66 29.95 61.91 46.6 92.22 11.26 20.51 24.59 39.89 35.88 60.34M1211.21 1519.8c-.97 1.97-.29 1.11-2.12 2.53-1.29-.72-2.49-1.39-3.57-2.42-7.85-7.47-31.87-32.91-31.96-42.62l3.22-2.19c11.39 14.65 24.25 29.24 34.43 44.7"/><path fill="#fcb756" d="M1170.5 465.904c4.16-3.923 8.46-7.191 13.15-10.444 7.29 8.356 13.47 16.476 17.59 26.889l-.68 1.422c-1.56.765-.65.459-2.79.712l1.96-.304c-6.93.48-8.19-12.375-14-16.141-3.95-2.556-7.95-1.258-12.18-.199l-1.51.391z"/><path fill="#282220" d="M1313.86 1461.78c3.11.36 4.71.85 7.32 2.57 2.65 3.76 3.64 7.15 3.47 11.79-.33 9.52-5.43 18.51-12.64 24.57a33.24 33.24 0 0 1-25.96 7.74c-12.03-1.65-21.93-9.59-29.18-18.91-.51-1.05-1.01-2.1-1.46-3.18-1.92-4.63-3.69-9.42-1.69-14.33 6.41 1.69 14.8 13.77 21 17.83 5.4 3.53 12.33 6.44 18.88 4.89 12.73-3.02 13.32-22.44 19.64-32.07.2-.31.41-.6.62-.9"/><path fill="#1d191b" d="M1549.53 1687.12c1.36 5.46.3 11.4 1.79 16.91 8.17 30.29 45.24 15 53.88 20.01.07.36.19.72.21 1.08.18 4.47-4.66 10.33-7.23 13.74-2.48 1.02-4.75 1.86-7.41 2.28-12.77 2-27.16.73-37.59-7.53-6.73-5.32-11.81-13.48-12.75-22.09-1.13-10.25 3-16.62 9.1-24.4M1067.21 1177.32c8.56-.83 15.97-.11 24.04 3.09 9.74 3.86 19.19 10.88 23.24 20.83 3.16 7.75 4.62 20.23.75 27.97-1.6 3.19-2.04 3.22-5.26 4.25l-17.94 3.72c3.09-9.71 7.43-23.31 4.63-33.34-3.34-11.94-16.51-10.81-24.92-16.96-3.32-2.43-3.73-5.79-4.54-9.56M1268.71 1295.36c-3.15-2.13-6.02-4.46-8.68-7.18-6.45-6.59-9.6-16.56-9.44-25.67.13-7.19 2.4-15.23 7.98-20.14 3.24-2.84 6.66-4.41 10.88-4.08 2.42 5.8-3.16 14.13-5.26 19.74-1.87 5.01-2.46 9.29.09 14.19 7.49 14.44 20.48 10.53 33.3 14.69.89 2.09 1.11 3.85 1.32 6.09-1.44 3.28-2.9 5.52-6.47 6.73-5.35 1.82-12.77 1.95-17.87-.58-2.07-1.03-3.99-2.44-5.85-3.79"/><path fill="#1d191b" d="M1297.58 1286.91c.89 2.09 1.11 3.85 1.32 6.09-1.44 3.28-2.9 5.52-6.47 6.73-5.35 1.82-12.77 1.95-17.87-.58-2.07-1.03-3.99-2.44-5.85-3.79 7.09-1.93 12.43.49 19.07-4.49 1.67-1.25 1.98-1.55 4.19-1.97 2.24-.43 3.58-.96 5.61-1.99"/><path fill="#282220" d="M1466.76 1492.63c2.99.1 6.07.17 8.98.91 10.75 2.69 22.52 11.3 27.78 21.12 2.78 5.19 4.03 10.73 2.01 16.41-2.23 6.26-5.61 8.58-11.49 11.23-6.77-8.13 1.02-18.22-4.03-26.97-4.57-7.92-27.32-5.85-33.98-15.35l.66-2.59c2.89-2.93 6.26-3.62 10.07-4.76M1066.18 1025.28c8.02 3.68 10.83 13.36 18.55 16.99 5.38 2.53 13.72.31 19.29 3.74 2.92 1.8 3.15 3.23 3.73 6.27-1.09 2.85-2.19 4.03-4.48 6.02-5.25 2.05-10.7 3.68-16.04 5.46-8.52-2.69-16.74-5.28-21.23-13.76-4.05-7.66-2.37-16.89.18-24.72M988.21 779.29c2.38.6 3.4 1.15 5.17 2.87 1.57 4.94-.52 10.67-1.63 15.6l1.1 1.75c2.77 4.38 7.34 9.98 6.15 15.19l-3.1.57c-4.09-2.11-9.32-4.53-12.45-7.96-3.06-3.35-5.04-8.1-4.53-12.68.7-6.38 4.63-11.3 9.29-15.34"/><path fill="#1d191b" d="M1463.12 1193.95c-1.77-3.28-2.76-4.41-1.69-8.25 2.62-9.41 22.05-25.24 30.1-31.38 3.34-2.54 10.72-6.72 12.95-10.03 6.67-9.91-.15-12.35 14.64-20.45l-.87 1.02c.23-.04.48-.03.69-.14 11.14-5.66 18.55-19.03 24.15-29.71l1.78-.09c.09 0 .17-.01.26-.02l1.12 4.16c-20.01 30.28-55.7 71.58-83.13 94.89M1970.34 1151.53c1.08-1.67 2.1-3.31 3.09-5.04 4.19 9.51 1.22 35.94-2.57 45.57-.22.55-.45 1.09-.68 1.64l-1.95.7 1.66-.32-1.39 1.5c-2.29-2.63-1.87-6.65-2.05-9.98.05-10.97 2.61-23.06 3.89-34.07M588.799 1013.97c39.14 12.06 67.905 16.18 108.081 22.11 34.498 5.28 69.176 9.32 103.964 12.11 26.65 1.9 53.435 2.24 80.05 4.51 2.31 1.39 3.77 2.36 5.336 4.57l-1.007 1.57c-15.372 2.41-107.043-3.13-121.331-7.66 1.805-2.77 5.492-.02 8.271-2.16-5.438-.25-11.299-.68-16.562-2.07-4.597-1.21-8.744-.36-13.376.32 5.315.25 15.241-.48 19.2 3.07l-.602 1.17c-7.968-1.58-16.468-.39-24.264-2.59-9.432-2.66-20.112-3.12-29.875-4.52-25.877-3.72-51.895-6.93-77.085-14.17-.808-1.04-10.197-2.43-12.09-2.84l.46.36-7.515-1.27c-10.106-1.74-17.824-1.74-24.242-10.83zM1016.97 570.884l2.36.892c-3.03 5.339-7.65 10.153-11.54 14.904 2.52-.082 3.81-.872 6.05-1.937-.75 5.814-11.29 15.827-16.12 19.109-1.4.946-2.93 1.48-4.5 2.059l-1.64 2.613.25-.618c-.36-.553-.8-1.061-1.08-1.659-.22-.473-.27-1.009-.41-1.514 6.82-10.362 17.33-25.707 26.63-33.849M1084.13 331.287l1.67-2.185c9.61.544 20.66 3.936 27.95 10.452l-3.01 1.127c1.48.649 2.78.956 4.35 1.31l-6.93 2.437c-8.66-3.322-16.26-8.134-24.03-13.141"/><path fill="#f1af4e" d="m57.13 978.89-2.16-3.37c1.784-9.72 6.673-8.92 10.994-15.92.218-.35.381-.73.571-1.1 2.5-1.11 5.815-2.15 7.568-4.32 1.12-1.38.27-3.81.094-5.47l1.433-1.6 2.237 1.99c4.46-2.89 9.891-5.74 13.68-9.45 1.674-1.64 1.913-1.26 4.158-1.49l-1.155-.89-7.796 1.73 1.324-1.52.402 1.33-.202-1.46c12.983-8.23 26.962-12.34 41.899-15.39l1.684 2.1c4.551 1.81 19.576-6.18 26.176-6.37 13.015-.37 26.142 2.34 39.182 1.9 9.294-.32 20.869-4.41 29.957-2.47 6.347 1.34 13.677 8.56 19.995 7.21l-1.452-2.17c10.532-.99 45.271 9.15 56.269 13.09.364 3.27.028 1.71.964 4.71 14.631 1.42 36.504 20.47 48.353 17.8q-3.47-1.185-6.901-2.49l-.303-2.55c8.671-3.63 30.892 13.62 39.81 15.18 2.057.36 2.942.53 4.69 1.58l.092 1.55-3.079 2.33c42.571 18.68 85.533 36.06 129.733 50.49 12.57 4.1 25.644 6.46 38.28 10.34 14.299 4.38 28.095 10.38 42.448 14.56 15.912 4.63 32.631 6.92 48.979 9.53l.127-2.45c4.503-2.07 9.146-.53 13.675 1.07 9.796 3.47 19.208-.06 29.156 2.38 10.426 2.56 21.054 4.92 31.732 6.12 14.788 1.66 34.857-.14 48.467 6.27.571-.18 1.139-.37 1.712-.54 5.666-1.71 8.286-2.09 13.755-.03 3.104 1.17 6.21 2.3 9.295 3.52l-.603.91c-5.311.19-10.707.16-15.979.81 20.842 2.76 42.167 3.58 63.135 5.22 14.18 1.11 28.776 3.4 42.984 3.37 18.45-.04 37.07-2.63 55.58-3.1.08.45.15.9.24 1.34 2.6 12.7 10.55 24.6 15.5 36.56 4.07 9.85 7.08 20.27 10.75 30.29 7.39 20.24 15.08 40.15 22.1 60.55 4.03 11.7 9.82 24.15 11.99 36.29.67 3.7.49 5.47-1.08 8.85-13.2 5.49-64.52 10.78-70.03 23 3.92 4.66 11.56 5.14 17.41 5.68 8.31.72 16.67.6 24.96-.36-3.81 4.24-7.67 8.96-12.06 12.6-13.18 10.96-24.69 14.27-37.23 28.29l19.42 5.34c-12.31 1.77-47.206 4.35-56.085 11.94 1.915 3.3 5.905 4.07 9.531 4.95 13.674 3.34 28.184 2.74 42.044 5.03-8.94 2.12-17.88 4.35-26.85 6.33 3.18.35 5.34.47 8.25 1.96-6.62 1.55-16.17 1.46-21.75 5.11 2.48 1.73 10.39.81 13.81.99l-.55 1.3c-47.738 5.41-61.489 11.32-111.473 1.34-9.744-1.94-20.045-3.38-29.5-6.51-10.6-3.5-22.507-3.65-33.487-5.81-43.606-8.54-88.256-14.12-131.391-24.83-1.193-2.24-2.262-4.06-3.985-5.94l-3.639.45-.586 1.25 1.966 2.46c-13.326-3.9-28.408-13.06-41.931-14.29l1.28 1.98c-5.251 1.2-13.346-2.41-18.121-4.79l.812-.92-12.092-2.79c6.32-.91 13.16-.52 19.557-.64-34.859-10.37-70.989-17.9-105.587-29.16-18.154-5.9-37.081-14.01-54.7-21.48 29.633-.49 59.07 3.28 88.75 2.5-30.29-6.36-57.396-21.73-87.512-29.3l-.287 3.59-1.299.88c-4.18-3.88-7.624-3.02-12.537-4.46-9.388-2.75-18.11-9.75-27.283-12.01-6.067-1.49-13.177-.82-18.957-3.12-3.36-1.34-6.187-3.81-9.456-5.37-8.676-4.16-17.672-7.02-26.899-9.66-1.084-2.03-1.638-2.75-3.39-4.39-21.354.72-27.304-12.24-45.254-15.39-1.593-.28-3.149-.65-4.724-1.01-2.165-3.17-3.196-4.76-6.786-6.46l-2.364 1.35-.082-.07.281-1.99-1.094.41 2.739 5.12-1.103.66-2.8-1.28c-5.791-8.85-3.124-5.09-9.787-5.44-2.163-.12-9.969-6.99-12.735-8.29-8.469-3.98-19.346-2.85-28.44-7.6-7.392-3.86-11.282-12.22-18.789-16.08-1.555 2.48-.673 1.32-2.643 3.47-.583-1.35-1.16-2.69-1.841-3.99-1.553-2.95-2.363-4.13-5.569-5.13-18.657-5.77-31.607-20.33-48.01-29.96-.52-.3-1.05-.6-1.574-.9l.361-1.78 3.774-.82c-3.886-3.05-7.84-6.05-11.65-9.19a538 538 0 0 0-5.474-13.69c7.602 5.56 15.18 11.25 23.624 15.49 11.472 5.77 23.1 9.71 33.638 17.25 12.098 4.71 23.634 11.2 35.651 16.22 19.505 8.16 39.528 14.58 59.313 21.93 13.511 5.03 26.82 11.13 40.517 15.59 15.857 5.17 32.79 7.49 48.908 12 24.746 6.91 56.247 16.38 82.12 14.72-3.038-3.26-16.735-5.51-21.631-7.75-14.67-6.7-29.649-12.74-44.266-19.49-10-4.61-19.524-10.26-29.642-14.62-24.479-10.54-49.383-20.07-73.698-31.09a944 944 0 0 1-95.631-49.52c-16.971-9.83-34.318-19.08-49.156-32.05-17.56-15.34-34.159-34.23-35.766-58.58"/><path fill="#1d191b" d="M83.149 1078.79c7.602 5.56 15.179 11.25 23.624 15.49 11.472 5.77 23.1 9.71 33.638 17.25l-2.048.9c-1.855.8-3.316 1.2-5.354 1.33l-1.138 1.65c1.808 2.19 3.33 2.48 5.904 3.44 3.923 1.46 5.751 2.97 8.733 5.78 8.082 7.62 24.487 16.56 34.83 20.19 4.002 1.41 8.921.64 12.73 1.99 1.844.65 3.509 4.69 4.299 6.27.829.08 1.661.14 2.487.24 8.863 1.08 12.517 9.75 20.919 10.98l-7.777.93 172.825 66.16-.287 3.59-1.299.88c-4.18-3.88-7.624-3.02-12.537-4.46-9.388-2.75-18.11-9.75-27.283-12.01-6.067-1.49-13.177-.82-18.957-3.12-3.36-1.34-6.187-3.81-9.456-5.37-8.676-4.16-17.672-7.02-26.899-9.66-1.084-2.03-1.638-2.75-3.39-4.39-21.354.72-27.304-12.24-45.254-15.39-1.593-.28-3.149-.65-4.724-1.01-2.165-3.17-3.196-4.76-6.786-6.46l-2.364 1.35-.082-.07.281-1.99-1.094.41 2.739 5.12-1.103.66-2.8-1.28c-5.791-8.85-3.124-5.09-9.787-5.44-2.163-.12-9.969-6.99-12.735-8.29-8.469-3.98-19.346-2.85-28.44-7.6-7.392-3.86-11.282-12.22-18.789-16.08-1.555 2.48-.673 1.32-2.643 3.47-.583-1.35-1.16-2.69-1.841-3.99-1.553-2.95-2.363-4.13-5.569-5.13-18.657-5.77-31.607-20.33-48.01-29.96-.521-.3-1.05-.6-1.574-.9l.36-1.78 3.775-.82c-3.886-3.05-7.84-6.05-11.651-9.19a538 538 0 0 0-5.473-13.69"/><path fill="#fcb756" d="M83.149 1078.79c7.602 5.56 15.179 11.25 23.624 15.49 11.472 5.77 23.1 9.71 33.638 17.25l-2.048.9c-1.855.8-3.316 1.2-5.354 1.33l-1.138 1.65c1.808 2.19 3.33 2.48 5.904 3.44 3.923 1.46 5.751 2.97 8.733 5.78 8.082 7.62 24.487 16.56 34.83 20.19 4.002 1.41 8.921.64 12.73 1.99 1.844.65 3.509 4.69 4.299 6.27.829.08 1.661.14 2.487.24 8.863 1.08 12.517 9.75 20.919 10.98l-7.777.93c-39.37-20.99-77.406-36.53-113.723-63.56-3.886-3.05-7.84-6.05-11.651-9.19a538 538 0 0 0-5.473-13.69"/><path fill="#1d191b" d="M545.87 1308.83c21.204 4.69 41.497 12.58 62.699 17.29 15.042 3.35 30.37 5.3 45.476 8.36 19.337 3.91 38.566 8.79 58.011 12.1 19.656 3.34 39.504 5.46 59.121 9.08 24.575 4.53 49.347 12.97 74.498 13.18 20.906.18 42.622-6.09 63.025-10.33 3.18.35 5.34.47 8.25 1.96-6.62 1.55-16.17 1.46-21.75 5.11 2.48 1.73 10.39.81 13.81.99l-.55 1.3c-47.738 5.41-61.489 11.32-111.473 1.34-9.744-1.94-20.045-3.38-29.5-6.51-10.6-3.5-22.507-3.65-33.487-5.81-43.606-8.54-88.256-14.12-131.391-24.83-1.193-2.24-2.262-4.06-3.985-5.94l-3.639.45-.586 1.25 1.966 2.46c-13.326-3.9-28.408-13.06-41.931-14.29l1.28 1.98c-5.251 1.2-13.346-2.41-18.121-4.79l.812-.92-12.092-2.79c6.32-.91 13.16-.52 19.557-.64M57.13 978.89l-2.16-3.37c1.784-9.72 6.673-8.92 10.994-15.92.218-.35.381-.73.571-1.1 2.5-1.11 5.815-2.15 7.568-4.32 1.12-1.38.27-3.81.094-5.47l1.433-1.6 2.237 1.99c4.46-2.89 9.891-5.74 13.68-9.45 1.674-1.64 1.913-1.26 4.158-1.49l-1.155-.89-7.796 1.73 1.324-1.52.402 1.33-.202-1.46c12.983-8.23 26.962-12.34 41.899-15.39l1.684 2.1c4.551 1.81 19.576-6.18 26.176-6.37 13.015-.37 26.142 2.34 39.182 1.9 9.294-.32 20.869-4.41 29.957-2.47 6.347 1.34 13.677 8.56 19.995 7.21l-1.452-2.17c10.532-.99 45.271 9.15 56.269 13.09.364 3.27.028 1.71.964 4.71 14.631 1.42 36.504 20.47 48.353 17.8q-3.47-1.185-6.901-2.49l-.303-2.55c8.671-3.63 30.892 13.62 39.81 15.18 2.057.36 2.942.53 4.69 1.58l.092 1.55-3.079 2.33c-14.853-6.59-30.918-8.34-45.949-14.09-10.866-4.17-20.668-11.28-31.636-15.09-11.858-4.12-24.89-6.51-37.116-9.51-54.628-13.39-107.751-19.77-161.486 1.08-20.507 7.95-41.197 24.02-52.297 43.14M645.054 1058.28l.127-2.45c4.503-2.07 9.146-.53 13.675 1.07 9.796 3.47 19.208-.06 29.156 2.38 10.426 2.56 21.054 4.92 31.732 6.12 14.788 1.66 34.857-.14 48.467 6.27.571-.18 1.139-.37 1.712-.54 5.666-1.71 8.286-2.09 13.755-.03 3.104 1.17 6.21 2.3 9.295 3.52l-.603.91c-5.311.19-10.707.16-15.979.81-44.137 1.33-88.545-8.76-131.337-18.06"/><path fill="#282220" d="M588.997 1077.44c7.65-.29 14.832.68 22.382 1.75 11.329 9.61 25.754 20.81 27.15 36.84.773 8.88-2.66 16.67-8.09 23.43-3.584 1.83-6.192 3.54-10.206 2.85-4.607-5.79-1.147-18.88-1.483-26.08-.231-4.94-1.564-9.79-2.784-14.56-8.668-4.28-20.664-5.05-27.09-12.47-1.66-4.2-.697-7.51.121-11.76M413.317 1163.16c11.159 5.06 21.225 11.27 32.8 15.91l14.073-15.13c.387.36.777.7 1.161 1.06 6.659 6.19 10.002 9.54 10.29 18.82-.974 1.37-1.896 2.94-3.08 4.13-5.33 5.35-14.472 9.2-21.943 9.31-9.406.13-18.92-4.54-25.259-11.37-6.053-6.51-8.421-13.93-8.042-22.73M738.742 1232.81c7.13 1.41 12.591 9.34 19.878 10.29 6.857.89 11.194-3.88 16.367-7.53l1.514 1.56c.804 5.27.489 9.75-.096 15.03-1.181 2.21-2.413 4.13-4.407 5.71-3.813 3.02-9.27 4.73-14.115 4.14-6.114-.74-11.439-4.75-15.077-9.55-4.733-6.24-4.848-12.15-4.064-19.65"/><path fill="#f1af4e" d="m541.388 1334.43 2.591-4.38 1.732-.32c.338.31.647.65 1.015.92 11.491 8.46 65.76 18.41 82.932 19.96 9.181.83 25.072 13.31 33.432 8.46l-2.138-3.32c2.48.02 5.928 1.45 7.593 3.41.334.4.531.89.796 1.33l-2.039 1.89c6.634 2.21 13.516 1.94 19.999 4.18 5.097 1.77 11.47 1.34 16.842 1.45l-.127-.87-7.544-3.23c20.144.86 43.556 8.97 64.774 12.08 2.508.37 4.472 1.69 6.639 2.92l-3.827 1.88c26.018 7.07 41.506 36.44 59.586 54.65 12.798 12.89 27.284 24.83 41.585 36.02 40.381 31.59 87.091 57.18 131.991 81.83 29.73 16.32 59.55 33.43 91.54 45.15 21.42 7.84 45.43 12.47 67.8 17.12l.1-4.17c.78.09 1.55.21 2.33.29 2.76.28 5.43.43 8.13.87 23.81 3.81 49.32 1.15 72.34 10.45 4.92 1.99 10.14-1.48 14.94 0l-.41 1.39c-6 .14-12.13.08-18.09.72a557 557 0 0 0 26.71 3.11c5.83 6.41 12.37 15.7 19.1 20.78l.75-3.48 1.76-.65c1.96 2.54 3.1 4.07 3.88 7.26l1.46.46c.61.21 1.22.43 1.83.63.46.14.94.22 1.39.41 4.04 1.67 67.41 65.81 76.64 74.95-5.4-.17-11.03-12.58-15.96-11.67 5.84 7.57 44.93 41.56 45.26 44.09l-2.44 1.13c3.8 2.88 7.54 4.91 11.82 6.98 1.66-2.23 1.55-2.22 4.27-2.74 14.91 6.64 31.09 22.49 41.15 35.27-1.52 1.74-.7 1.17-2.27 1.96l6.01 5.96-.2 1.8c-2.29.57-4.45.98-6.8 1.21.34.24.67.5 1.02.72 1.64 1.02 3.08 1.3 4.94 1.69l.36 1.28-1.84-.37c-4.9-.97-8.63-1.46-13.63-.61 2.02 1.15 4.03 1.98 6.18 2.87-5.76 2.81-32.27 1.71-38.59-.73-2.21-.85-4.24-1.91-6.29-3.07l.03-.86c2.89.81 6.16 2.38 9.07 1.62-3.41-2.44-5.17-2.17-9.22-1.77-3.07.3-4.26-.29-7.01-1.46-28.01 6.23-17.59-2.84-30.28-3.03-5.62-.08-11.64 2.89-16.96 2.39-5.84-.55-10.45-5.64-17.09-6.21-12.08-1.03-24.7-1.86-36.66-3.55-10.53-1.49-15.96-6.18-27.28-4.56 1.32 1.33 1.33 1.89 3.26 2.07 3.45.32 5.93.82 9.18 2.1 6.71 2.65 14.33 3.99 21.28 6.07l49.68 15.21c4.54 1.37 9.55 1.28 13.84 3.25-3.72 1.46-8.06.22-12 .34 3.98 1.49 8.94 2.47 11.6 5.78l-2.43 2.8c2.98 3.38 7.2 4.62 9.08 8.71-5.41 4.16-19.47 1.26-26.1.39-60.95-7.99-127.82-21.44-185.23-43.57 28.47 18.29 64.96 45.06 97.97 53.19 16.17 3.99 102.96 20.96 108.82 26.41l-.6 1.78c-2.98.57-5.31.55-8.31.36l-1.78 2.69c-12.76 1.13-26.54-4.18-39.64-3.89l-.55.73c4.72 1.19 12.57 2.1 16.22 5.26-10.82.86-27.08-.05-37.22-4.01-5.25-2.06-10.75-5.45-16.2-6.72-4.69-1.09-10.37.29-15.18.35-9.76.14-22.83-3.99-31.38-8.33-5.65-2.87-7.41.66-11.86-.81-4.88-1.61-7.47-6.36-12.34-8.07-.03 1.79-.11 2.74-.69 4.48-6.41-5.68-13.11-3.44-20.46-5.98-5.97-2.06-10.57-7.91-16.46-10.21-9.06-3.54-24-2.88-30.61-10.38-5.93-6.74-16.99-3.06-24.39-8.53-1.2-.89-1.96-1.53-3.43-1.93-2.16-.6-3.47-.66-5.4-2.01-1.77-1.23-1.2-.78-1.62-3.17l3.29-.78c-11.73-5.3-23.97-9.22-35.85-14.11-10.17-4.18-19.88-9.49-29.94-13.91-22.94-10.07-46.32-19.33-68.81-30.42-47.75-23.55-94.522-53.36-138.508-83.26-13.653-9.29-28.874-16.25-41.744-26.65-10.977-5.8-76.553-48.61-81.755-56.01l1.432-.86c5.389.7 9.466 3.83 14.342 5.97 21.234 9.3 42.261 19.31 63.698 28.14 5.14 1.95 10.356 3.67 15.571 5.41-17.142-11.79-34.986-22.62-51.871-34.77-19.626-14.12-38.443-29.77-57.509-44.66-21.728-16.96-43.701-33.88-62.589-54.08a1031.8 1031.8 0 0 0 181.512 101.29c-20.198-22.05-46.5-40.07-69.378-59.37a4333 4333 0 0 1-118.092-102.33c-11.486-10.16-23.894-19.63-35.087-30.03-8.496-7.9-1.83-10.25-3.853-17.53-1.117-4.01-7.784-9.93-10.736-12.87-7.508-7.47-45.819-39.43-46.985-45.92 3.51-1.65 6.393-.58 10.19-.1"/><path fill="#1d191b" d="M1352.25 1825.96c-9.77-1.01-20.17-5.06-29.66-7.68-15.1-4.17-30.72-7.65-45.54-12.69-6.95-2.37-20.96-6.97-24.3-13.69 4.49-3.07 114.76 13.82 129.4 15.29 22.55 2.25 45.74 1.99 68.11 5.38.34.24.67.5 1.02.72 1.64 1.02 3.08 1.3 4.94 1.69l.36 1.28-1.84-.37c-4.9-.97-8.63-1.46-13.63-.61 2.02 1.15 4.03 1.98 6.18 2.87-5.76 2.81-32.27 1.71-38.59-.73-2.21-.85-4.24-1.91-6.29-3.07l.03-.86c2.89.81 6.16 2.38 9.07 1.62-3.41-2.44-5.17-2.17-9.22-1.77-3.07.3-4.26-.29-7.01-1.46-28.01 6.23-17.59-2.84-30.28-3.03-5.62-.08-11.64 2.89-16.96 2.39-5.84-.55-10.45-5.64-17.09-6.21-12.08-1.03-24.7-1.86-36.66-3.55-10.53-1.49-15.96-6.18-27.28-4.56 1.32 1.33 1.33 1.89 3.26 2.07 3.45.32 5.93.82 9.18 2.1 6.71 2.65 14.33 3.99 21.28 6.07l49.68 15.21c4.54 1.37 9.55 1.28 13.84 3.25-3.72 1.46-8.06.22-12 .34M541.388 1334.43l2.591-4.38 1.732-.32c.338.31.647.65 1.015.92 11.491 8.46 65.76 18.41 82.932 19.96 9.181.83 25.072 13.31 33.432 8.46l-2.138-3.32c2.48.02 5.928 1.45 7.593 3.41.334.4.531.89.796 1.33l-2.039 1.89c6.634 2.21 13.516 1.94 19.999 4.18 5.097 1.77 11.47 1.34 16.842 1.45l-.127-.87-7.544-3.23c20.144.86 43.556 8.97 64.774 12.08 2.508.37 4.472 1.69 6.639 2.92l-3.827 1.88c-25.017-3.84-50.415-5.84-75.274-10.51-20.976-3.94-41.573-10.33-62.314-15.36-14.163-3.43-28.566-5.74-42.765-9.01-14.193-3.26-28.272-7.6-42.317-11.48M1281.71 1649l.75-3.48 1.76-.65c1.96 2.54 3.1 4.07 3.88 7.26l1.46.46c.61.21 1.22.43 1.83.63.46.14.94.22 1.39.41 4.04 1.67 67.41 65.81 76.64 74.95-5.4-.17-11.03-12.58-15.96-11.67 5.84 7.57 44.93 41.56 45.26 44.09l-2.44 1.13c-9.86-6.35-19.06-16.93-27.7-25.1-30.01-28.35-59.42-57.17-86.87-88.03"/><path fill="#fcb756" d="M792.498 1652.15c-10.977-5.8-76.553-48.61-81.755-56.01l1.432-.86c5.389.7 9.466 3.83 14.342 5.97 21.234 9.3 42.261 19.31 63.698 28.14-2.245 2.57-2.237 2.78-5.57 3.38-1.721-.75-3.023-1.36-4.514-2.41-4.918-3.47-15.299-9.49-20.978-10.04l-2.472 1.6c.97 3.02 3.309 3.78 6.086 5.21.877.46 1.797.83 2.693 1.24 8.943 4.15 24.001 13.33 29.135 21.66-1.518 1.91-.715 1.33-2.097 2.12"/><path fill="#1d191b" d="m1156.56 1615.56.1-4.17c.78.09 1.55.21 2.33.29 2.76.28 5.43.43 8.13.87 23.81 3.81 49.32 1.15 72.34 10.45 4.92 1.99 10.14-1.48 14.94 0l-.41 1.39c-6 .14-12.13.08-18.09.72-24.75 1.88-55.07-4.45-79.34-9.55M1408.1 1769.11c1.66-2.23 1.55-2.22 4.27-2.74 14.91 6.64 31.09 22.49 41.15 35.27-1.52 1.74-.7 1.17-2.27 1.96-4.44-2.88-7.86-7.13-12.09-10.37-10.65-8.17-22.01-13.86-31.06-24.12"/><path fill="#282220" d="m900.78 1579.61 1.93.63c3.19 5.43 2.46 18.84 3.46 25.61 8.17 6.25 16.77 9.8 26.29 13.43l-14.01 4.31c-3.74.19-7.72.53-11.45.11-5.89-.66-10.6-3.71-14.004-8.55-3.318-4.7-4.57-11.09-3.584-16.73 1.423-8.13 4.748-13.98 11.368-18.81"/><path fill="#1d191b" d="m1130.65 1707.25 3.31.66c2.6 3.94 1.39 11.49 2.54 16.45 3.36 4.54 7.92 6.22 12.58 9.16 2.49 1.58 3.63 1.56 4.3 4.52-2.92 2.61-5.98 3.01-9.67 3.8-7.31.1-14.2.58-19.68-5.1-3.18-3.29-4.92-7.42-4.52-12.05.66-7.72 5.32-12.88 11.14-17.44M731.012 1441.58c6.239-.32 11.925-.65 17.916 1.47 9.146 3.24 18.866 7.7 23.066 16.97-.4 3.53-.343 3.64-2.841 6.13-5.375-1.3-10.069-3.51-15.051-5.85-6.103-2.88-23.109-9.97-25.428-16.37z"/><path fill="#f1af4e" d="M1420.27 1070.92c9.1 2.06 14.66 10.2 22.98 14.5 6.63-.31 13.42-1.65 18.98 2.71l.06 2.62c-2.13 3.81-5.36 5.62-8.87 7.98-5.63 1.56-11.04 2.51-16.86 2.91-7.19.49-16.32-.64-21.79-5.81-2.5-2.35-3.69-5-3.65-8.46.08-6.39 4.81-12.28 9.15-16.45"/><path fill="#fcb756" d="M529.322 1417.1c3.902.25 5.874-.05 9.167 2.15.858 4.47 8.221 33.62 7.835 35.14-.202.8-.781 1.45-1.171 2.17-6.369-5.22-13.484-10.21-16.909-17.96-2.969-6.72-1.514-14.88 1.078-21.5M1982.86 1701.06c6.57-2.56 9.23-2.08 15.97.61l1.3 2.47c-12.26 8.98-25.01 14.69-39.06 20.33 6.45-8.05 14.09-16.55 21.79-23.41"/><path fill="#1d191b" d="M926.74 759.97c3.53 5.13 4.99 8.14 3.8 14.38-.61 3.19-1.94 5.88-3.48 8.7l-1.3.32-1.26-1.86-1.57 5.22c.06-3.55.25-7.14.02-10.69.79-5.49 2.32-10.73 3.79-16.07"/></svg>