<svg width="2348" height="2040" viewBox="0 0 2348 2040" fill="none" xmlns="http://www.w3.org/2000/svg">
<path d="M703.92 24.9421C773.448 8.14807 844.763 -0.11691 916.29 0.32809C937.02 0.47309 957.71 2.69908 978.39 3.93008C997.45 5.06408 1016.66 5.20308 1035.61 7.65008C1060.22 10.8281 1084.32 16.9271 1108.72 21.3031C1138.88 26.7111 1167.38 29.8771 1196.83 39.5481C1225.12 48.1361 1251.61 56.7611 1278.56 69.1101C1293.4 74.2771 1307.31 84.3361 1320.76 92.4781C1398.06 139.293 1457.82 194.051 1511.71 266.571C1522.5 278.975 1557.11 332.456 1562.05 345.96C1588.17 348.755 1615.89 346.728 1642.19 346.571C1652.3 346.511 1663.29 345.831 1673.27 347.343C1701.96 345.971 1735.21 352.742 1762.79 360.8C1791.39 367.819 1820.91 372.965 1848.32 383.958C1858.11 387.11 1868.07 390.021 1877.56 393.974C1889.77 398.731 1902.55 404.973 1913.83 411.646C1953.03 423.397 2017.02 473.739 2049.42 500.271C2057.65 507.016 2068.91 514.64 2075.44 522.879C2081.55 528.444 2087.83 533.911 2093.64 539.797C2111.6 553.799 2127.74 570.713 2143.3 587.278C2213.18 661.648 2269.81 746.15 2308.05 840.86C2314.18 856.04 2321.27 871.49 2325.78 887.22C2330.66 904.25 2332.76 922.36 2335.44 939.86C2343.46 992.14 2348.46 1042.88 2346.79 1095.83C2344.49 1168.3 2328.66 1247.28 2310.14 1317.48C2306.26 1332.21 2303.19 1347.75 2297.93 1362.04C2287.14 1391.31 2273.35 1418.92 2259.08 1446.6C2212.06 1537.76 2154.66 1623.37 2082.66 1696.89C2062.62 1717.35 2040.34 1736.78 2017.65 1754.25C2004.73 1764.21 1989.94 1772.7 1978.15 1783.98C1977.76 1784.35 1977.38 1784.73 1977 1785.11C1994.79 1800.51 2016.29 1811.67 2036.23 1824.08C2051.73 1833.73 2066.89 1844.89 2081.01 1856.48C2099.82 1871.91 2113.99 1893.44 2115.96 1918.18C2117.66 1939.38 2108.18 1966.65 2094.29 1982.68C2074.99 2004.96 2030.4 2025.48 2001.84 2032.15C1982.87 2036.57 1961.02 2038.32 1941.53 2039.33C1890.16 2042.01 1834.81 2030.18 1788.45 2008.25C1781.54 2004.97 1775.78 1999.78 1768.9 1996.44C1745.35 1985.05 1720.71 1975.62 1697.04 1964.6C1683.14 1958.12 1672.51 1947.21 1656.49 1945.62C1636.14 1943.6 1613.73 1947.69 1593.11 1947.75C1571.2 1947.82 1549.26 1946.72 1527.34 1946.5C1488.3 1946.11 1448.9 1946.26 1409.99 1942.73C1379.95 1940 1350.69 1932.62 1320.89 1928.29C1299.18 1925.14 1277.61 1922.79 1256.05 1918.56C1233.97 1914.23 1212.33 1908.1 1190.34 1903.44C1174.35 1900.05 1157.99 1898.53 1142.16 1894.32C1128.97 1890.81 1116.05 1885.96 1103.05 1881.79C1089.87 1877.57 1076.41 1874.22 1063.29 1869.81C1054.44 1866.83 1046.03 1862.82 1037.32 1859.52C1029.28 1856.49 1020.76 1854.75 1012.8 1851.58C999.96 1846.46 987.47 1839.17 974.81 1833.44C895.4 1797.04 819.432 1753.57 747.809 1703.56C710.573 1677.15 675.428 1647.68 640.092 1618.85C596.098 1582.96 552.741 1546.44 511.789 1507.08C467.01 1463.88 425.957 1416.97 389.067 1366.87C367.612 1338.22 344.827 1286.33 317.69 1265.28C308.185 1257.9 290.841 1259.16 279.358 1254.89C267.549 1250.5 256.228 1244.85 244.466 1240.34C234.13 1236.37 223.279 1233.85 212.943 1229.91C186.377 1219.77 161.733 1208.29 136.166 1196.04C100.082 1178.75 65.5561 1163.69 35.4031 1136.49C15.5151 1118.55 1.43008 1088.31 0.356084 1061.39C-2.13992 998.81 10.8531 978.29 52.6321 933.2C97.1601 885.15 150.724 894.01 209.862 891.8C209.547 874.26 206.336 856.32 205.148 838.74C203.323 811.71 203.583 784.39 203.976 757.32C204.568 716.529 210.847 679.082 218.763 639.21C222.472 620.528 223.947 601.286 228.815 582.882C232.473 569.053 238.127 555.809 242.938 542.36C246.947 531.152 249.904 519.497 254.353 508.46C270.986 467.205 292.826 428.945 313.963 389.916C323.095 373.055 331.272 355.687 340.307 338.773C388.954 247.706 426.853 200.061 509.139 136.914C525.398 124.436 540.568 111.523 557.592 99.9261C572.789 89.5721 590.203 73.3231 607.641 68.0501C617.696 62.6791 626.639 56.1121 637.161 51.4291C637.325 51.3531 637.485 51.2661 637.654 51.2001C660.014 42.3581 679.93 29.2311 703.92 24.9421Z" fill="#282220"/>
<path d="M703.92 24.9421C773.448 8.14807 844.763 -0.11691 916.29 0.32809C937.02 0.47309 957.71 2.69908 978.39 3.93008C997.45 5.06408 1016.66 5.20308 1035.61 7.65008C1060.22 10.8281 1084.32 16.9271 1108.72 21.3031C1138.88 26.7111 1167.38 29.8771 1196.83 39.5481C1225.12 48.1361 1251.61 56.7611 1278.56 69.1101C1277.63 69.7961 1277.85 69.7061 1276.33 70.2331C1266.23 73.7161 1254.13 66.0561 1244.99 62.0181L1244.55 60.5141L1247.33 57.9571C1242.36 56.4151 1234.8 52.9961 1229.77 54.6871C1233.72 56.4881 1237.72 57.9601 1241.81 59.4141L1242.26 61.4841L1240.37 62.1971C1240.04 61.9951 1239.71 61.7871 1239.37 61.5911C1238.84 61.2841 1238.3 60.9971 1237.77 60.6871C1231.79 57.1691 1225.43 57.1191 1218.91 55.2691C1211.96 53.2981 1205.13 48.8891 1199.31 44.7311L1201.56 45.0581C1199.75 42.3381 1199.11 42.6931 1196.15 41.6721C1194.32 41.4811 1191.93 41.9701 1190.23 41.4621C1184.86 39.8591 1179.48 37.2511 1174.09 35.4681C1171.62 34.6501 1168.78 32.9751 1166.43 34.1521C1171.27 38.1881 1176.8 38.7511 1182.8 39.9871C1185.11 40.4641 1184.97 41.1421 1186.29 42.9931L1185.81 44.7731C1176.57 44.0871 1168.87 37.5131 1159.7 36.8301C1141.71 35.4911 1123.82 31.1051 1106.09 27.9691C1091.78 25.4401 1077.34 23.6871 1063.06 20.9121C1052.83 18.9231 1043.18 16.3911 1032.75 15.1281C1014.92 12.9711 970.19 13.9091 956.82 8.66207C936.15 0.556074 892.779 0.786092 871.669 6.51809L871.845 7.2651C878.922 7.1401 885.846 7.03608 892.898 7.77008C862.992 13.0481 829.627 11.4751 799.086 14.4141C787.041 15.5731 762.889 22.4501 753.309 21.7391C752.495 21.6791 751.727 21.3361 750.936 21.1351L751.206 21.8201C753.16 19.5801 752.616 19.6921 752.503 16.9161L752.371 20.3861L753.778 17.1461L755.309 18.1841C754.514 17.9081 753.752 17.5101 752.925 17.3541C747.749 16.3791 732.329 20.1191 728.54 23.5951C731.848 22.8521 735.078 21.8361 738.25 23.3761L737.727 25.6381L738.712 25.0301C736.891 25.8111 737.716 25.6401 735.753 25.7621C724.915 26.4331 717.827 29.9361 707.747 33.0531C706.132 33.5521 706.846 33.5431 705.233 32.7001C708.373 31.5531 710.898 30.8171 713.529 28.6751C710.973 27.0681 707.508 26.9911 704.54 26.5191L703.92 24.9421Z" fill="#1D191B"/>
<path d="M1673.27 347.343C1701.96 345.971 1735.21 352.742 1762.79 360.8C1791.39 367.819 1820.91 372.965 1848.32 383.958L1844.84 387.159C1840.43 386.409 1834.73 386.204 1831.91 382.519L1834.11 381.374C1830.93 380.985 1829.02 383.389 1824.7 382.556C1814.63 380.612 1804.41 375.808 1794.18 375.08C1793.39 375.024 1792.61 374.999 1791.82 374.958L1792.6 373.943L1799.67 373.041C1799.41 372.937 1799.15 372.855 1798.91 372.729C1793.65 369.985 1785.38 369.476 1779.49 368.696L1783.08 372.327L1782.6 372.762C1766.16 370.92 1749.69 364.668 1733.41 361.386C1717.83 358.244 1701.84 357.907 1686.17 355.112C1677.44 351.335 1643.39 355.447 1632.27 355.539C1617.78 355.658 1602.93 355.717 1588.53 354.016L1587.87 352.416C1591.6 349.818 1604.14 351.207 1609.01 351.227V350.407C1594.94 350.105 1580.71 350.998 1566.74 349.414C1601.5 346.349 1637.19 350.96 1671.9 347.493L1673.27 347.343Z" fill="#1D191B"/>
<path d="M1511.71 266.571C1522.5 278.975 1557.11 332.456 1562.05 345.96L1561.54 346.683C1555.07 342.803 1553.63 331.488 1546.9 328.992L1544.76 330.932C1536.16 325.765 1522.57 285.509 1515.67 276.605C1513.84 274.234 1512.34 271.845 1510.8 269.285L1511.71 266.571Z" fill="#1D191B"/>
<path d="M1877.56 393.974C1889.77 398.731 1902.55 404.973 1913.83 411.646C1911.48 413.135 1908.73 413.728 1906.03 413.132C1896.83 411.106 1880.15 403.816 1875.06 395.582L1877.56 393.974Z" fill="#1D191B"/>
<path d="M607.641 68.05C617.696 62.679 626.639 56.112 637.161 51.429L641.06 55.791C637.663 56.791 631.291 57.76 628.472 59.571C622.365 63.493 617.872 77.279 608.176 72.742C607.966 71.175 607.733 69.628 607.641 68.05Z" fill="#1D191B"/>
<path d="M614.188 102.205L611.615 99.582C622.103 89.625 693.542 55.488 710.022 52.763C719.961 51.12 725.955 43.034 735.55 41.766C748.057 40.113 750.32 47.45 765.73 41.715C765.158 41.148 764.692 40.448 764.013 40.014C763.35 39.588 762.535 39.467 761.796 39.194C856.044 17.351 943.82 18.872 1038.9 34.817C1047.36 36.236 1055.56 38.673 1063.97 40.223C1079.76 43.132 1099.82 41.795 1114.38 48.935L1113.25 50.812L1115.16 51.793C1117.32 51.281 1120.43 50.166 1122.65 50.619C1133.09 52.744 1141.23 58.463 1152.59 59.779C1154.43 59.992 1155.61 60.195 1157.45 60.75C1167.63 63.825 1179.45 64.29 1189.12 68.552C1190.89 69.335 1192.32 69.891 1194.26 70.189C1194.89 70.286 1195.53 70.362 1196.16 70.449L1192.87 73.395C1290.06 106.841 1389.47 169.986 1456.02 248.997C1466.83 261.835 1478.22 274.368 1488.18 287.884C1495.2 297.418 1511.31 323.834 1518.11 330.179L1518.75 326.802L1520.32 326.603C1520.56 327.187 1520.76 327.793 1521.05 328.355C1525.15 336.334 1530.78 344.46 1535.72 352.009L1536.7 351.039L1535.44 346.691L1536.48 346.183C1544.89 353.995 1541.97 367.369 1548.76 374.512L1549.63 371.107C1551.71 372.934 1551.59 372.383 1552.28 375.348C1555.25 388.159 1570.33 403.148 1566.79 416.195C1569.06 417.566 1571.05 415.339 1571.46 417.838C1571.96 420.932 1570.89 424.007 1570.13 426.987C1571.74 430.539 1574.07 430.778 1577.6 432.31C1577.51 437.854 1576.58 444.668 1578.97 449.753C1580.7 449.129 1579.93 449.688 1581.04 447.801C1585.27 452.117 1588.07 464.166 1590.36 470.022C1594.95 481.81 1601.12 493.263 1605.09 505.247C1614.22 532.836 1627.73 605.813 1627.34 634.724C1627.31 637.132 1627.17 639.537 1626.93 641.932L1625.6 639.26L1624.45 640.33C1624.33 644.877 1623.04 651.476 1625.45 655.266L1628.23 649.29C1628.56 651.613 1628.26 653.181 1627.96 655.506C1626.87 663.99 1627.87 672.897 1627.84 681.482C1627.8 694.114 1626.59 706.834 1626.77 719.398C1627 735.327 1629.42 751.2 1628.24 767.14C1627.64 775.26 1620.82 797.69 1622.96 802.74C1622.95 802.39 1622.93 802.04 1622.93 801.69C1622.93 801.26 1622.97 800.84 1622.96 800.42C1622.87 792.76 1621.97 784.9 1621.41 777.24C1619.73 791.57 1619.43 806.01 1617.92 820.35C1615.05 845.48 1609.2 870.17 1600.51 893.91C1595.85 906.34 1573.73 948.61 1563.2 954.2L1563.15 953.15L1563.97 953.37L1564.64 952.52L1563.92 950.96C1570.52 934.79 1575.6 916.7 1584.6 901.73C1585.64 898.91 1587.14 896.97 1586.01 894.09C1576.99 898.47 1559.74 935.96 1547.37 945.83C1545.42 942.3 1546.84 937.89 1547.86 934.24C1552.44 917.82 1584.52 855.81 1579.66 844.52C1574.86 848.18 1571.74 860.82 1567.82 866.74C1551.41 891.58 1484.84 983.05 1463.44 994.5L1461.18 993.94C1460.44 981.28 1468.16 966.55 1469.36 953.3C1462.54 965.77 1455.31 976.69 1446.74 988.01C1437.95 999.64 1364.44 1087.25 1359.15 1089.19C1358.82 1089.31 1358.47 1089.34 1358.13 1089.42C1356.05 1087.45 1356.25 1086.76 1356.11 1083.99C1355.63 1073.93 1358.65 1063.37 1359.3 1053.29C1348.05 1067.38 1340.01 1083.78 1328.59 1097.6C1328.61 1090.89 1328.36 1084.08 1329.02 1077.4L1326.1 1079.06C1324.32 1077.02 1323.6 1075.63 1323.04 1073.04C1322.11 1068.81 1320.84 1064.76 1319.55 1060.64L1317.13 1059.53C1312.48 1048.27 1311.26 1035.28 1308.13 1023.45C1305.31 1012.8 1301.42 1001.99 1299.66 991.12C1295.24 963.86 1306.62 937.63 1315.64 912.53C1319.47 901.85 1323.74 890.09 1323.86 878.62L1322.81 878.41C1319.09 873.85 1325.16 863.38 1324.34 857.45C1324.28 856.96 1324.13 856.5 1324.02 856.02C1324.53 855.43 1325.15 854.91 1325.55 854.24C1327.1 851.67 1327.2 850.28 1329.52 847.87L1330.3 847.07L1329.66 844.43L1326.52 844.95C1326.18 843.72 1326.81 842.56 1327.14 841.34C1331.14 838.14 1333.96 835.74 1335.26 830.52C1333.29 832.35 1332.76 833.06 1330.07 833.67L1329.64 832.5C1330.75 828.74 1331.6 822.87 1334.37 820.1L1336.26 821.76L1337.35 821.63C1339.62 809.77 1340.32 791.77 1338.31 779.91C1335.9 779.28 1337.17 779.69 1334.52 778.61C1333 768.01 1321.3 708.318 1322.94 703.206C1323.09 702.745 1323.36 702.333 1323.57 701.896C1314.79 680.097 1319.49 644.337 1314.1 621.246C1310.9 607.54 1306.82 594.019 1303.66 580.374C1302.9 577.089 1303.21 576.071 1304.86 573.174L1303.99 570.75L1300.41 569.186C1298.67 564.294 1294.35 555.965 1295.06 550.995L1296.75 552.744L1297.55 551.376L1297.05 549.561L1294.44 549.751L1295.01 549.123L1293.44 549.639C1292.51 545.505 1293.3 544.905 1295.04 541.18C1294.16 538.662 1293.73 537.567 1291.62 535.806C1290.99 535.28 1290.31 534.813 1289.68 534.285C1282.79 528.498 1268.25 493.376 1267.2 483.445C1267.15 482.966 1267.11 482.485 1267.07 482.004C1266.22 483.566 1266.29 484.101 1264.63 484.893C1262.73 483.123 1261.8 482.296 1261.07 479.741C1256.58 464.044 1235.19 443.853 1232.79 430.491C1232.23 427.357 1230.65 426.768 1228.24 424.921C1222.28 420.349 1214.45 410.254 1211.05 403.512C1209.15 399.734 1209.44 394.891 1207.16 391.324C1205.14 388.153 1202.68 386.635 1199.11 386.028C1196.42 385.569 1194.49 385.302 1192.3 383.412C1188.61 380.238 1185.42 375.831 1181.99 372.325C1173.45 363.577 1164.53 355.211 1155.25 347.253C1156.11 346.176 1156.82 345.039 1157.57 343.885C1151.65 336.607 1140.37 335.176 1134.61 328.72C1134.27 328.342 1134.02 327.893 1133.72 327.486C1133.34 326.982 1132.95 326.492 1132.57 325.989C1132.28 325.599 1132 325.203 1131.71 324.809C1128.67 326.348 1128.38 326.864 1125.05 325.808C1123.64 325.357 1122.28 324.7 1120.92 324.107L1119.23 323.381C1108.92 318.852 1098.63 313.112 1088.93 307.387C1085 305.064 1080.32 301.1 1076.03 299.677C1071.8 298.271 1064.31 301.832 1058.02 300.72C1045.48 298.502 1033.95 293.707 1021.07 292.459C1010.1 291.396 998.54 292.294 987.53 292.688C937.97 294.459 887.289 300.593 840.646 318.153C838.401 318.998 837.464 322.293 835.867 322.874C826.761 326.186 813.912 323.939 803.966 330.312C797.764 334.286 794.144 341.986 787.844 345.271C788.227 343.102 788.639 341.013 789.167 338.871L788.34 338.186L788.948 340.088L786.757 339.363C783.028 343.248 780.72 347.144 778.256 351.912L775.834 348.551L774.275 348.48C774.097 349.297 773.93 350.117 773.742 350.931C773.186 353.34 772.652 354.434 770.739 356.093L768.398 356.263L768.227 354.446L771.61 352.038C766.315 353.955 760.491 355.724 756.157 359.445C751.639 363.323 749.212 373.628 744.177 375.435C740.205 376.861 737.864 373.423 734.208 377.15C733.723 380.049 734.168 381.749 731.683 383.544C731.363 383.258 731.048 382.965 730.721 382.685C729.263 381.434 729.866 381.878 728.043 380.976C715.993 385.973 704.511 402.184 698.413 413.386L696.909 410.404C697.456 410.035 698.024 409.695 698.549 409.296C700.755 407.624 701.45 406.287 702.651 403.88L701.555 403.178C682.316 416.585 660.893 442.185 646.299 460.622C644.745 462.585 644.531 465.356 644.14 467.758L643.091 468.63C638.391 472.615 636.72 475.545 634.895 481.346C634.439 482.792 633.892 483.775 632.964 484.966L631.854 482.445C628.836 485.348 626.925 487.536 625.177 491.361L625.8 491.932L630.957 486.395C631.465 489.039 628.34 492.469 626.817 494.694C625.143 497.139 624.341 499.105 621.343 499.879C619.028 497.989 619.061 497.363 618.204 494.447C590.278 535.098 569.951 578.273 551.002 623.669C553.321 625.541 554.974 626.899 556.583 629.46C555.214 633.059 553.121 635.411 550.651 638.271L550.76 639.605L553.312 641.105C553.395 646.736 549.796 653.858 547.905 659.201L546.827 656.305L544.769 660.014L543.536 659.707C542.975 655.901 542.935 652.374 543.039 648.533L537.614 665.894L540.799 666.011L542.623 668.214C542.18 670.338 541.91 670.993 540.982 672.816C534.034 686.454 539.397 691.031 536.615 702.492C534.935 709.412 530.521 716.101 528.207 722.98C527.964 723.7 527.695 724.411 527.439 725.126C525.423 720.547 527.267 713.791 526.63 708.658C523.675 721.587 522.482 735.014 518.845 747.75L518.701 748.83C516.382 765.36 511.695 781.56 509.159 798.09C502.411 842.1 500.89 890.56 505.721 934.87C506.687 943.73 514.142 980.75 510.493 985.81C507.58 987.11 505.99 987.08 502.841 986.73C501.302 989.6 501.792 990.22 498.529 991.24C495.182 989.45 492.741 988.26 488.866 988.25C486.534 988.24 485.515 988.45 483.589 986.92L483.273 983.75C480.833 983.35 480.307 983.32 477.989 984.14C479.307 986.41 479.079 985.21 478.79 987.69C465.829 986.45 454.992 978.05 443.319 972.99C436.857 970.19 429.773 968.67 423.17 966.05C398.553 956.29 368.942 943.13 349.183 924.96C328.517 905.97 334.185 858.45 332.597 832.7L329.535 831.51L332.044 827.73L334.995 828.88C333.628 791.33 332.747 753.76 332.351 716.184C332.1 698.076 334.283 675.747 330.32 658.193C330.167 662.786 330.061 667.364 329.578 671.937L327.937 673.449C325.14 671.753 324.739 670.519 323.112 667.624C322.699 664.153 323.917 662.14 325.425 659.157L325.278 657.825C324.861 653.821 324.832 650.322 325.214 646.318C322.393 648.644 321.882 649.834 321.718 653.557C321.653 655.029 321.785 656.502 321.802 657.975C321.855 662.75 320.988 665.06 318.745 669.153C316.644 672.987 314.004 676.978 312.957 681.203C315.658 682.217 315.664 682.001 318.305 681.611C318.195 684.575 316.753 686.052 315.224 688.522L314.509 688.733L313.466 686.867C313.88 689.797 314.245 692.733 314.56 695.675C315.455 703.902 311.072 713.693 309.717 721.919C308.253 730.803 309.274 755.7 305.159 761.63C304.343 762.8 303.639 763.19 302.561 763.96L301.411 763.09L301.727 760.05C302.249 759.7 302.779 759.37 303.292 759.02C305.394 757.56 304.686 758.27 305.919 756.21L304.945 753.08C302.488 753.36 302.187 753.5 300.248 755.04C300.364 755.85 300.492 756.65 300.596 757.46C301.652 765.65 301.51 778.47 300.393 786.52L299.11 787.12C297.239 772.65 300.807 757.74 298.919 743.32C294.203 766.38 296.502 792.58 294.241 816.19C281.63 735.366 282.345 663.588 295.237 583.037C299.459 556.656 308.26 531.986 314.708 506.186C318.153 492.403 319.83 478.209 322.699 464.301C326.781 444.513 332.722 423.495 339.749 404.546C346.237 387.052 357.532 370.585 367.014 354.564C403.713 292.559 441.406 236.563 496.419 188.978C506.602 180.17 517.785 172.447 528.365 164.121C548.055 148.624 567.561 132.716 588.018 118.223C596.117 112.485 605.331 108.751 613.272 102.897C613.58 102.67 613.883 102.436 614.188 102.205Z" fill="#F1AF4E"/>
<path d="M946.2 285.226C988.21 280.728 1031.66 278.666 1071.44 295.477C1094.3 301.331 1111.19 308.948 1130.91 321.776L1131.71 324.809C1128.67 326.348 1128.38 326.864 1125.05 325.808C1123.64 325.357 1122.28 324.7 1120.92 324.107L1119.23 323.381C1108.92 318.852 1098.63 313.112 1088.93 307.387C1085 305.064 1080.32 301.1 1076.03 299.677C1071.8 298.271 1064.31 301.832 1058.02 300.72C1045.48 298.502 1033.95 293.707 1021.07 292.459C1010.1 291.396 998.54 292.294 987.53 292.688C937.97 294.459 887.289 300.593 840.646 318.153C838.401 318.998 837.464 322.293 835.867 322.874C826.761 326.186 813.912 323.939 803.966 330.312C797.764 334.286 794.144 341.986 787.844 345.271C788.227 343.102 788.639 341.013 789.167 338.871L788.34 338.186L788.948 340.088L786.757 339.363C783.028 343.248 780.72 347.144 778.256 351.912L775.834 348.551L774.275 348.48C774.097 349.297 773.93 350.117 773.742 350.931C773.186 353.34 772.652 354.434 770.739 356.093L768.398 356.263L768.227 354.446L771.61 352.038C766.315 353.955 760.491 355.724 756.157 359.445C751.639 363.323 749.212 373.628 744.177 375.435C740.205 376.861 737.864 373.423 734.208 377.15C733.723 380.049 734.168 381.749 731.683 383.544C731.363 383.258 731.048 382.965 730.721 382.685C729.263 381.434 729.866 381.878 728.043 380.976C715.993 385.973 704.511 402.184 698.413 413.386L696.909 410.404C697.456 410.035 698.024 409.695 698.549 409.296C700.755 407.624 701.45 406.287 702.651 403.88L701.555 403.178C682.316 416.585 660.893 442.185 646.299 460.622C644.745 462.585 644.531 465.356 644.14 467.758L643.091 468.63C638.391 472.615 636.72 475.545 634.895 481.346C634.439 482.792 633.892 483.775 632.964 484.966L631.854 482.445C628.836 485.348 626.925 487.536 625.177 491.361L625.8 491.932L630.957 486.395C631.465 489.039 628.34 492.469 626.817 494.694C625.143 497.139 624.341 499.105 621.343 499.879C619.028 497.989 619.061 497.363 618.204 494.447C629.015 477.787 640.718 461.051 653.107 445.532C696.246 391.495 785.892 328.139 850.822 305.167C880.442 294.688 914.94 288.736 946.2 285.226Z" fill="#1D191B"/>
<path d="M1130.91 321.776C1215.63 374.634 1275.37 472.035 1306.44 565.346C1310.74 578.255 1315.56 591.294 1318.61 604.558C1326.39 638.457 1326.4 674.493 1330.65 708.999C1334.6 741.13 1344.83 771.99 1342.5 804.74C1340.69 830.08 1331.1 854.47 1323.86 878.62L1322.81 878.41C1319.09 873.85 1325.16 863.38 1324.34 857.45C1324.28 856.96 1324.13 856.5 1324.02 856.02C1324.53 855.43 1325.15 854.91 1325.55 854.24C1327.1 851.67 1327.2 850.28 1329.52 847.87L1330.3 847.07L1329.66 844.43L1326.52 844.95C1326.18 843.72 1326.81 842.56 1327.14 841.34C1331.14 838.14 1333.96 835.74 1335.26 830.52C1333.29 832.35 1332.76 833.06 1330.07 833.67L1329.64 832.5C1330.75 828.74 1331.6 822.87 1334.37 820.1L1336.26 821.76L1337.35 821.63C1339.62 809.77 1340.32 791.77 1338.31 779.91C1335.9 779.28 1337.17 779.69 1334.52 778.61C1333 768.01 1321.3 708.318 1322.94 703.206C1323.09 702.745 1323.36 702.333 1323.57 701.896C1314.79 680.097 1319.49 644.337 1314.1 621.246C1310.9 607.54 1306.82 594.019 1303.66 580.374C1302.9 577.089 1303.21 576.071 1304.86 573.174L1303.99 570.75L1300.41 569.186C1298.67 564.294 1294.35 555.965 1295.06 550.995L1296.75 552.744L1297.55 551.376L1297.05 549.561L1294.44 549.751L1295.01 549.123L1293.44 549.639C1292.51 545.505 1293.3 544.905 1295.04 541.18C1294.16 538.662 1293.73 537.567 1291.62 535.806C1290.99 535.28 1290.31 534.813 1289.68 534.285C1282.79 528.498 1268.25 493.376 1267.2 483.445C1267.15 482.966 1267.11 482.485 1267.07 482.004C1266.22 483.566 1266.29 484.101 1264.63 484.893C1262.73 483.123 1261.8 482.296 1261.07 479.741C1256.58 464.044 1235.19 443.853 1232.79 430.491C1232.23 427.357 1230.65 426.768 1228.24 424.921C1222.28 420.349 1214.45 410.254 1211.05 403.512C1209.15 399.734 1209.44 394.891 1207.16 391.324C1205.14 388.153 1202.68 386.635 1199.11 386.028C1196.42 385.569 1194.49 385.302 1192.3 383.412C1188.61 380.238 1185.42 375.831 1181.99 372.325C1173.45 363.577 1164.53 355.211 1155.25 347.253C1156.11 346.176 1156.82 345.039 1157.57 343.885C1151.65 336.607 1140.37 335.176 1134.61 328.72C1134.27 328.342 1134.02 327.893 1133.72 327.486C1133.34 326.982 1132.95 326.492 1132.57 325.989C1132.28 325.599 1132 325.203 1131.71 324.809L1130.91 321.776Z" fill="#1D191B"/>
<path d="M614.188 102.205L611.615 99.582C622.103 89.625 693.542 55.488 710.022 52.763C719.961 51.12 725.955 43.034 735.55 41.766C748.057 40.113 750.32 47.45 765.73 41.715C765.158 41.148 764.692 40.448 764.013 40.014C763.35 39.588 762.535 39.467 761.796 39.194C856.044 17.351 943.82 18.872 1038.9 34.817C1047.36 36.236 1055.56 38.673 1063.97 40.223C1079.76 43.132 1099.82 41.795 1114.38 48.935L1113.25 50.812L1115.16 51.793C1117.32 51.281 1120.43 50.166 1122.65 50.619C1133.09 52.744 1141.23 58.463 1152.59 59.779C1154.43 59.992 1155.61 60.195 1157.45 60.75C1167.63 63.825 1179.45 64.29 1189.12 68.552C1190.89 69.335 1192.32 69.891 1194.26 70.189C1194.89 70.286 1195.53 70.362 1196.16 70.449L1192.87 73.395C1181 70.264 1168.69 67.42 1156.56 65.522C1117.34 54.124 1078.93 49.143 1038.76 42.793C1006.24 37.653 971.06 30.657 938.07 31.121C884.685 24.801 819.345 36.154 766.405 45.142C748.725 48.144 730.285 50.454 713.224 56.076C696.52 61.58 678.412 67.923 662.579 75.59C646.107 83.568 630.327 93.514 614.188 102.205Z" fill="#1D191B"/>
<path d="M1518.11 330.179L1518.75 326.802L1520.32 326.603C1520.56 327.187 1520.76 327.793 1521.05 328.355C1525.15 336.334 1530.78 344.46 1535.72 352.009L1536.7 351.039L1535.44 346.691L1536.48 346.183C1544.89 353.995 1541.97 367.369 1548.76 374.512L1549.63 371.107C1551.71 372.934 1551.59 372.383 1552.28 375.348C1555.25 388.159 1570.33 403.148 1566.79 416.195C1569.06 417.566 1571.05 415.339 1571.46 417.838C1571.96 420.932 1570.89 424.007 1570.13 426.987C1571.74 430.539 1574.07 430.778 1577.6 432.31C1577.51 437.854 1576.58 444.668 1578.97 449.753C1580.7 449.129 1579.93 449.688 1581.04 447.801C1585.27 452.117 1588.07 464.166 1590.36 470.022C1594.95 481.81 1601.12 493.263 1605.09 505.247C1614.22 532.836 1627.73 605.813 1627.34 634.724C1627.31 637.132 1627.17 639.537 1626.93 641.932L1625.6 639.26L1624.45 640.33C1624.33 644.877 1623.04 651.476 1625.45 655.266L1628.23 649.29C1628.56 651.613 1628.26 653.181 1627.96 655.506C1626.87 663.99 1627.87 672.897 1627.84 681.482C1627.8 694.114 1626.59 706.834 1626.77 719.398C1627 735.327 1629.42 751.2 1628.24 767.14C1627.64 775.26 1620.82 797.69 1622.96 802.74C1622.95 802.39 1622.93 802.04 1622.93 801.69C1622.93 801.26 1622.97 800.84 1622.96 800.42C1622.87 792.76 1621.97 784.9 1621.41 777.24C1620.77 764.09 1622.18 750.14 1622.5 736.911C1623.03 714.925 1622.78 692.927 1621.74 670.96C1619.68 626.9 1613.75 585.129 1604.44 542.052C1601.73 529.513 1599.49 516.568 1595.53 504.363C1591.02 490.452 1583.91 477.428 1578.99 463.646C1575.26 453.178 1572.43 442.389 1568.48 431.993C1554.8 396.602 1537.94 362.524 1518.11 330.179Z" fill="#1D191B"/>
<path d="M502.841 986.73C501.302 989.6 501.792 990.22 498.529 991.24C495.182 989.45 492.741 988.26 488.866 988.25C486.534 988.24 485.515 988.45 483.589 986.92L483.273 983.75C480.833 983.35 480.307 983.32 477.989 984.14C479.307 986.41 479.079 985.21 478.79 987.69C465.829 986.45 454.992 978.05 443.319 972.99C436.857 970.19 429.773 968.67 423.17 966.05C398.553 956.29 368.942 943.13 349.183 924.96C328.517 905.97 334.185 858.45 332.597 832.7L329.535 831.51L332.044 827.73L334.995 828.88C335.431 833.09 335.705 837.4 336.41 841.57C337.875 874.93 333.896 899.5 360.556 923.85C375.893 937.86 393.331 942 411.354 950.94C423.553 960.11 438.216 964.25 452.769 968C469.302 974.92 485.589 981.76 502.841 986.73Z" fill="#1D191B"/>
<path d="M938.07 31.1211C971.06 30.6571 1006.24 37.6531 1038.76 42.7931C1078.93 49.1431 1117.34 54.1241 1156.56 65.5221C1154.59 66.9591 1154.02 67.4461 1151.54 67.3161C1144.39 66.9401 1136.36 64.5681 1129.24 63.3231C1109.79 59.9271 1090.17 55.996 1070.52 54.076L1069.69 52.9441C1073.04 52.9081 1076.66 53.3391 1079.64 51.5991C1073.99 50.7401 1066.7 53.5461 1061.46 52.2461C1056.14 50.9281 1056.11 46.9811 1049.59 48.1401C1036 50.5561 988.29 39.9021 971.41 37.6911C954.94 35.5331 938.02 35.9771 921.46 34.1311L924.36 32.4L920.74 33.472C925.15 30.879 933.03 31.4671 938.07 31.1211Z" fill="#FCB756"/>
<path d="M298.919 743.32C297.042 714.403 316.28 652.449 327.29 623.572C328.798 635.013 329.384 646.688 330.32 658.193C330.167 662.786 330.061 667.364 329.578 671.937L327.937 673.449C325.14 671.753 324.739 670.519 323.112 667.624C322.699 664.153 323.917 662.14 325.425 659.157L325.278 657.825C324.861 653.821 324.832 650.322 325.214 646.318C322.393 648.644 321.882 649.834 321.718 653.557C321.653 655.029 321.785 656.502 321.802 657.975C321.855 662.75 320.988 665.06 318.745 669.153C316.644 672.987 314.004 676.978 312.957 681.203C315.658 682.217 315.664 682.001 318.305 681.611C318.195 684.575 316.753 686.052 315.224 688.522L314.509 688.733L313.466 686.867C313.88 689.797 314.245 692.733 314.56 695.675C315.455 703.902 311.072 713.693 309.717 721.919C308.253 730.803 309.274 755.7 305.159 761.63C304.343 762.8 303.639 763.19 302.561 763.96L301.411 763.09L301.727 760.05C302.249 759.7 302.779 759.37 303.292 759.02C305.394 757.56 304.686 758.27 305.919 756.21L304.945 753.08C302.488 753.36 302.187 753.5 300.248 755.04C300.364 755.85 300.492 756.65 300.596 757.46C301.652 765.65 301.51 778.47 300.393 786.52L299.11 787.12C297.239 772.65 300.807 757.74 298.919 743.32Z" fill="#1D191B"/>
<path d="M537.614 665.894L540.799 666.011L542.623 668.214C542.18 670.338 541.91 670.993 540.982 672.816C534.034 686.454 539.397 691.031 536.615 702.492C534.935 709.412 530.521 716.101 528.207 722.98C527.964 723.7 527.695 724.411 527.439 725.126C525.423 720.547 527.267 713.791 526.63 708.658C528.406 694.246 533.49 679.787 537.614 665.894Z" fill="#1D191B"/>
<path d="M1319.55 1060.64C1324.05 1051.26 1328.54 1042.03 1334.42 1033.41C1332.76 1048.09 1330.96 1062.76 1329.02 1077.4L1326.1 1079.06C1324.32 1077.02 1323.6 1075.63 1323.04 1073.04C1322.11 1068.81 1320.84 1064.76 1319.55 1060.64Z" fill="#1D191B"/>
<path d="M551.002 623.669C553.321 625.541 554.974 626.899 556.583 629.46C555.214 633.059 553.121 635.411 550.651 638.271L550.76 639.605L553.312 641.105C553.395 646.736 549.796 653.858 547.905 659.201L546.827 656.305L544.769 660.014L543.536 659.707C542.975 655.901 542.935 652.374 543.039 648.533C544.869 639.889 547.866 631.91 551.002 623.669Z" fill="#1D191B"/>
<path d="M1374.11 654.794L1381.51 655.085C1390.23 660.892 1380.3 673.12 1387.55 678.829C1395.06 684.744 1406.79 677.772 1414.58 686.622C1415.85 691.957 1414.49 698.53 1411.36 703.111C1409.32 706.087 1404.55 706.6 1401.24 707.378C1393.73 707.71 1385.46 707.482 1378.66 703.914C1368.14 698.393 1364.25 688.31 1361.16 677.543C1363.27 667.49 1365.77 661.166 1374.11 654.794Z" fill="#1D191B"/>
<path d="M1401.74 686.923C1403.81 686.84 1405.69 686.834 1407.76 687.078C1410.23 687.369 1409.2 686.922 1410.93 689.139C1410.31 692.652 1408.05 694.624 1405.74 697.144C1403.6 697.538 1401.87 697.448 1399.71 697.349C1397.54 695.142 1397.4 694.943 1396.89 691.898C1398.39 688.402 1398.27 688.482 1401.74 686.923Z" fill="#282220"/>
<path d="M432.934 711.733C435.236 712.819 436.621 713.593 438.386 715.494C443.419 720.915 445.544 729.334 444.453 736.531C443.11 745.26 438.221 753.05 430.94 758.05C423.896 762.99 418.434 763.77 410.165 762.23C404.768 758.49 398.558 753.96 396.467 747.47C399.544 737.38 415.936 742.9 422.627 736.908C426.195 733.714 427.743 718.756 432.934 711.733Z" fill="#1D191B"/>
<path d="M1315.21 315.437C1321.02 315.124 1328.92 317.282 1333.36 321.251C1334.86 322.584 1334.41 323.664 1334.51 325.512C1332.28 328.211 1328.6 328.603 1325.36 329.454C1319.43 338.143 1318.87 350.297 1312.3 358.001C1309.05 359.469 1307.85 360.184 1304.19 359.415C1299.78 358.488 1295.75 353.856 1293.98 349.944C1291.68 344.846 1291.68 338.996 1293.67 333.799C1297.62 323.481 1305.73 319.457 1315.21 315.437Z" fill="#1D191B"/>
<path d="M1315.21 315.437C1321.02 315.124 1328.92 317.282 1333.36 321.251C1334.86 322.584 1334.41 323.664 1334.51 325.512C1332.28 328.211 1328.6 328.603 1325.36 329.454C1321.19 328.85 1318.74 318.841 1315.21 315.437Z" fill="#282220"/>
<path d="M1016.66 97.071L1021.53 97.53C1024.64 99.82 1024.79 102.242 1025.96 105.674C1031.21 121.054 1055.84 106.392 1066.1 111.539L1066.64 114.25C1065.06 118.846 1062.29 121.931 1059.22 125.63C1055.07 128.594 1051.24 130.889 1046.07 131.492C1036.82 132.574 1026.5 128.24 1019.56 122.32C1015.08 118.494 1011.85 113.4 1011.57 107.402C1011.34 102.485 1013.49 100.357 1016.66 97.071Z" fill="#1D191B"/>
<path d="M474.677 449.343C480.32 455.401 478.082 465.948 483.349 473.069C496.588 480.396 505.489 462.525 517.589 460.552C519.524 460.237 519.875 461.02 521.334 462.051C523.279 467.187 521.921 472.386 521.174 477.683C518.724 481.168 516.558 482.819 512.644 484.464C502.968 488.532 492.873 490.669 482.824 486.416C477.272 484.067 473.018 479.755 470.871 474.116C467.378 464.941 470.785 457.583 474.677 449.343Z" fill="#282220"/>
<path d="M690.769 236.179C696.83 228.863 705.065 224.68 714.561 223.81C720.267 223.287 727.896 223.409 732.691 227.049C736.934 230.269 737.661 237.538 737.699 242.513C737.722 245.534 737.474 247.723 735.838 250.343C733.948 250.919 734.053 251.361 732.527 250.501C725.848 246.738 724.38 234.666 714.043 235.242C708.998 235.524 704.513 241.528 701.994 245.313C700.505 247.552 699.677 250.16 698.774 252.667C698.305 255.606 698.194 255.269 696.346 257.276C694.57 257.345 693.602 257.708 692.005 256.715C689.358 255.068 687.459 251.886 686.936 248.808C686.125 244.043 688.328 240.05 690.769 236.179Z" fill="#1D191B"/>
<path d="M690.769 236.179C693.572 235.37 696.327 234.475 699.235 234.136C699.083 234.711 698.923 235.283 698.779 235.859C697.254 241.946 697.704 244.729 698.599 250.66C698.7 251.324 698.715 251.998 698.774 252.667C698.305 255.606 698.194 255.269 696.346 257.276C694.57 257.345 693.602 257.708 692.005 256.715C689.358 255.068 687.459 251.886 686.936 248.808C686.125 244.043 688.328 240.05 690.769 236.179Z" fill="#282220"/>
<path d="M1453.97 475.032C1458.43 474.455 1464.01 473.794 1468.17 475.766C1470.04 476.65 1469.93 477.57 1470.64 479.338C1467.51 484.747 1460.09 484.439 1457.52 490.015C1458.11 497.258 1463.09 498.446 1465.85 504.204C1467.71 508.067 1466.58 510.093 1465.55 513.894C1462.85 514.349 1460.6 514.571 1457.88 514.135C1452.19 513.226 1446.74 510.61 1443.5 505.689C1440.37 500.937 1439.73 494.887 1441.23 489.453C1443.21 482.272 1447.73 478.574 1453.97 475.032Z" fill="#1D191B"/>
<path d="M883.871 146.725C888.503 148.806 890.964 151.017 893.117 155.699C895.91 161.78 895.9 168.378 893.382 174.543C891.083 180.176 888.053 182.135 882.637 184.558C877.756 184.319 874.564 184.33 871.131 180.547C870.816 174.861 876.999 168.989 878.967 163.615C881.208 157.492 879.881 152.547 883.871 146.725Z" fill="#282220"/>
<path d="M480.644 252.144C485.059 252.285 489.536 252.405 492.88 255.743C494.822 257.682 495.608 260.292 495.55 262.989C495.352 272.178 488.363 279.063 482.401 285.18C479.339 286.833 478.311 287.982 474.801 287.462C472.592 283.396 474.136 277.331 475.159 273.049C476.856 265.945 477.107 258.636 480.644 252.144Z" fill="#1D191B"/>
<path d="M1631.72 377.723L1629.23 374.797L1629.53 372.94C1646.57 371.317 1676.68 372.639 1693.41 376.245C1701.09 377.054 1708.68 378.174 1716.3 379.395L1718.6 376.706C1722.02 376.79 1725.08 377.091 1728.45 377.716C1736.09 379.128 1802.02 391.077 1802.26 391.036C1804.2 390.698 1807.07 387.774 1808.91 387.734C1811.87 387.671 1835.75 398.481 1840.11 400.32C1836.25 401.244 1833.29 400.842 1829.44 400.297C1830.46 402.307 1830.81 402.527 1832.59 403.743L1831.81 404.142L1829.04 402.497L1827.78 404.325L1824.88 403.777C1853.09 414.184 1881.79 424.248 1908.56 438.099C1941.88 455.344 1982.16 481.798 2012.01 505.046C2063.81 545.373 2133.33 612.466 2173.38 664.015C2197.03 694.447 2216.13 727.421 2238.07 758.92L2247.32 776.36C2260.09 805.79 2276.4 832.59 2286.44 863.31L2286.79 856.29L2288.5 854.77C2293.47 858.21 2294.29 866.02 2295.35 871.75C2296.52 878.08 2298.65 886.75 2295.89 892.39C2303.38 923.23 2306.33 954.88 2310.13 986.34C2317.76 1049.47 2323.29 1128.83 2311.59 1191.51C2305.97 1221.62 2296.45 1250 2288.44 1279.42C2285.32 1290.86 2283.27 1302.62 2279.77 1313.95C2275.61 1327.45 2270.01 1340.64 2265.07 1353.87C2255.61 1379.18 2246.31 1403.95 2234.32 1428.25C2222.69 1451.8 2208.14 1474.63 2194.47 1497.06C2163.69 1548.38 2125.55 1594.9 2081.26 1635.15C2067.65 1647.41 2052.31 1657.57 2038.66 1669.71C2026.39 1680.63 2014.59 1696.27 2000.13 1704.14L1998.83 1701.67C1992.09 1698.98 1989.43 1698.5 1982.86 1701.06C1993.02 1686.96 2019.56 1666.67 2024.19 1651.23L2022.88 1650.39C2015.4 1653.35 2009.04 1658.99 2002.35 1663.37C1979.17 1678.56 1959.09 1693.96 1932.58 1702.93C1944.64 1690.41 1955.62 1676.37 1966.94 1663.15C1925.23 1672.1 1905.61 1699.33 1856.56 1699.69C1848.94 1699.75 1840.5 1695.63 1833.97 1691.94C1825.6 1687.21 1818.06 1680.69 1810.24 1675.08C1791.52 1661.85 1772.99 1648.36 1754.66 1634.59C1728.87 1615.59 1701.29 1598.8 1677.77 1576.89C1698.19 1567.45 1719.96 1560.84 1740.54 1551.65C1813.04 1519.28 1835.87 1482.53 1883.47 1423.59C1903.64 1398.61 1926.91 1375.11 1941.81 1346.39C1949.13 1334.08 1956.64 1322.12 1962.82 1309.17L1969.22 1290.06C1967.16 1288.89 1967.02 1289.11 1965.84 1286.87C1965.88 1281.03 1970.58 1275.02 1973.58 1270.11C1970.88 1256.82 1976.75 1243.99 1979.49 1230.9C1980.23 1231.59 1980.97 1232.28 1981.71 1232.97C1983.85 1214.78 1986.8 1196.69 1990.57 1178.77C1991.93 1172.49 1994.28 1166.45 1995.54 1160.19C1996.59 1155 2000.04 1133.82 1998.93 1129.53C1997.84 1125.29 1994.81 1122.22 1994.49 1117.55L1997.12 1119.7C1997.92 1117.57 1998.45 1115.61 1998.86 1113.37C1996.57 1111.45 1995.08 1110.39 1993.98 1107.52L1995.19 1105.94C1996.5 1107.64 1996.79 1108.9 1998.96 1109.36C2000.08 1096.9 1994.97 1087.3 1994.27 1075.5L1996.43 1075.93L1997.99 1074.79C1998.57 1062.79 1993.5 1054.37 1992.34 1043.54C1991.52 1035.86 1992.99 1027.48 1992.68 1019.61L1989.15 1030.7L1987.82 1031.21C1987.84 1029.79 1987.82 1028.34 1987.91 1026.91C1988.1 1023.76 1988.36 1020.89 1987.97 1017.71C1987.01 1010.09 1984.64 1002.86 1983.28 995.33C1981.75 986.88 1981.85 977.8 1981.33 969.22C1981.17 966.58 1981.05 964.26 1980.17 961.72C1977.22 953.18 1970.93 930.51 1972.51 922.15L1975.71 919.99C1970.2 896.37 1930.72 811.28 1913.58 794.59L1912.39 795.2C1910.26 794.88 1907.28 794.66 1905.42 793.43C1897.23 788.06 1888.1 768.56 1873.64 758.82C1873.17 758.49 1872.66 758.22 1872.22 757.85C1871.69 755.06 1871.64 756.19 1872.19 753.36C1872.32 752.69 1872.48 752.02 1872.63 751.36C1864.19 745.71 1850.6 736.379 1844.39 728.441C1842 725.394 1842.55 723.631 1843.21 720.038L1841.41 715.372L1842.62 713.315C1845.02 712.893 1846.85 712.705 1849 711.526C1842.19 701.697 1829.62 695.462 1821.92 685.863L1822.42 684.636C1847.8 694.447 1869.8 710.146 1894.94 720.697C1868.87 703.012 1848.78 678.411 1823.24 660.524C1838.67 662.046 1853.87 664.244 1869.17 666.744C1859.2 656.606 1841.32 645.862 1834.91 633.549L1836.17 632.396C1844.4 633.264 1853.57 638.657 1861.61 641.208C1885.73 648.858 1910.05 654.439 1934.02 663.039C1924.27 653.171 1912.09 647.715 1900.5 640.499C1879.66 627.534 1859.35 613.846 1838.7 600.625C1822.36 590.163 1800.31 580.253 1787.25 565.775C1796.34 569.192 1805.62 573.797 1815.18 575.551C1815.45 575.103 1815.64 574.583 1816.01 574.208C1822.17 567.956 1838.84 584.93 1845.73 584.322C1830.16 571 1816.18 556.102 1800.99 542.342C1792.61 534.753 1783.16 528.487 1774.79 520.953L1778.21 520.737L1778.82 519.306C1769.91 510.327 1761.79 499.214 1752.44 491.019C1740.65 480.689 1727.74 473.941 1716.6 462.301L1716.24 459.923L1715.23 459.938L1715.49 460.849L1715.99 459.868C1718.67 461.023 1719.85 461.784 1722.79 461.736C1719.54 460.808 1718.49 458.996 1716.21 456.616L1714.88 458.904C1711.56 457.933 1705.2 444.006 1700.55 440.23C1702.08 442.913 1702.89 443.709 1702.95 446.849C1695.37 443.167 1676.54 422.361 1668.76 415.44L1669.71 411.969C1667.47 409.569 1665.55 407.897 1662.75 406.095L1662.04 408.216C1659.18 408.136 1657.19 406.078 1654.85 404.496L1657.7 403.826C1657.22 400.777 1654.62 398.927 1652.56 396.678L1650.81 396.751C1651.6 398.731 1651.41 397.605 1651.03 400.17L1648.57 400.157C1644.73 397.387 1637.53 392.231 1636.36 387.661L1637.85 386.262L1637.39 387.389L1638.34 386.916C1636.1 384.972 1634.37 383.487 1631.55 382.463C1630.84 382.206 1630.12 381.969 1629.41 381.722L1628.79 379.667L1631.72 377.723Z" fill="#F1AF4E"/>
<path d="M1969.22 1290.06C1967.16 1288.89 1967.02 1289.11 1965.84 1286.87C1965.88 1281.03 1970.58 1275.02 1973.58 1270.11C1970.88 1256.82 1976.75 1243.99 1979.49 1230.9C1980.23 1231.59 1980.97 1232.28 1981.71 1232.97C1983.85 1214.78 1986.8 1196.69 1990.57 1178.77C1991.93 1172.49 1994.28 1166.45 1995.54 1160.19C1996.59 1155 2000.04 1133.82 1998.93 1129.53C1997.84 1125.29 1994.81 1122.22 1994.49 1117.55L1997.12 1119.7C1997.92 1117.57 1998.45 1115.61 1998.86 1113.37C1996.57 1111.45 1995.08 1110.39 1993.98 1107.52L1995.19 1105.94C1996.5 1107.64 1996.79 1108.9 1998.96 1109.36C2000.08 1096.9 1994.97 1087.3 1994.27 1075.5L1996.43 1075.93L1997.99 1074.79C1998.57 1062.79 1993.5 1054.37 1992.34 1043.54C1991.52 1035.86 1992.99 1027.48 1992.68 1019.61L1989.15 1030.7L1987.82 1031.21C1987.84 1029.79 1987.82 1028.34 1987.91 1026.91C1988.1 1023.76 1988.36 1020.89 1987.97 1017.71C1987.01 1010.09 1984.64 1002.86 1983.28 995.33C1981.75 986.88 1981.85 977.8 1981.33 969.22C1981.17 966.58 1981.05 964.26 1980.17 961.72C1977.22 953.18 1970.93 930.51 1972.51 922.15L1975.71 919.99C1982.88 939.62 1985.38 961.81 1989 982.35C2005.16 1074.01 2008.96 1135.97 1987.92 1227.44C1983.1 1248.38 1978.99 1269.31 1969.79 1288.89C1969.6 1289.28 1969.41 1289.67 1969.22 1290.06Z" fill="#1D191B"/>
<path d="M1631.72 377.723C1666.49 400.539 1697.02 431.484 1726.42 460.687C1771.59 505.551 1817.08 554.67 1863.6 597.614C1847.08 591.124 1831.18 583.195 1815.18 575.551C1815.45 575.103 1815.64 574.583 1816.01 574.208C1822.17 567.956 1838.84 584.93 1845.73 584.322C1830.16 571 1816.18 556.102 1800.99 542.342C1792.61 534.753 1783.16 528.487 1774.79 520.953L1778.21 520.737L1778.82 519.306C1769.91 510.327 1761.79 499.214 1752.44 491.019C1740.65 480.689 1727.74 473.941 1716.6 462.301L1716.24 459.923L1715.23 459.938L1715.49 460.849L1715.99 459.868C1718.67 461.023 1719.85 461.784 1722.79 461.736C1719.54 460.808 1718.49 458.996 1716.21 456.616L1714.88 458.904C1711.56 457.933 1705.2 444.006 1700.55 440.23C1702.08 442.913 1702.89 443.709 1702.95 446.849C1695.37 443.167 1676.54 422.361 1668.76 415.44L1669.71 411.969C1667.47 409.569 1665.55 407.897 1662.75 406.095L1662.04 408.216C1659.18 408.136 1657.19 406.078 1654.85 404.496L1657.7 403.826C1657.22 400.777 1654.62 398.927 1652.56 396.678L1650.81 396.751C1651.6 398.731 1651.41 397.605 1651.03 400.17L1648.57 400.157C1644.73 397.387 1637.53 392.231 1636.36 387.661L1637.85 386.262L1637.39 387.389L1638.34 386.916C1636.1 384.972 1634.37 383.487 1631.55 382.463C1630.84 382.206 1630.12 381.969 1629.41 381.722L1628.79 379.667L1631.72 377.723Z" fill="#1D191B"/>
<path d="M1716.3 379.395L1718.6 376.706C1722.02 376.79 1725.08 377.091 1728.45 377.716C1736.09 379.128 1802.02 391.077 1802.26 391.036C1804.2 390.698 1807.07 387.774 1808.91 387.734C1811.87 387.671 1835.75 398.481 1840.11 400.32C1836.25 401.244 1833.29 400.842 1829.44 400.297C1830.46 402.307 1830.81 402.527 1832.59 403.743L1831.81 404.142L1829.04 402.497L1827.78 404.325L1824.88 403.777C1804.18 392.772 1779.44 389.703 1756.52 386.644C1743.09 384.333 1729.69 381.917 1716.3 379.395Z" fill="#1D191B"/>
<path d="M1843.21 720.038C1866.97 744.39 1895.56 765.04 1913.58 794.59L1912.39 795.2C1910.26 794.88 1907.28 794.66 1905.42 793.43C1897.23 788.06 1888.1 768.56 1873.64 758.82C1873.17 758.49 1872.66 758.22 1872.22 757.85C1871.69 755.06 1871.64 756.19 1872.19 753.36C1872.32 752.69 1872.48 752.02 1872.63 751.36C1864.19 745.71 1850.6 736.379 1844.39 728.441C1842 725.394 1842.55 723.631 1843.21 720.038Z" fill="#1D191B"/>
<path d="M1693.41 376.245C1701.09 377.054 1708.68 378.174 1716.3 379.395C1729.69 381.917 1743.09 384.333 1756.52 386.644C1754.66 387.969 1752.69 388.931 1750.5 389.57C1739.07 392.893 1736.69 386.135 1727.19 384.636C1709.92 381.913 1687.99 385.998 1671.87 377.692C1677.59 375.551 1687.15 376.566 1693.41 376.245Z" fill="#FCB756"/>
<path d="M2286.44 863.31L2286.79 856.29L2288.5 854.77C2293.47 858.21 2294.29 866.02 2295.35 871.75C2296.52 878.08 2298.65 886.75 2295.89 892.39C2291.96 883.2 2289.47 872.86 2286.44 863.31Z" fill="#1D191B"/>
<path d="M2262.13 1198.42C2265.58 1200.64 2268.44 1203.62 2269.75 1207.62C2270.8 1210.86 2270.24 1213.45 2268.75 1216.45C2265.71 1222.57 2257.6 1227.14 2251.35 1229.13C2240.51 1232.57 2230.47 1230.62 2220.49 1225.66C2217.53 1222.8 2215.46 1220.07 2213.4 1216.48C2211.22 1212.69 2211.28 1212.95 2212.39 1208.74C2223.74 1204.19 2237.83 1214.9 2249.14 1212.24C2254.27 1211.03 2259.2 1202.48 2262.13 1198.42Z" fill="#1D191B"/>
<path d="M2081.52 1224.66C2087.6 1224.33 2092.13 1225.67 2097.49 1228.59C2105.38 1232.89 2110.32 1239.78 2112.49 1248.48C2115.7 1261.38 2111.15 1272.3 2104.81 1283.23C2102.75 1285.07 2103.36 1285.18 2100.32 1285.16C2093.37 1277.83 2099.79 1259.75 2095.57 1250.49C2091.84 1242.29 2080.91 1241.53 2077.51 1234.01C2077.55 1229.94 2079.29 1227.84 2081.52 1224.66Z" fill="#1D191B"/>
<path d="M1811.52 1571.69C1816.65 1573.1 1817.54 1575.72 1820.2 1579.93C1836.07 1605.03 1848.2 1593.72 1862.81 1602.57C1860.28 1605.2 1857.76 1605.34 1854.33 1606.33C1841.16 1609.9 1827.02 1611.39 1814.65 1604.06C1810.43 1601.57 1807.22 1597.96 1806.17 1593.1C1804.77 1586.58 1808.02 1577.16 1811.52 1571.69Z" fill="#1D191B"/>
<path d="M2158.97 749.6C2161.64 749.95 2163.74 750.12 2166.02 751.73C2170.01 754.53 2172.46 759.13 2173.32 763.85C2174.53 770.48 2172.13 778.28 2168 783.51C2163.87 788.75 2159.19 789.8 2152.85 790.73C2148 789.74 2144.67 788.23 2141.2 784.7C2140.33 781.89 2139.95 780.81 2141.44 777.98C2143.34 774.37 2149.09 772.93 2152.67 771.59C2152.24 767.42 2151.64 762.86 2152.27 758.7C2152.93 754.37 2155.73 752.19 2158.97 749.6Z" fill="#1D191B"/>
<path d="M2137.49 999.28C2143.64 1002.36 2142.13 1011.37 2146.41 1016.39C2148.4 1018.71 2149.93 1019.46 2152.9 1019.89C2156.8 1020.45 2159.14 1018.54 2162.08 1016.33C2163.61 1015.18 2165.03 1013.97 2166.75 1013.1C2169.07 1011.94 2169.01 1011.85 2171.57 1012.76C2173.68 1018.23 2171.14 1024.62 2169.16 1029.82C2165.46 1032.1 2161.22 1034.16 2156.89 1034.8C2149.49 1035.89 2140.79 1034.2 2134.87 1029.45C2130.95 1026.31 2128.58 1021.88 2128.27 1016.84C2127.83 1009.67 2133.24 1004.37 2137.49 999.28Z" fill="#1D191B"/>
<path d="M1977.29 1466.79L1980.88 1467.33C1984.96 1470.71 1990.74 1475.57 1996.02 1476.52C2002.96 1477.77 2011.51 1471 2016.93 1467.22L2012.02 1481.96C2011.15 1484.22 2010.42 1487.62 2008.54 1489.2C2005.53 1491.73 2001.78 1491.97 1998 1491.77C1992.77 1491.48 1987.57 1491.55 1982.33 1491.6C1979.62 1483.61 1976.99 1475.3 1977.29 1466.79Z" fill="#1D191B"/>
<path d="M1938.77 529.366C1936.17 523.943 1936.89 516.195 1936.32 510.17C1930.89 504.306 1919.89 513.388 1912.65 510.653C1912.77 508.129 1912.86 507.782 1914.12 505.726C1917 501.023 1921.79 496.953 1927.34 495.936C1933.36 494.835 1937.43 497.369 1942.19 500.599C1946.84 505.948 1950.53 511.286 1949.84 518.736C1949.54 522.071 1947.89 525.35 1945.17 527.365C1943.37 528.698 1940.94 529.086 1938.77 529.366Z" fill="#1D191B"/>
<path d="M1942.19 500.599C1946.84 505.948 1950.53 511.286 1949.84 518.736C1949.54 522.071 1947.89 525.35 1945.17 527.365C1943.37 528.698 1940.94 529.086 1938.77 529.366C1940.1 520.829 1936.74 501.702 1936.95 501.155L1942.19 500.599Z" fill="#282220"/>
<path d="M1965.49 755.81C1972.08 758.65 1973.98 768.2 1976.53 774.42C1982.09 777.55 1991.65 778.65 1995.75 782.85C1995.26 786.43 1993.42 787.47 1990.96 790.04C1985.35 791.84 1980.4 792.68 1974.73 790.55C1969.49 788.58 1965.58 784.55 1963.57 779.36C1960.56 771.61 1962.08 763.14 1965.49 755.81Z" fill="#1D191B"/>
<path d="M2145.01 1404.82C2147.42 1407.66 2144.39 1440.67 2143.92 1446.78C2140.54 1448.4 2137 1446.95 2133.53 1446.14C2130.33 1442.96 2128.63 1440.22 2128.13 1435.63C2126.87 1423.92 2138.14 1413 2145.01 1404.82Z" fill="#1D191B"/>
<path d="M1170.5 465.904C1174.66 461.981 1178.96 458.713 1183.65 455.46C1190.94 463.816 1197.12 471.936 1201.24 482.349C1211.05 500.102 1208.22 524.352 1202.82 543.138C1190.51 585.867 1161.63 619.015 1138.85 656.045C1124.35 679.621 1107.74 712.624 1098.4 738.683C1093.61 752.07 1090.54 766.17 1086.4 779.78C1080.88 797.91 1074.83 816.03 1072.64 834.94C1069.8 859.57 1071.28 886.34 1077.83 910.26C1084.89 885.34 1088.86 859.44 1097.02 834.84C1101.86 820.24 1109.99 806.89 1115.41 792.5C1117.84 786.02 1120.84 771.12 1125.64 766.57C1128.13 768.67 1127.64 769.5 1127.92 772.69C1127.98 773.37 1127.99 774.06 1128.03 774.75L1130.53 775.19C1132.36 783.2 1127.64 790.5 1130.1 798.42C1131.79 803.83 1134.33 810.05 1132.13 815.65L1130.18 815.08L1127.81 808.52C1127.65 818.99 1129.11 831.85 1127.73 841.99C1127.12 846.44 1124.36 850.46 1124.55 854.96C1126.21 854.22 1125.21 854.8 1127.23 852.78C1131.14 857.53 1128.56 891.3 1127.58 898.98C1127.38 900.51 1126.81 901.83 1126.22 903.24L1124.63 904.04L1122.66 902.43C1122.95 909.42 1127.05 916.51 1126.48 923.08L1123.93 924.47C1123.59 932.61 1125.25 954.59 1128.1 961.83L1129.92 959.09C1129.62 958.52 1129.26 957.98 1129.02 957.38C1128.22 955.31 1128.48 956.09 1129.07 954.45C1132.12 946.06 1130.22 927.56 1136.04 921.41C1136.44 925.35 1136.47 929.16 1136.41 933.11C1138.28 926.04 1138.89 918.65 1140.8 911.55C1144.85 896.55 1151.32 882.2 1156.26 867.49C1160.62 854.53 1163.54 841.16 1168.06 828.28C1171.8 812.58 1179.82 796.55 1186.15 781.63C1183.27 802.01 1180.17 822.35 1176.83 842.66C1170.29 893.94 1169.54 928.99 1179.24 980.13C1181.83 993.81 1184.08 1007.66 1188.65 1020.85C1195.77 1041.42 1206.61 1063.62 1216.35 1083.1C1214.92 1055.29 1206.47 953.13 1212.43 933.08C1216.48 942.46 1218.93 952.08 1221.43 961.94C1221.67 958.95 1221.2 954.92 1223.19 952.67C1226.16 955.54 1229.91 958.56 1229.67 963.08C1229.49 966.36 1227.71 969.99 1226.53 973.05L1227.96 976.84L1228.7 977.05C1228.66 976.6 1228.52 976.14 1228.59 975.69C1228.64 975.29 1229.43 973.45 1229.61 973.03L1231.22 972.38C1233.97 982.94 1240.89 1014.62 1240.62 1024.15C1237.92 1023.71 1239.28 1024.11 1236.57 1022.84C1238.43 1028.78 1241.33 1034.34 1244 1039.95L1245.06 1039.8L1246.68 1035.13C1250.73 1037.41 1256.43 1055.5 1258.31 1060.24C1268.67 1086.26 1280.36 1111.53 1291.09 1137.36C1294.02 1144.41 1298.33 1151.22 1300.48 1158.52C1302.08 1163.98 1303.01 1169.99 1305.61 1175.08C1314.45 1192.42 1337.66 1219.11 1339.99 1237.81C1340.28 1240.1 1340.69 1242.83 1341.23 1245.06C1342.21 1249.04 1346.18 1250.29 1346.5 1254.85L1344.58 1257.47C1348.53 1268.51 1357.99 1278.23 1364.6 1287.79C1423.94 1373.7 1493.58 1444.68 1568.73 1516.5C1588.35 1535.25 1607.32 1555.95 1628.1 1573.34C1654.69 1595.6 1685.25 1614.38 1713.97 1633.79L1713.48 1629.72C1716.46 1629.34 1717.87 1629.84 1720.25 1631.79C1720.75 1632.2 1722.08 1633.63 1722.5 1634.04C1733.22 1644.71 1749.78 1653.14 1762.4 1661.69C1777.05 1671.61 1790.58 1682.4 1806 1691.16C1809.73 1693.28 1806.47 1695.03 1810.11 1696.28L1811.27 1693.19C1813.91 1693.62 1813.46 1693.73 1815.05 1695.62C1816.1 1701.52 1821.15 1703.65 1825.86 1706.94C1831.42 1710.81 1837.09 1715.1 1843.01 1718.39C1848.61 1721.51 1853.84 1722.1 1858.75 1726.61C1861.12 1728.79 1870.13 1735.59 1870.31 1738.31L1865.49 1736.2L1864.48 1737.15C1876.52 1749.15 1894.61 1760.01 1909.28 1768.7L1909.09 1769.8L1902.56 1769.89C1928.52 1786.65 1953.75 1804.52 1979.91 1820.94C2015.65 1843.35 2076.65 1864.99 2086.34 1911.63C2088.62 1922.58 2086.14 1931.79 2083.19 1942.22C2068.06 1940.08 2054.65 1934.59 2039.99 1930.74C2025.42 1926.91 2010.39 1924.93 1995.85 1920.97C1978.57 1916.26 1961.92 1909.45 1944.68 1904.63C1924.85 1899.1 1904.33 1896.12 1884.41 1890.83C1911.2 1920.96 1947.74 1937.13 1984.9 1950.43C1947.05 1951.84 1912.25 1941.26 1876.79 1929.76C1867.03 1926.6 1857.05 1924.08 1847.53 1920.23C1836.11 1915.61 1825.28 1909.57 1813.97 1904.68C1804.57 1900.62 1794.8 1897.38 1785.41 1893.3C1765.13 1884.49 1755.32 1875.8 1732.29 1870.53C1754.81 1884.15 1771.09 1906.47 1793.07 1920.92C1804.54 1928.46 1817.5 1936.15 1829.91 1942.05C1835.14 1944.54 1845.51 1946.64 1849.06 1950.61L1848 1952.23C1824.17 1956.84 1734.66 1914.49 1712.2 1900.19C1711.96 1900.03 1711.76 1899.8 1711.54 1899.61C1697.66 1892.71 1685.12 1883.22 1671.87 1875.19C1658.55 1867.12 1644.73 1859.85 1631.47 1851.69C1614.63 1841.31 1598.2 1830.12 1581.47 1819.54C1571.51 1817.33 1551.99 1802.4 1542.87 1796.56C1502.97 1770.98 1464.14 1744.7 1425.23 1717.64C1398.72 1699.19 1372.15 1681.31 1346.55 1661.54C1327.62 1646.71 1309.44 1630.93 1292.1 1614.26C1269.59 1592.69 1250.01 1567.76 1230.33 1543.63C1224.45 1536.43 1219.16 1528.39 1212.89 1521.59L1211.21 1519.8C1210.24 1521.77 1210.92 1520.91 1209.09 1522.33C1207.8 1521.61 1206.6 1520.94 1205.52 1519.91C1197.67 1512.44 1173.65 1487 1173.56 1477.29L1176.78 1475.1C1165.57 1457.18 1150.87 1441.27 1139.16 1423.59C1122.72 1398.74 1109.73 1370.64 1091.08 1347.36L1089.96 1349.67L1086.88 1348.57C1083.52 1342.37 1079.22 1336.75 1075.78 1330.55C1073.47 1326.38 1070.68 1316.1 1067.09 1313.7C1064.31 1311.85 1061.6 1309.97 1058.87 1308.06L1058.9 1306.55L1062.05 1307.14C1059.81 1302.65 1054.21 1288.39 1049.95 1286.44C1051.01 1289.71 1052.03 1292.98 1053.01 1296.27C1046.72 1289.68 1034.13 1266.08 1032.06 1257.25C1034.99 1257.33 1033.7 1257.55 1035.95 1256.89C1029.9 1248.22 1004.38 1205.34 1005.15 1197.01L1008.6 1194.8C1000.15 1169.02 987.86 1145.12 979.32 1119.52L978.27 1124.98L976.84 1125.02C974.14 1118.65 972.06 1112.12 972.45 1105.17L972.6 1102.65C966.58 1091.26 958.86 1075.3 958.64 1062.29C958.5 1053.46 953.86 1048.76 952.47 1040.68C954 1040.25 953.27 1040.37 955.11 1040.28C955.58 1040.26 956.05 1040.25 956.51 1040.23L953.47 1038.15C952.53 1034.19 954.02 1034.65 954.98 1031.08C955.34 1029.72 944.77 1006.55 943.76 1001.21C937.46 967.83 938.33 941.37 937.29 908.21C937 899.15 935.34 890.56 936.18 881.44C938.69 889.45 937.19 897.96 939.71 906.06C939.82 906.4 939.94 906.72 940.05 907.05C939.58 880.23 941.43 854.31 944.7 827.71C947.72 808.24 951.08 788.83 954.79 769.49C958.35 752.56 961.88 735.696 966.04 718.893C969.3 711.367 972.37 703.853 975.16 696.139C984.38 671.435 999 651.15 1009.76 627.382C1014.66 620.513 1019.16 613.42 1023.66 606.284C1046.19 574.824 1076.11 549.969 1104.84 524.562L1170.5 465.904Z" fill="#F1AF4E"/>
<path d="M1221.43 961.94C1221.67 958.95 1221.2 954.92 1223.19 952.67C1226.16 955.54 1229.91 958.56 1229.67 963.08C1229.49 966.36 1227.71 969.99 1226.53 973.05L1227.96 976.84L1228.7 977.05C1228.66 976.6 1228.52 976.14 1228.59 975.69C1228.64 975.29 1229.43 973.45 1229.61 973.03L1231.22 972.38C1233.97 982.94 1240.89 1014.62 1240.62 1024.15C1237.92 1023.71 1239.28 1024.11 1236.57 1022.84C1238.43 1028.78 1241.33 1034.34 1244 1039.95L1245.06 1039.8L1246.68 1035.13C1250.73 1037.41 1256.43 1055.5 1258.31 1060.24C1268.67 1086.26 1280.36 1111.53 1291.09 1137.36C1294.02 1144.41 1298.33 1151.22 1300.48 1158.52C1302.08 1163.98 1303.01 1169.99 1305.61 1175.08C1314.45 1192.42 1337.66 1219.11 1339.99 1237.81C1340.28 1240.1 1340.69 1242.83 1341.23 1245.06C1342.21 1249.04 1346.18 1250.29 1346.5 1254.85L1344.58 1257.47C1337.14 1247.24 1331.3 1234.58 1324.95 1223.53C1317.99 1211.41 1310.23 1199.57 1303.75 1187.2C1293.35 1167.33 1285.09 1146.37 1276.32 1125.76C1267.26 1104.43 1257.99 1083.67 1249.45 1062.1C1243.31 1046.64 1235.73 1031.43 1231.05 1015.44C1226.08 998.46 1224.93 979.42 1221.43 961.94Z" fill="#1D191B"/>
<path d="M979.32 1119.52L978.27 1124.98L976.84 1125.02C974.14 1118.65 972.06 1112.12 972.45 1105.17L972.6 1102.65C966.58 1091.26 958.86 1075.3 958.64 1062.29C958.5 1053.46 953.86 1048.76 952.47 1040.68C954 1040.25 953.27 1040.37 955.11 1040.28C955.58 1040.26 956.05 1040.25 956.51 1040.23L953.47 1038.15C952.53 1034.19 954.02 1034.65 954.98 1031.08C955.34 1029.72 944.77 1006.55 943.76 1001.21C937.46 967.83 938.33 941.37 937.29 908.21C937 899.15 935.34 890.56 936.18 881.44C938.69 889.45 937.19 897.96 939.71 906.06C939.82 906.4 939.94 906.72 940.05 907.05C941.81 944.69 948.39 980.6 955.44 1017.5C958.02 1031.01 959.87 1044.76 962.98 1058.15C967.79 1078.89 976.55 1098.22 979.32 1119.52Z" fill="#1D191B"/>
<path d="M1128.03 774.75L1130.53 775.19C1132.36 783.2 1127.64 790.5 1130.1 798.42C1131.79 803.83 1134.33 810.05 1132.13 815.65L1130.18 815.08L1127.81 808.52C1127.65 818.99 1129.11 831.85 1127.73 841.99C1127.12 846.44 1124.36 850.46 1124.55 854.96C1126.21 854.22 1125.21 854.8 1127.23 852.78C1131.14 857.53 1128.56 891.3 1127.58 898.98C1127.38 900.51 1126.81 901.83 1126.22 903.24L1124.63 904.04L1122.66 902.43C1122.95 909.42 1127.05 916.51 1126.48 923.08L1123.93 924.47C1123.59 932.61 1125.25 954.59 1128.1 961.83L1129.92 959.09C1129.62 958.52 1129.26 957.98 1129.02 957.38C1128.22 955.31 1128.48 956.09 1129.07 954.45C1132.12 946.06 1130.22 927.56 1136.04 921.41C1136.44 925.35 1136.47 929.16 1136.41 933.11C1133.85 950.57 1132.94 968.22 1131.86 985.82C1127.1 974.95 1124.02 964.37 1122.32 952.64C1116.58 913.18 1119.97 870.75 1122.68 831.19C1123.97 812.42 1124.69 793.27 1128.03 774.75Z" fill="#1D191B"/>
<path d="M1713.97 1633.79L1713.48 1629.72C1716.46 1629.34 1717.87 1629.84 1720.25 1631.79C1720.75 1632.2 1722.08 1633.63 1722.5 1634.04C1733.22 1644.71 1749.78 1653.14 1762.4 1661.69C1777.05 1671.61 1790.58 1682.4 1806 1691.16C1809.73 1693.28 1806.47 1695.03 1810.11 1696.28L1811.27 1693.19C1813.91 1693.62 1813.46 1693.73 1815.05 1695.62C1816.1 1701.52 1821.15 1703.65 1825.86 1706.94C1831.42 1710.81 1837.09 1715.1 1843.01 1718.39C1848.61 1721.51 1853.84 1722.1 1858.75 1726.61C1861.12 1728.79 1870.13 1735.59 1870.31 1738.31L1865.49 1736.2L1864.48 1737.15C1876.52 1749.15 1894.61 1760.01 1909.28 1768.7L1909.09 1769.8L1902.56 1769.89C1876.85 1754.44 1856.63 1734.59 1832.76 1716.98C1793.85 1688.27 1753.23 1661.96 1713.97 1633.79Z" fill="#1D191B"/>
<path d="M1091.08 1347.36L1089.96 1349.67L1086.88 1348.57C1083.52 1342.37 1079.22 1336.75 1075.78 1330.55C1073.47 1326.38 1070.68 1316.1 1067.09 1313.7C1064.31 1311.85 1061.6 1309.97 1058.87 1308.06L1058.9 1306.55L1062.05 1307.14C1059.81 1302.65 1054.21 1288.39 1049.95 1286.44C1051.01 1289.71 1052.03 1292.98 1053.01 1296.27C1046.72 1289.68 1034.13 1266.08 1032.06 1257.25C1034.99 1257.33 1033.7 1257.55 1035.95 1256.89C1029.9 1248.22 1004.38 1205.34 1005.15 1197.01L1008.6 1194.8C1024.4 1225.46 1038.55 1256.71 1055.2 1287.02C1066.46 1307.53 1079.79 1326.91 1091.08 1347.36Z" fill="#1D191B"/>
<path d="M1211.21 1519.8C1210.24 1521.77 1210.92 1520.91 1209.09 1522.33C1207.8 1521.61 1206.6 1520.94 1205.52 1519.91C1197.67 1512.44 1173.65 1487 1173.56 1477.29L1176.78 1475.1C1188.17 1489.75 1201.03 1504.34 1211.21 1519.8Z" fill="#1D191B"/>
<path d="M1170.5 465.904C1174.66 461.981 1178.96 458.713 1183.65 455.46C1190.94 463.816 1197.12 471.936 1201.24 482.349L1200.56 483.771C1199 484.536 1199.91 484.23 1197.77 484.483L1199.73 484.179C1192.8 484.659 1191.54 471.804 1185.73 468.038C1181.78 465.482 1177.78 466.78 1173.55 467.839L1172.04 468.23L1170.5 465.904Z" fill="#FCB756"/>
<path d="M1313.86 1461.78C1316.97 1462.14 1318.57 1462.63 1321.18 1464.35C1323.83 1468.11 1324.82 1471.5 1324.65 1476.14C1324.32 1485.66 1319.22 1494.65 1312.01 1500.71C1304.85 1506.86 1295.41 1509.67 1286.05 1508.45C1274.02 1506.8 1264.12 1498.86 1256.87 1489.54C1256.36 1488.49 1255.86 1487.44 1255.41 1486.36C1253.49 1481.73 1251.72 1476.94 1253.72 1472.03C1260.13 1473.72 1268.52 1485.8 1274.72 1489.86C1280.12 1493.39 1287.05 1496.3 1293.6 1494.75C1306.33 1491.73 1306.92 1472.31 1313.24 1462.68C1313.44 1462.37 1313.65 1462.08 1313.86 1461.78Z" fill="#282220"/>
<path d="M1549.53 1687.12C1550.89 1692.58 1549.83 1698.52 1551.32 1704.03C1559.49 1734.32 1596.56 1719.03 1605.2 1724.04C1605.27 1724.4 1605.39 1724.76 1605.41 1725.12C1605.59 1729.59 1600.75 1735.45 1598.18 1738.86C1595.7 1739.88 1593.43 1740.72 1590.77 1741.14C1578 1743.14 1563.61 1741.87 1553.18 1733.61C1546.45 1728.29 1541.37 1720.13 1540.43 1711.52C1539.3 1701.27 1543.43 1694.9 1549.53 1687.12Z" fill="#1D191B"/>
<path d="M1067.21 1177.32C1075.77 1176.49 1083.18 1177.21 1091.25 1180.41C1100.99 1184.27 1110.44 1191.29 1114.49 1201.24C1117.65 1208.99 1119.11 1221.47 1115.24 1229.21C1113.64 1232.4 1113.2 1232.43 1109.98 1233.46L1092.04 1237.18C1095.13 1227.47 1099.47 1213.87 1096.67 1203.84C1093.33 1191.9 1080.16 1193.03 1071.75 1186.88C1068.43 1184.45 1068.02 1181.09 1067.21 1177.32Z" fill="#1D191B"/>
<path d="M1268.71 1295.36C1265.56 1293.23 1262.69 1290.9 1260.03 1288.18C1253.58 1281.59 1250.43 1271.62 1250.59 1262.51C1250.72 1255.32 1252.99 1247.28 1258.57 1242.37C1261.81 1239.53 1265.23 1237.96 1269.45 1238.29C1271.87 1244.09 1266.29 1252.42 1264.19 1258.03C1262.32 1263.04 1261.73 1267.32 1264.28 1272.22C1271.77 1286.66 1284.76 1282.75 1297.58 1286.91C1298.47 1289 1298.69 1290.76 1298.9 1293C1297.46 1296.28 1296 1298.52 1292.43 1299.73C1287.08 1301.55 1279.66 1301.68 1274.56 1299.15C1272.49 1298.12 1270.57 1296.71 1268.71 1295.36Z" fill="#1D191B"/>
<path d="M1297.58 1286.91C1298.47 1289 1298.69 1290.76 1298.9 1293C1297.46 1296.28 1296 1298.52 1292.43 1299.73C1287.08 1301.55 1279.66 1301.68 1274.56 1299.15C1272.49 1298.12 1270.57 1296.71 1268.71 1295.36C1275.8 1293.43 1281.14 1295.85 1287.78 1290.87C1289.45 1289.62 1289.76 1289.32 1291.97 1288.9C1294.21 1288.47 1295.55 1287.94 1297.58 1286.91Z" fill="#1D191B"/>
<path d="M1466.76 1492.63C1469.75 1492.73 1472.83 1492.8 1475.74 1493.54C1486.49 1496.23 1498.26 1504.84 1503.52 1514.66C1506.3 1519.85 1507.55 1525.39 1505.53 1531.07C1503.3 1537.33 1499.92 1539.65 1494.04 1542.3C1487.27 1534.17 1495.06 1524.08 1490.01 1515.33C1485.44 1507.41 1462.69 1509.48 1456.03 1499.98L1456.69 1497.39C1459.58 1494.46 1462.95 1493.77 1466.76 1492.63Z" fill="#282220"/>
<path d="M1066.18 1025.28C1074.2 1028.96 1077.01 1038.64 1084.73 1042.27C1090.11 1044.8 1098.45 1042.58 1104.02 1046.01C1106.94 1047.81 1107.17 1049.24 1107.75 1052.28C1106.66 1055.13 1105.56 1056.31 1103.27 1058.3C1098.02 1060.35 1092.57 1061.98 1087.23 1063.76C1078.71 1061.07 1070.49 1058.48 1066 1050C1061.95 1042.34 1063.63 1033.11 1066.18 1025.28Z" fill="#282220"/>
<path d="M988.21 779.29C990.59 779.89 991.61 780.44 993.38 782.16C994.95 787.1 992.86 792.83 991.75 797.76L992.85 799.51C995.62 803.89 1000.19 809.49 999 814.7L995.9 815.27C991.81 813.16 986.58 810.74 983.45 807.31C980.39 803.96 978.41 799.21 978.92 794.63C979.62 788.25 983.55 783.33 988.21 779.29Z" fill="#282220"/>
<path d="M1463.12 1193.95C1461.35 1190.67 1460.36 1189.54 1461.43 1185.7C1464.05 1176.29 1483.48 1160.46 1491.53 1154.32C1494.87 1151.78 1502.25 1147.6 1504.48 1144.29C1511.15 1134.38 1504.33 1131.94 1519.12 1123.84L1518.25 1124.86C1518.48 1124.82 1518.73 1124.83 1518.94 1124.72C1530.08 1119.06 1537.49 1105.69 1543.09 1095.01L1544.87 1094.92C1544.96 1094.92 1545.04 1094.91 1545.13 1094.9L1546.25 1099.06C1526.24 1129.34 1490.55 1170.64 1463.12 1193.95Z" fill="#1D191B"/>
<path d="M1970.34 1151.53C1971.42 1149.86 1972.44 1148.22 1973.43 1146.49C1977.62 1156 1974.65 1182.43 1970.86 1192.06C1970.64 1192.61 1970.41 1193.15 1970.18 1193.7L1968.23 1194.4L1969.89 1194.08L1968.5 1195.58C1966.21 1192.95 1966.63 1188.93 1966.45 1185.6C1966.5 1174.63 1969.06 1162.54 1970.34 1151.53Z" fill="#1D191B"/>
<path d="M588.799 1013.97C627.939 1026.03 656.704 1030.15 696.88 1036.08C731.378 1041.36 766.056 1045.4 800.844 1048.19C827.494 1050.09 854.279 1050.43 880.894 1052.7C883.204 1054.09 884.664 1055.06 886.23 1057.27L885.223 1058.84C869.851 1061.25 778.18 1055.71 763.892 1051.18C765.697 1048.41 769.384 1051.16 772.163 1049.02C766.725 1048.77 760.864 1048.34 755.601 1046.95C751.004 1045.74 746.857 1046.59 742.225 1047.27C747.54 1047.52 757.466 1046.79 761.425 1050.34L760.823 1051.51C752.855 1049.93 744.355 1051.12 736.559 1048.92C727.127 1046.26 716.447 1045.8 706.684 1044.4C680.807 1040.68 654.789 1037.47 629.599 1030.23C628.791 1029.19 619.402 1027.8 617.509 1027.39L617.969 1027.75L610.454 1026.48C600.348 1024.74 592.63 1024.74 586.212 1015.65L588.799 1013.97Z" fill="#1D191B"/>
<path d="M1016.97 570.884L1019.33 571.776C1016.3 577.115 1011.68 581.929 1007.79 586.68C1010.31 586.598 1011.6 585.808 1013.84 584.743C1013.09 590.557 1002.55 600.57 997.72 603.852C996.32 604.798 994.79 605.332 993.22 605.911L991.58 608.524L991.83 607.906C991.47 607.353 991.03 606.845 990.75 606.247C990.53 605.774 990.48 605.238 990.34 604.733C997.16 594.371 1007.67 579.026 1016.97 570.884Z" fill="#1D191B"/>
<path d="M1084.13 331.287L1085.8 329.102C1095.41 329.646 1106.46 333.038 1113.75 339.554L1110.74 340.681C1112.22 341.33 1113.52 341.637 1115.09 341.991L1108.16 344.428C1099.5 341.106 1091.9 336.294 1084.13 331.287Z" fill="#1D191B"/>
<path d="M57.1302 978.89L54.9702 975.52C56.7542 965.8 61.6432 966.6 65.9642 959.6C66.1822 959.25 66.3452 958.87 66.5352 958.5C69.0352 957.39 72.3502 956.35 74.1032 954.18C75.2222 952.8 74.3722 950.37 74.1972 948.71L75.6302 947.11L77.8672 949.1C82.3272 946.21 87.7582 943.36 91.5472 939.65C93.2212 938.01 93.4602 938.39 95.7052 938.16L94.5502 937.27L86.7542 939L88.0782 937.48L88.4802 938.81L88.2782 937.35C101.261 929.12 115.24 925.01 130.177 921.96L131.861 924.06C136.412 925.87 151.437 917.88 158.037 917.69C171.052 917.32 184.179 920.03 197.219 919.59C206.513 919.27 218.088 915.18 227.176 917.12C233.523 918.46 240.853 925.68 247.171 924.33L245.719 922.16C256.251 921.17 290.99 931.31 301.988 935.25C302.352 938.52 302.016 936.96 302.952 939.96C317.583 941.38 339.456 960.43 351.305 957.76C348.991 956.97 346.691 956.14 344.404 955.27L344.101 952.72C352.772 949.09 374.993 966.34 383.911 967.9C385.968 968.26 386.853 968.43 388.601 969.48L388.693 971.03L385.614 973.36C428.185 992.04 471.147 1009.42 515.347 1023.85C527.917 1027.95 540.991 1030.31 553.627 1034.19C567.926 1038.57 581.722 1044.57 596.075 1048.75C611.987 1053.38 628.706 1055.67 645.054 1058.28L645.181 1055.83C649.684 1053.76 654.327 1055.3 658.856 1056.9C668.652 1060.37 678.064 1056.84 688.012 1059.28C698.438 1061.84 709.066 1064.2 719.744 1065.4C734.532 1067.06 754.601 1065.26 768.211 1071.67C768.782 1071.49 769.35 1071.3 769.923 1071.13C775.589 1069.42 778.209 1069.04 783.678 1071.1C786.782 1072.27 789.888 1073.4 792.973 1074.62L792.37 1075.53C787.059 1075.72 781.663 1075.69 776.391 1076.34C797.233 1079.1 818.558 1079.92 839.526 1081.56C853.706 1082.67 868.302 1084.96 882.51 1084.93C900.96 1084.89 919.58 1082.3 938.09 1081.83C938.17 1082.28 938.24 1082.73 938.33 1083.17C940.93 1095.87 948.88 1107.77 953.83 1119.73C957.9 1129.58 960.91 1140 964.58 1150.02C971.97 1170.26 979.66 1190.17 986.68 1210.57C990.71 1222.27 996.5 1234.72 998.67 1246.86C999.34 1250.56 999.16 1252.33 997.59 1255.71C984.39 1261.2 933.07 1266.49 927.56 1278.71C931.48 1283.37 939.12 1283.85 944.97 1284.39C953.28 1285.11 961.64 1284.99 969.93 1284.03C966.12 1288.27 962.26 1292.99 957.87 1296.63C944.69 1307.59 933.18 1310.9 920.64 1324.92L940.06 1330.26C927.75 1332.03 892.854 1334.61 883.975 1342.2C885.89 1345.5 889.88 1346.27 893.506 1347.15C907.18 1350.49 921.69 1349.89 935.55 1352.18C926.61 1354.3 917.67 1356.53 908.7 1358.51C911.88 1358.86 914.04 1358.98 916.95 1360.47C910.33 1362.02 900.78 1361.93 895.2 1365.58C897.68 1367.31 905.59 1366.39 909.01 1366.57L908.46 1367.87C860.722 1373.28 846.971 1379.19 796.987 1369.21C787.243 1367.27 776.942 1365.83 767.487 1362.7C756.887 1359.2 744.98 1359.05 734 1356.89C690.394 1348.35 645.744 1342.77 602.609 1332.06C601.416 1329.82 600.347 1328 598.624 1326.12L594.985 1326.57L594.399 1327.82L596.365 1330.28C583.039 1326.38 567.957 1317.22 554.434 1315.99L555.714 1317.97C550.463 1319.17 542.368 1315.56 537.593 1313.18L538.405 1312.26L526.313 1309.47C532.633 1308.56 539.473 1308.95 545.87 1308.83C511.011 1298.46 474.881 1290.93 440.283 1279.67C422.129 1273.77 403.202 1265.66 385.583 1258.19C415.216 1257.7 444.653 1261.47 474.333 1260.69C444.043 1254.33 416.937 1238.96 386.821 1231.39L386.534 1234.98L385.235 1235.86C381.055 1231.98 377.611 1232.84 372.698 1231.4C363.31 1228.65 354.588 1221.65 345.415 1219.39C339.348 1217.9 332.238 1218.57 326.458 1216.27C323.098 1214.93 320.271 1212.46 317.002 1210.9C308.326 1206.74 299.33 1203.88 290.103 1201.24C289.019 1199.21 288.465 1198.49 286.713 1196.85C265.359 1197.57 259.409 1184.61 241.459 1181.46C239.866 1181.18 238.31 1180.81 236.735 1180.45C234.57 1177.28 233.539 1175.69 229.949 1173.99L227.585 1175.34L227.503 1175.27L227.784 1173.28L226.69 1173.69L229.429 1178.81L228.326 1179.47L225.526 1178.19C219.735 1169.34 222.402 1173.1 215.739 1172.75C213.576 1172.63 205.77 1165.76 203.004 1164.46C194.535 1160.48 183.658 1161.61 174.564 1156.86C167.172 1153 163.282 1144.64 155.775 1140.78C154.22 1143.26 155.102 1142.1 153.132 1144.25C152.549 1142.9 151.972 1141.56 151.291 1140.26C149.738 1137.31 148.928 1136.13 145.722 1135.13C127.065 1129.36 114.115 1114.8 97.7122 1105.17C97.1912 1104.87 96.6622 1104.57 96.1382 1104.27L96.4992 1102.49L100.273 1101.67C96.3872 1098.62 92.4332 1095.62 88.6222 1092.48C86.8582 1087.89 85.0342 1083.32 83.1492 1078.79C90.7512 1084.35 98.3282 1090.04 106.773 1094.28C118.245 1100.05 129.873 1103.99 140.411 1111.53C152.509 1116.24 164.045 1122.73 176.062 1127.75C195.567 1135.91 215.59 1142.33 235.375 1149.68C248.886 1154.71 262.195 1160.81 275.892 1165.27C291.749 1170.44 308.682 1172.76 324.8 1177.27C349.546 1184.18 381.047 1193.65 406.92 1191.99C403.882 1188.73 390.185 1186.48 385.289 1184.24C370.619 1177.54 355.64 1171.5 341.023 1164.75C331.023 1160.14 321.499 1154.49 311.381 1150.13C286.902 1139.59 261.998 1130.06 237.683 1119.04C204.89 1104.37 172.961 1087.83 142.052 1069.52C125.081 1059.69 107.734 1050.44 92.8962 1037.47C75.3352 1022.13 58.7372 1003.24 57.1302 978.89Z" fill="#F1AF4E"/>
<path d="M83.1489 1078.79C90.7509 1084.35 98.3279 1090.04 106.773 1094.28C118.245 1100.05 129.873 1103.99 140.411 1111.53L138.363 1112.43C136.508 1113.23 135.047 1113.63 133.009 1113.76L131.871 1115.41C133.679 1117.6 135.201 1117.89 137.775 1118.85C141.698 1120.31 143.526 1121.82 146.508 1124.63C154.59 1132.25 170.995 1141.19 181.338 1144.82C185.34 1146.23 190.259 1145.46 194.068 1146.81C195.912 1147.46 197.577 1151.5 198.367 1153.08C199.196 1153.16 200.028 1153.22 200.854 1153.32C209.717 1154.4 213.371 1163.07 221.773 1164.3L213.996 1165.23L386.821 1231.39L386.534 1234.98L385.235 1235.86C381.055 1231.98 377.611 1232.84 372.698 1231.4C363.31 1228.65 354.588 1221.65 345.415 1219.39C339.348 1217.9 332.238 1218.57 326.458 1216.27C323.098 1214.93 320.271 1212.46 317.002 1210.9C308.326 1206.74 299.33 1203.88 290.103 1201.24C289.019 1199.21 288.465 1198.49 286.713 1196.85C265.359 1197.57 259.409 1184.61 241.459 1181.46C239.866 1181.18 238.31 1180.81 236.735 1180.45C234.57 1177.28 233.539 1175.69 229.949 1173.99L227.585 1175.34L227.503 1175.27L227.784 1173.28L226.69 1173.69L229.429 1178.81L228.326 1179.47L225.526 1178.19C219.735 1169.34 222.402 1173.1 215.739 1172.75C213.576 1172.63 205.77 1165.76 203.004 1164.46C194.535 1160.48 183.658 1161.61 174.564 1156.86C167.172 1153 163.282 1144.64 155.775 1140.78C154.22 1143.26 155.102 1142.1 153.132 1144.25C152.549 1142.9 151.972 1141.56 151.291 1140.26C149.738 1137.31 148.928 1136.13 145.722 1135.13C127.065 1129.36 114.115 1114.8 97.7119 1105.17C97.1909 1104.87 96.6619 1104.57 96.1379 1104.27L96.4989 1102.49L100.273 1101.67C96.3869 1098.62 92.4329 1095.62 88.6219 1092.48C86.8579 1087.89 85.0339 1083.32 83.1489 1078.79Z" fill="#1D191B"/>
<path d="M83.1489 1078.79C90.7509 1084.35 98.3279 1090.04 106.773 1094.28C118.245 1100.05 129.873 1103.99 140.411 1111.53L138.363 1112.43C136.508 1113.23 135.047 1113.63 133.009 1113.76L131.871 1115.41C133.679 1117.6 135.201 1117.89 137.775 1118.85C141.698 1120.31 143.526 1121.82 146.508 1124.63C154.59 1132.25 170.995 1141.19 181.338 1144.82C185.34 1146.23 190.259 1145.46 194.068 1146.81C195.912 1147.46 197.577 1151.5 198.367 1153.08C199.196 1153.16 200.028 1153.22 200.854 1153.32C209.717 1154.4 213.371 1163.07 221.773 1164.3L213.996 1165.23C174.626 1144.24 136.59 1128.7 100.273 1101.67C96.3869 1098.62 92.4329 1095.62 88.6219 1092.48C86.8579 1087.89 85.0339 1083.32 83.1489 1078.79Z" fill="#FCB756"/>
<path d="M545.87 1308.83C567.074 1313.52 587.367 1321.41 608.569 1326.12C623.611 1329.47 638.939 1331.42 654.045 1334.48C673.382 1338.39 692.611 1343.27 712.056 1346.58C731.712 1349.92 751.56 1352.04 771.177 1355.66C795.752 1360.19 820.524 1368.63 845.675 1368.84C866.581 1369.02 888.297 1362.75 908.7 1358.51C911.88 1358.86 914.04 1358.98 916.95 1360.47C910.33 1362.02 900.78 1361.93 895.2 1365.58C897.68 1367.31 905.59 1366.39 909.01 1366.57L908.46 1367.87C860.722 1373.28 846.971 1379.19 796.987 1369.21C787.243 1367.27 776.942 1365.83 767.487 1362.7C756.887 1359.2 744.98 1359.05 734 1356.89C690.394 1348.35 645.744 1342.77 602.609 1332.06C601.416 1329.82 600.347 1328 598.624 1326.12L594.985 1326.57L594.399 1327.82L596.365 1330.28C583.039 1326.38 567.957 1317.22 554.434 1315.99L555.714 1317.97C550.463 1319.17 542.368 1315.56 537.593 1313.18L538.405 1312.26L526.313 1309.47C532.633 1308.56 539.473 1308.95 545.87 1308.83Z" fill="#1D191B"/>
<path d="M57.1302 978.89L54.9702 975.52C56.7542 965.8 61.6432 966.6 65.9642 959.6C66.1822 959.25 66.3452 958.87 66.5352 958.5C69.0352 957.39 72.3502 956.35 74.1032 954.18C75.2222 952.8 74.3722 950.37 74.1972 948.71L75.6302 947.11L77.8672 949.1C82.3272 946.21 87.7582 943.36 91.5472 939.65C93.2212 938.01 93.4602 938.39 95.7052 938.16L94.5502 937.27L86.7542 939L88.0782 937.48L88.4802 938.81L88.2782 937.35C101.261 929.12 115.24 925.01 130.177 921.96L131.861 924.06C136.412 925.87 151.437 917.88 158.037 917.69C171.052 917.32 184.179 920.03 197.219 919.59C206.513 919.27 218.088 915.18 227.176 917.12C233.523 918.46 240.853 925.68 247.171 924.33L245.719 922.16C256.251 921.17 290.99 931.31 301.988 935.25C302.352 938.52 302.016 936.96 302.952 939.96C317.583 941.38 339.456 960.43 351.305 957.76C348.991 956.97 346.691 956.14 344.404 955.27L344.101 952.72C352.772 949.09 374.993 966.34 383.911 967.9C385.968 968.26 386.853 968.43 388.601 969.48L388.693 971.03L385.614 973.36C370.761 966.77 354.696 965.02 339.665 959.27C328.799 955.1 318.997 947.99 308.029 944.18C296.171 940.06 283.139 937.67 270.913 934.67C216.285 921.28 163.162 914.9 109.427 935.75C88.9202 943.7 68.2302 959.77 57.1302 978.89Z" fill="#1D191B"/>
<path d="M645.054 1058.28L645.181 1055.83C649.684 1053.76 654.327 1055.3 658.856 1056.9C668.652 1060.37 678.064 1056.84 688.012 1059.28C698.438 1061.84 709.066 1064.2 719.744 1065.4C734.532 1067.06 754.601 1065.26 768.211 1071.67C768.782 1071.49 769.35 1071.3 769.923 1071.13C775.589 1069.42 778.209 1069.04 783.678 1071.1C786.782 1072.27 789.888 1073.4 792.973 1074.62L792.37 1075.53C787.059 1075.72 781.663 1075.69 776.391 1076.34C732.254 1077.67 687.846 1067.58 645.054 1058.28Z" fill="#1D191B"/>
<path d="M588.997 1077.44C596.647 1077.15 603.829 1078.12 611.379 1079.19C622.708 1088.8 637.133 1100 638.529 1116.03C639.302 1124.91 635.869 1132.7 630.439 1139.46C626.855 1141.29 624.247 1143 620.233 1142.31C615.626 1136.52 619.086 1123.43 618.75 1116.23C618.519 1111.29 617.186 1106.44 615.966 1101.67C607.298 1097.39 595.302 1096.62 588.876 1089.2C587.216 1085 588.179 1081.69 588.997 1077.44Z" fill="#282220"/>
<path d="M413.317 1163.16C424.476 1168.22 434.542 1174.43 446.117 1179.07L460.19 1163.94C460.577 1164.3 460.967 1164.64 461.351 1165C468.01 1171.19 471.353 1174.54 471.641 1183.82C470.667 1185.19 469.745 1186.76 468.561 1187.95C463.231 1193.3 454.089 1197.15 446.618 1197.26C437.212 1197.39 427.698 1192.72 421.359 1185.89C415.306 1179.38 412.938 1171.96 413.317 1163.16Z" fill="#282220"/>
<path d="M738.742 1232.81C745.872 1234.22 751.333 1242.15 758.62 1243.1C765.477 1243.99 769.814 1239.22 774.987 1235.57L776.501 1237.13C777.305 1242.4 776.99 1246.88 776.405 1252.16C775.224 1254.37 773.992 1256.29 771.998 1257.87C768.185 1260.89 762.728 1262.6 757.883 1262.01C751.769 1261.27 746.444 1257.26 742.806 1252.46C738.073 1246.22 737.958 1240.31 738.742 1232.81Z" fill="#282220"/>
<path d="M541.388 1334.43L543.979 1330.05L545.711 1329.73C546.049 1330.04 546.358 1330.38 546.726 1330.65C558.217 1339.11 612.486 1349.06 629.658 1350.61C638.839 1351.44 654.73 1363.92 663.09 1359.07L660.952 1355.75C663.432 1355.77 666.88 1357.2 668.545 1359.16C668.879 1359.56 669.076 1360.05 669.341 1360.49L667.302 1362.38C673.936 1364.59 680.818 1364.32 687.301 1366.56C692.398 1368.33 698.771 1367.9 704.143 1368.01L704.016 1367.14L696.472 1363.91C716.616 1364.77 740.028 1372.88 761.246 1375.99C763.754 1376.36 765.718 1377.68 767.885 1378.91L764.058 1380.79C790.076 1387.86 805.564 1417.23 823.644 1435.44C836.442 1448.33 850.928 1460.27 865.229 1471.46C905.61 1503.05 952.32 1528.64 997.22 1553.29C1026.95 1569.61 1056.77 1586.72 1088.76 1598.44C1110.18 1606.28 1134.19 1610.91 1156.56 1615.56L1156.66 1611.39C1157.44 1611.48 1158.21 1611.6 1158.99 1611.68C1161.75 1611.96 1164.42 1612.11 1167.12 1612.55C1190.93 1616.36 1216.44 1613.7 1239.46 1623C1244.38 1624.99 1249.6 1621.52 1254.4 1623L1253.99 1624.39C1247.99 1624.53 1241.86 1624.47 1235.9 1625.11C1244.78 1626.36 1253.68 1627.4 1262.61 1628.22C1268.44 1634.63 1274.98 1643.92 1281.71 1649L1282.46 1645.52L1284.22 1644.87C1286.18 1647.41 1287.32 1648.94 1288.1 1652.13L1289.56 1652.59C1290.17 1652.8 1290.78 1653.02 1291.39 1653.22C1291.85 1653.36 1292.33 1653.44 1292.78 1653.63C1296.82 1655.3 1360.19 1719.44 1369.42 1728.58C1364.02 1728.41 1358.39 1716 1353.46 1716.91C1359.3 1724.48 1398.39 1758.47 1398.72 1761L1396.28 1762.13C1400.08 1765.01 1403.82 1767.04 1408.1 1769.11C1409.76 1766.88 1409.65 1766.89 1412.37 1766.37C1427.28 1773.01 1443.46 1788.86 1453.52 1801.64C1452 1803.38 1452.82 1802.81 1451.25 1803.6L1457.26 1809.56L1457.06 1811.36C1454.77 1811.93 1452.61 1812.34 1450.26 1812.57C1450.6 1812.81 1450.93 1813.07 1451.28 1813.29C1452.92 1814.31 1454.36 1814.59 1456.22 1814.98L1456.58 1816.26L1454.74 1815.89C1449.84 1814.92 1446.11 1814.43 1441.11 1815.28C1443.13 1816.43 1445.14 1817.26 1447.29 1818.15C1441.53 1820.96 1415.02 1819.86 1408.7 1817.42C1406.49 1816.57 1404.46 1815.51 1402.41 1814.35L1402.44 1813.49C1405.33 1814.3 1408.6 1815.87 1411.51 1815.11C1408.1 1812.67 1406.34 1812.94 1402.29 1813.34C1399.22 1813.64 1398.03 1813.05 1395.28 1811.88C1367.27 1818.11 1377.69 1809.04 1365 1808.85C1359.38 1808.77 1353.36 1811.74 1348.04 1811.24C1342.2 1810.69 1337.59 1805.6 1330.95 1805.03C1318.87 1804 1306.25 1803.17 1294.29 1801.48C1283.76 1799.99 1278.33 1795.3 1267.01 1796.92C1268.33 1798.25 1268.34 1798.81 1270.27 1798.99C1273.72 1799.31 1276.2 1799.81 1279.45 1801.09C1286.16 1803.74 1293.78 1805.08 1300.73 1807.16L1350.41 1822.37C1354.95 1823.74 1359.96 1823.65 1364.25 1825.62C1360.53 1827.08 1356.19 1825.84 1352.25 1825.96C1356.23 1827.45 1361.19 1828.43 1363.85 1831.74L1361.42 1834.54C1364.4 1837.92 1368.62 1839.16 1370.5 1843.25C1365.09 1847.41 1351.03 1844.51 1344.4 1843.64C1283.45 1835.65 1216.58 1822.2 1159.17 1800.07C1187.64 1818.36 1224.13 1845.13 1257.14 1853.26C1273.31 1857.25 1360.1 1874.22 1365.96 1879.67L1365.36 1881.45C1362.38 1882.02 1360.05 1882 1357.05 1881.81L1355.27 1884.5C1342.51 1885.63 1328.73 1880.32 1315.63 1880.61L1315.08 1881.34C1319.8 1882.53 1327.65 1883.44 1331.3 1886.6C1320.48 1887.46 1304.22 1886.55 1294.08 1882.59C1288.83 1880.53 1283.33 1877.14 1277.88 1875.87C1273.19 1874.78 1267.51 1876.16 1262.7 1876.22C1252.94 1876.36 1239.87 1872.23 1231.32 1867.89C1225.67 1865.02 1223.91 1868.55 1219.46 1867.08C1214.58 1865.47 1211.99 1860.72 1207.12 1859.01C1207.09 1860.8 1207.01 1861.75 1206.43 1863.49C1200.02 1857.81 1193.32 1860.05 1185.97 1857.51C1180 1855.45 1175.4 1849.6 1169.51 1847.3C1160.45 1843.76 1145.51 1844.42 1138.9 1836.92C1132.97 1830.18 1121.91 1833.86 1114.51 1828.39C1113.31 1827.5 1112.55 1826.86 1111.08 1826.46C1108.92 1825.86 1107.61 1825.8 1105.68 1824.45C1103.91 1823.22 1104.48 1823.67 1104.06 1821.28L1107.35 1820.5C1095.62 1815.2 1083.38 1811.28 1071.5 1806.39C1061.33 1802.21 1051.62 1796.9 1041.56 1792.48C1018.62 1782.41 995.24 1773.15 972.75 1762.06C925 1738.51 878.228 1708.7 834.242 1678.8C820.589 1669.51 805.368 1662.55 792.498 1652.15C781.521 1646.35 715.945 1603.54 710.743 1596.14L712.175 1595.28C717.564 1595.98 721.641 1599.11 726.517 1601.25C747.751 1610.55 768.778 1620.56 790.215 1629.39C795.355 1631.34 800.571 1633.06 805.786 1634.8C788.644 1623.01 770.8 1612.18 753.915 1600.03C734.289 1585.91 715.472 1570.26 696.406 1555.37C674.678 1538.41 652.705 1521.49 633.817 1501.29C690.757 1541.08 751.569 1575.01 815.329 1602.58C795.131 1580.53 768.829 1562.51 745.951 1543.21C705.975 1509.81 666.605 1475.7 627.859 1440.88C616.373 1430.72 603.965 1421.25 592.772 1410.85C584.276 1402.95 590.942 1400.6 588.919 1393.32C587.802 1389.31 581.135 1383.39 578.183 1380.45C570.675 1372.98 532.364 1341.02 531.198 1334.53C534.708 1332.88 537.591 1333.95 541.388 1334.43Z" fill="#F1AF4E"/>
<path d="M1352.25 1825.96C1342.48 1824.95 1332.08 1820.9 1322.59 1818.28C1307.49 1814.11 1291.87 1810.63 1277.05 1805.59C1270.1 1803.22 1256.09 1798.62 1252.75 1791.9C1257.24 1788.83 1367.51 1805.72 1382.15 1807.19C1404.7 1809.44 1427.89 1809.18 1450.26 1812.57C1450.6 1812.81 1450.93 1813.07 1451.28 1813.29C1452.92 1814.31 1454.36 1814.59 1456.22 1814.98L1456.58 1816.26L1454.74 1815.89C1449.84 1814.92 1446.11 1814.43 1441.11 1815.28C1443.13 1816.43 1445.14 1817.26 1447.29 1818.15C1441.53 1820.96 1415.02 1819.86 1408.7 1817.42C1406.49 1816.57 1404.46 1815.51 1402.41 1814.35L1402.44 1813.49C1405.33 1814.3 1408.6 1815.87 1411.51 1815.11C1408.1 1812.67 1406.34 1812.94 1402.29 1813.34C1399.22 1813.64 1398.03 1813.05 1395.28 1811.88C1367.27 1818.11 1377.69 1809.04 1365 1808.85C1359.38 1808.77 1353.36 1811.74 1348.04 1811.24C1342.2 1810.69 1337.59 1805.6 1330.95 1805.03C1318.87 1804 1306.25 1803.17 1294.29 1801.48C1283.76 1799.99 1278.33 1795.3 1267.01 1796.92C1268.33 1798.25 1268.34 1798.81 1270.27 1798.99C1273.72 1799.31 1276.2 1799.81 1279.45 1801.09C1286.16 1803.74 1293.78 1805.08 1300.73 1807.16L1350.41 1822.37C1354.95 1823.74 1359.96 1823.65 1364.25 1825.62C1360.53 1827.08 1356.19 1825.84 1352.25 1825.96Z" fill="#1D191B"/>
<path d="M541.388 1334.43L543.979 1330.05L545.711 1329.73C546.049 1330.04 546.358 1330.38 546.726 1330.65C558.217 1339.11 612.486 1349.06 629.658 1350.61C638.839 1351.44 654.73 1363.92 663.09 1359.07L660.952 1355.75C663.432 1355.77 666.88 1357.2 668.545 1359.16C668.879 1359.56 669.076 1360.05 669.341 1360.49L667.302 1362.38C673.936 1364.59 680.818 1364.32 687.301 1366.56C692.398 1368.33 698.771 1367.9 704.143 1368.01L704.016 1367.14L696.472 1363.91C716.616 1364.77 740.028 1372.88 761.246 1375.99C763.754 1376.36 765.718 1377.68 767.885 1378.91L764.058 1380.79C739.041 1376.95 713.643 1374.95 688.784 1370.28C667.808 1366.34 647.211 1359.95 626.47 1354.92C612.307 1351.49 597.904 1349.18 583.705 1345.91C569.512 1342.65 555.433 1338.31 541.388 1334.43Z" fill="#1D191B"/>
<path d="M1281.71 1649L1282.46 1645.52L1284.22 1644.87C1286.18 1647.41 1287.32 1648.94 1288.1 1652.13L1289.56 1652.59C1290.17 1652.8 1290.78 1653.02 1291.39 1653.22C1291.85 1653.36 1292.33 1653.44 1292.78 1653.63C1296.82 1655.3 1360.19 1719.44 1369.42 1728.58C1364.02 1728.41 1358.39 1716 1353.46 1716.91C1359.3 1724.48 1398.39 1758.47 1398.72 1761L1396.28 1762.13C1386.42 1755.78 1377.22 1745.2 1368.58 1737.03C1338.57 1708.68 1309.16 1679.86 1281.71 1649Z" fill="#1D191B"/>
<path d="M792.498 1652.15C781.521 1646.35 715.945 1603.54 710.743 1596.14L712.175 1595.28C717.564 1595.98 721.641 1599.11 726.517 1601.25C747.751 1610.55 768.778 1620.56 790.215 1629.39C787.97 1631.96 787.978 1632.17 784.645 1632.77C782.924 1632.02 781.622 1631.41 780.131 1630.36C775.213 1626.89 764.832 1620.87 759.153 1620.32L756.681 1621.92C757.651 1624.94 759.99 1625.7 762.767 1627.13C763.644 1627.59 764.564 1627.96 765.46 1628.37C774.403 1632.52 789.461 1641.7 794.595 1650.03C793.077 1651.94 793.88 1651.36 792.498 1652.15Z" fill="#FCB756"/>
<path d="M1156.56 1615.56L1156.66 1611.39C1157.44 1611.48 1158.21 1611.6 1158.99 1611.68C1161.75 1611.96 1164.42 1612.11 1167.12 1612.55C1190.93 1616.36 1216.44 1613.7 1239.46 1623C1244.38 1624.99 1249.6 1621.52 1254.4 1623L1253.99 1624.39C1247.99 1624.53 1241.86 1624.47 1235.9 1625.11C1211.15 1626.99 1180.83 1620.66 1156.56 1615.56Z" fill="#1D191B"/>
<path d="M1408.1 1769.11C1409.76 1766.88 1409.65 1766.89 1412.37 1766.37C1427.28 1773.01 1443.46 1788.86 1453.52 1801.64C1452 1803.38 1452.82 1802.81 1451.25 1803.6C1446.81 1800.72 1443.39 1796.47 1439.16 1793.23C1428.51 1785.06 1417.15 1779.37 1408.1 1769.11Z" fill="#1D191B"/>
<path d="M900.78 1579.61L902.71 1580.24C905.9 1585.67 905.17 1599.08 906.17 1605.85C914.34 1612.1 922.94 1615.65 932.46 1619.28L918.45 1623.59C914.71 1623.78 910.73 1624.12 907 1623.7C901.11 1623.04 896.4 1619.99 892.996 1615.15C889.678 1610.45 888.426 1604.06 889.412 1598.42C890.835 1590.29 894.16 1584.44 900.78 1579.61Z" fill="#282220"/>
<path d="M1130.65 1707.25L1133.96 1707.91C1136.56 1711.85 1135.35 1719.4 1136.5 1724.36C1139.86 1728.9 1144.42 1730.58 1149.08 1733.52C1151.57 1735.1 1152.71 1735.08 1153.38 1738.04C1150.46 1740.65 1147.4 1741.05 1143.71 1741.84C1136.4 1741.94 1129.51 1742.42 1124.03 1736.74C1120.85 1733.45 1119.11 1729.32 1119.51 1724.69C1120.17 1716.97 1124.83 1711.81 1130.65 1707.25Z" fill="#1D191B"/>
<path d="M731.012 1441.58C737.251 1441.26 742.937 1440.93 748.928 1443.05C758.074 1446.29 767.794 1450.75 771.994 1460.02C771.594 1463.55 771.651 1463.66 769.153 1466.15C763.778 1464.85 759.084 1462.64 754.102 1460.3C747.999 1457.42 730.993 1450.33 728.674 1443.93L731.012 1441.58Z" fill="#1D191B"/>
<path d="M1420.27 1070.92C1429.37 1072.98 1434.93 1081.12 1443.25 1085.42C1449.88 1085.11 1456.67 1083.77 1462.23 1088.13L1462.29 1090.75C1460.16 1094.56 1456.93 1096.37 1453.42 1098.73C1447.79 1100.29 1442.38 1101.24 1436.56 1101.64C1429.37 1102.13 1420.24 1101 1414.77 1095.83C1412.27 1093.48 1411.08 1090.83 1411.12 1087.37C1411.2 1080.98 1415.93 1075.09 1420.27 1070.92Z" fill="#F1AF4E"/>
<path d="M529.322 1417.1C533.224 1417.35 535.196 1417.05 538.489 1419.25C539.347 1423.72 546.71 1452.87 546.324 1454.39C546.122 1455.19 545.543 1455.84 545.153 1456.56C538.784 1451.34 531.669 1446.35 528.244 1438.6C525.275 1431.88 526.73 1423.72 529.322 1417.1Z" fill="#FCB756"/>
<path d="M1982.86 1701.06C1989.43 1698.5 1992.09 1698.98 1998.83 1701.67L2000.13 1704.14C1987.87 1713.12 1975.12 1718.83 1961.07 1724.47C1967.52 1716.42 1975.16 1707.92 1982.86 1701.06Z" fill="#FCB756"/>
<path d="M926.74 759.97C930.27 765.1 931.73 768.11 930.54 774.35C929.93 777.54 928.6 780.23 927.06 783.05L925.76 783.37L924.5 781.51L922.93 786.73C922.99 783.18 923.18 779.59 922.95 776.04C923.74 770.55 925.27 765.31 926.74 759.97Z" fill="#1D191B"/>
</svg>
